<?xml version="1.0" encoding="utf-8"?>
<!-- Generator: Adobe Illustrator 19.0.0, SVG Export Plug-In . SVG Version: 6.00 Build 0)  -->
<svg version="1.1" id="Layer_6" xmlns="http://www.w3.org/2000/svg" xmlns:xlink="http://www.w3.org/1999/xlink" x="0px" y="0px"
	 viewBox="0 0 1024 1024" style="enable-background:new 0 0 1024 1024;" xml:space="preserve">
<path id="XMLID_2_" d="M568.6,539.4c53.7,33.9,129.6,84.6,153.7,115.8l0.6,0.7l0.6,0.7c7,8.3,16.3,17.8,26.2,28
	c-11.7,1.2-22.4,1.5-32.8-0.9c-4.8-1.1-9.5-2.8-14.3-5.1c-1.5-0.7-1.5-0.7-14.9-6c-4.1-1.6-9.4-3.7-11.8-4.6l-0.5-0.2l-2-0.7
	c-10.4-3.8-17.5-6.7-22.8-8.8c-7.4-3-12.8-5.1-18.9-6.5c-10.7-2.5-21.1-4.7-30.7-3.8c-5.5,0.5-13-0.2-24.7,0.4
	c-50.2,2.7-80.6,60.2-100.5,99.8c-21.7,43.3-40.3,95.9-55.2,138.2c-0.3,0.8-6.1,17.5-8.8,25.5c-5.6,16-85.7-27.2-109.4-50.1
	c36.8-75.9,144-282.5,213-315.8C531.7,538,549.9,536.5,568.6,539.4z M592.6,352.2c-51.7-33.7-60.1,40.9-60.1,40.9l174,83.1
	C706.5,476.2,644.3,385.9,592.6,352.2z M1024,512c0,282.8-229.2,512-512,512S0,794.8,0,512S229.2,0,512,0S1024,229.2,1024,512z
	 M875.4,573c55.9-16,51.6-166,40.1-127.3c-8.6,28.7-54.9,19.6-78.5,24.8c-7.9-11.1-0.4-20.6-12-26.2c-48.7-23.7-12.9-47.7-75.4-68.7
	c2.2-81.4-76.2-130.2-108.5-153.1C602.5,195.3,563.6,120,540.8,95.7c-12.6-13.5,19.1,114.3,38.3,178.5c-20-19.5-48.4-48.6-79.7-87.3
	c-57.2-70.7-64.3-63.7-73.1-79.8c-4.2-7.7-2.7,41,1.5,94.6c-9.9-12.5-24.6-25.6-46.2-37.1c-67.6-35.8-71.7-28.8-89.5-46
	c-13.4-13,63,94.3,101.5,164.4l-34.1-35.6c0,0-42.6-60.2-160.5-65.5c-3.8,12.4,169.1,149.5,172.7,185.2c1.1,11.3-55-41.4-95.8-58.1
	c-63-33.8-146-40-146-40s35.8,35.8,105.5,85.3c80.3,57,80.2,87.3,84.6,103.2c-116.3-6.9-214.7,1.1-214.7,1.1s127.2,36.7,174.1,69.9
	c46.8,33.1-75.3,120.9-62.7,111.1c10.8-8.3-74.7,48.3-95.8,62.7c-21.1,14.4,114.7,224,306.3,271.9c30.3,7.6,80.1-277.7,153-281.6
	c54.3-2.9,26.4-7.7,79.2,11.8c0.3,0.2,25.4,9.9,25.7,10.1c51.4,24.6,92.1-1.2,143,4.4c-3.2-19.2-53.7-64-74.4-88.4
	c-46.5-60-116-87.4-116-87.4c-5.5-4.3-11.3-8.5-17.4-12.4c94.2,1.7,205.8,71.8,217,87.1c11.8,16.1,45,1.9,42.2-17.5
	C879.7,600.3,878.7,589.1,875.4,573z"/>
</svg>
