<?xml version="1.0" encoding="utf-8"?>
<!-- Generator: Adobe Illustrator 19.0.0, SVG Export Plug-In . SVG Version: 6.00 Build 0)  -->
<svg version="1.1" id="Layer_6_copy_2" xmlns="http://www.w3.org/2000/svg" xmlns:xlink="http://www.w3.org/1999/xlink" x="0px"
	 y="0px" viewBox="0 0 1024 1024" style="enable-background:new 0 0 1024 1024;" xml:space="preserve">
<path id="XMLID_1_" d="M512,0C229.2,0,0,229.2,0,512s229.2,512,512,512s512-229.2,512-512S794.8,0,512,0z M679.8,804.2
	c-91.7-39.2,0,0-91.7-39.2c0.8,38.2,0.8,38.2,3.5,135c0,0,23.5,63.5-3.9,74.2c-6.9,2.7-11.7,2.7-23.9,2.8c-4.1,0-43.8,0.1-51.8,0
	c-8,0.1-47.9,0-52,0c-12.2-0.1-17.2-0.1-24.1-2.8C408.5,963.5,432,900,432,900c2.7-96.8,2.7-96.8,3.5-135c-91.7,39.2,0,0-91.7,39.2
	C108.3,904.9,50.5,694,40.5,630.8c-21.4-135.2-15-265,89.6-403.8c62-54,179.6-103.4,266.6-117.4c45.7-7.3,106.9,71.7,115.4,83
	c8-11.3,69.4-90.3,115.2-83c87,14,204.5,63.4,266.5,117.4c104.6,138.8,110.9,268.6,89.5,403.8C973.1,694,915.3,904.8,679.8,804.2z
	 M651,476.6c0,19.3-15.6,34.9-34.9,34.9c-19.3,0-34.9-15.6-34.9-34.9c0-19.3,15.6-34.9,34.9-34.9C635.4,441.7,651,457.3,651,476.6z
	 M443,476.6c0,19.3-15.6,34.9-34.9,34.9s-34.9-15.6-34.9-34.9c0-19.3,15.6-34.9,34.9-34.9S443,457.3,443,476.6z M190.7,598.9
	L443,624.3l-2.3,69.8l-76.8-0.4c0,0-42.3,4.2-72-16.7C173.2,593.7,190.7,598.9,190.7,598.9z M732.5,677c-29.7,20.8-72,16.7-72,16.7
	l-76.8,0.4l-2.3-69.8l252.3-25.4C833.8,598.9,851.2,593.7,732.5,677z"/>
</svg>
