<?xml version="1.0" encoding="utf-8"?>
<!-- Generator: Adobe Illustrator 19.0.0, SVG Export Plug-In . SVG Version: 6.00 Build 0)  -->
<svg version="1.1" id="Layer_6_copy_3" xmlns="http://www.w3.org/2000/svg" xmlns:xlink="http://www.w3.org/1999/xlink" x="0px"
	 y="0px" viewBox="0 0 1024 1024" style="enable-background:new 0 0 1024 1024;" xml:space="preserve">
<path id="XMLID_2_" d="M534.1,273.2c-9.1-14.5-5.5-35.7,10.8-63.1c61.6-103.5,111.2-106.1,147.4-108c4.9-0.3,9.7-0.5,14.4-1
	c12.4,54,3,106.1-7.6,141.4c-9.1,30.1-20.4,53.2-26.2,63.9c-3.4,0.2-7.8,0.3-12.9,0.4c-26-9.9-63.7-12.2-94.8-12.1
	C550.2,289.3,539.6,281.9,534.1,273.2z M334.9,102.1c-4.9-0.3-9.7-0.5-14.4-1c-12.4,54-3,106.1,7.6,141.4
	c9.1,30.1,20.4,53.2,26.2,63.9c2.3,0.1,5,0.2,8,0.3c27.4-10.4,67.8-12.4,99.6-11.9c15-5.6,25.7-12.9,31.2-21.7
	c9.1-14.5,5.5-35.7-10.8-63.1C420.8,106.6,371.2,104,334.9,102.1z M443.3,390.8c14,12.5,29.4,12.9,34.3,0.7
	c4.9-12.2-2.6-32.2-16.6-44.7c-14-12.5-29.4-12.9-34.3-0.7S429.3,378.3,443.3,390.8z M418.2,467.6l33.5,80.4c0,0,0,0,33.5-80.4
	C452,405,418.2,467.6,418.2,467.6z M512.8,297.2c0.5,0,1-0.1,1.6-0.1c-0.2-0.3-0.5-0.6-0.7-0.8C513.3,296.6,513,296.9,512.8,297.2z
	 M1024,512c0,282.8-229.2,512-512,512S0,794.8,0,512S229.2,0,512,0S1024,229.2,1024,512z M965,489.2c0.6-0.6,0.2-1.5-0.5-1.7
	c-17-2.8-141.4-29.9-115.7-210.7c0.2-1.1-1.3-1.6-1.8-0.7c-20.4,32.7-45.5,56-65.3,79.8c-19.6,23.5-37.3,45-53.3,64.4
	C716.9,477.2,690,542.9,655.8,581c-12.5-6.5-25.8-12.1-39.9-16.8c0.6-0.5,1.1-1,1.7-1.5c47.8-42.2,90.4-173.9,72.9-227.3l0.4,0
	l4-6.5c0.8-1.3,19-31.2,32.8-76.8c18.4-60.6,19.9-120.3,4.5-172.6l-4.3-14.7l-14.6,4.6c-5.6,1.8-13.4,2.2-22.5,2.6
	c-19.4,1-46,2.4-75.9,18.9c-34,18.7-65.4,52.6-95.8,103.8c-1.9,3.2-3.7,6.4-5.3,9.5c-1.6-3.1-3.4-6.3-5.3-9.5
	c-30.4-51.2-61.8-85.1-95.8-103.8c-30-16.4-56.5-17.8-75.9-18.9c-9.1-0.5-16.9-0.9-22.5-2.6l-14.6-4.6l-4.3,14.7
	c-15.4,52.3-13.9,112,4.5,172.6c13.8,45.5,32.1,75.5,32.8,76.8l1,1.6c-22.1,49.8,21.6,188.7,71,232.2c1.1,0.9,2.2,1.9,3.2,2.8
	c-14,4.9-27.3,10.7-39.7,17.4c-35.1-38-62.9-105.3-74.5-163.3c-15.8-19.3-33.3-40.5-52.7-63.7c-19.8-23.8-44.9-47.1-65.3-79.8
	c-0.6-0.9-2-0.4-1.8,0.7c25.7,180.9-98.7,207.9-115.7,210.7c-0.8,0.1-1.1,1.1-0.5,1.7c11.4,11.8,90.5,151,85.7,256
	c0,0.7,0.7,1.2,1.3,1c130.7-46.5,155.1,111.2,158.3,138.1c0.1,1,1.5,1.2,1.9,0.3c8.3-18.8,51.8-102.5,136.7-21L511,991h0.4
	l69.7-127.5c84.8-81.5,128.3,2.2,136.7,20.9c0.4,0.9,1.8,0.7,1.9-0.3c3.2-26.9,27.6-184.6,158.3-138.1c0.7,0.2,1.4-0.3,1.3-1
	C874.6,640.2,953.6,500.9,965,489.2z M569.6,346.8c-14,12.5-21.5,32.6-16.6,44.7c4.9,12.2,20.2,11.8,34.3-0.7
	c14-12.5,21.5-32.6,16.6-44.7C599,333.9,583.7,334.2,569.6,346.8z M536.8,467.6l33.5,80.4c0,0,0,0,33.5-80.4
	C570.6,405,536.8,467.6,536.8,467.6z"/>
</svg>
