<?xml version="1.0" encoding="utf-8"?>
<!-- Generator: Adobe Illustrator 19.0.0, SVG Export Plug-In . SVG Version: 6.00 Build 0)  -->
<svg version="1.1" id="Layer_8_copy" xmlns="http://www.w3.org/2000/svg" xmlns:xlink="http://www.w3.org/1999/xlink" x="0px"
	 y="0px" viewBox="0 0 1024 1024" style="enable-background:new 0 0 1024 1024;" xml:space="preserve">
<path id="XMLID_2_" d="M487,386c0,17.3-14,31.2-31.2,31.2s-31.2-14-31.2-31.2c0-17.3,14-31.2,31.2-31.2S487,368.7,487,386z
	 M568.2,354.8c-17.3,0-31.2,14-31.2,31.2c0,17.3,14,31.2,31.2,31.2s31.2-14,31.2-31.2C599.5,368.7,585.5,354.8,568.2,354.8z
	 M1024,512c0,282.8-229.2,512-512,512S0,794.8,0,512S229.2,0,512,0S1024,229.2,1024,512z M781.2,133.7c0,0,10.8,141.4-31.7,240.3
	l-39.6-208.5c-70.1,107.9-78.7,175.1-39.1,222.4c-12.9,5.7-29.2,13.3-44.9,21.7c-1.8-13.1-3.6-24.3-3.6-24.3
	c-10.5-47.1-32.8-85.8-61.4-108.1c-8.5-5.6-19.7-12.1-34.6-17.6c-4.7-1.3-9.3-2.1-14.3-2.5c-4.9,0.4-9.6,1.3-14.3,2.5
	c-14.9,5.6-26,12.1-34.6,17.6c-28.6,22.3-50.9,61-61.4,108.1c0,0-1.9,11.2-3.6,24.3c-15.7-8.4-32-16-44.9-21.7
	c39.7-47.3,31.1-114.5-39.1-222.4L274.5,374c-42.4-99-31.7-240.3-31.7-240.3S48,305.5,213.9,426.4c6.4,3.1,27,17.8,44.8,12.2
	c4-0.6,24.7-6.5,44.9-14.8c23.4,15.6,49.3,31.1,92.1,44.6c1,10.8,3.1,27,5.2,37.1c-27-5.2-62.9-6.6-107.2-4.1
	c-48.4,2.8-51.1,9.1-52.8,9.4l2.7,17.1l0,0h0l2.7,17.1c41.6-6.6,117.3-18.8,166.1-0.8c0.1,0.3,0.3,0.7,0.4,1
	c-27.8,1.1-63.6,9.1-107,23.9c-46.6,15.9-49.9,16.9-51.5,17.6L269,618c0.4-0.2,3.1-0.9,48-16.2c48.2-16.5,86.8-24.1,110.7-21.9
	c-28.8,5.7-65.9,22.9-110.8,51.5c-41.7,26.5-36.9,23.6-38.3,24.7l21.6,26.9c0.3-0.2,3.9-2.6,35.5-22.6
	c39.7-25.2,73.2-41.1,96.8-46.2c0,0.9-0.1,1.8-0.1,2.8c-22.5,16-47.7,42-75.5,77.7c-29.8,38.3-26,31.2-27,32.7l29.4,18
	c0.2-0.3-3.7,7,25-29.7c17.6-22.5,34.1-41,49-54.8c5.2,59.2,2.7,87.9,30.8,109.7c-47.3,1-153.7,32.1-133.6,106.6
	c25.5,95,347.8,95,373.4,0c20-74.6-96.3-105.6-143.6-106.6c28-21.8,25.5-50.5,30.8-109.7c14.9,13.8,31.5,32.3,49,54.8
	c28.7,36.8,24.7,29.4,25,29.7l29.4-18c-0.9-1.5,2.8,5.6-27-32.7c-27.8-35.7-53-61.7-75.5-77.7c0-0.9-0.1-1.8-0.1-2.8
	c23.6,5.1,57,21,96.8,46.2c31.6,20.1,35.2,22.4,35.5,22.6l21.6-26.9c-1.4-1.1,3.3,1.7-38.3-24.7c-44.9-28.5-82.1-45.8-110.8-51.5
	c23.9-2.1,62.5,5.4,110.7,21.9c44.8,15.3,47.6,16,48,16.2l14.7-31.3c-1.6-0.8-4.9-1.7-51.5-17.6c-43.4-14.8-79.2-22.8-107-23.9
	c0.1-0.3,0.3-0.7,0.4-1c48.7-18,124.4-5.8,166.1,0.8l2.7-17.1h0l0,0l2.7-17.1c-1.7-0.3-4.5-6.6-52.8-9.4
	c-44.4-2.5-80.2-1.2-107.2,4.1c2.1-10.1,4.2-26.4,5.2-37.1c42.8-13.5,68.7-29,92.1-44.6c20.2,8.3,41,14.1,44.9,14.8
	c17.8,5.6,38.4-9.1,44.8-12.2C976,305.5,781.2,133.7,781.2,133.7z"/>
</svg>
