<?xml version="1.0" encoding="utf-8"?>
<!-- Generator: Adobe Illustrator 19.0.0, SVG Export Plug-In . SVG Version: 6.00 Build 0)  -->
<svg version="1.1" id="MainLayer_copy" xmlns="http://www.w3.org/2000/svg" xmlns:xlink="http://www.w3.org/1999/xlink" x="0px"
	 y="0px" viewBox="0 0 1024 1024" style="enable-background:new 0 0 1024 1024;" xml:space="preserve">
<path id="XMLID_2_" d="M577.1,648.2c-13.2,41.1-19.8,30.4-32.9,53.8c-11.3,20.1-33.1,50.5-37.1,55.2c-3.5-4.7-25.7-35.1-36.9-55.2
	c-13.1-23.5-19.8-12.7-33-53.8c-8.1-79.1,63.3-121.5,69.9-125.2C514,526.6,585.2,569.1,577.1,648.2z M846.1,443.5
	c9.4,78.8,6.5,153.7-8.3,210.8c-19.3,74.6-73.3,119-98.4,126.3C645.2,808.1,534,820.1,512,821.2c-22-1.1-133.4-13.1-227.7-40.7
	c-25.1-7.3-79.2-51.8-98.5-126.3c-14.8-57.1-17.8-131.9-8.3-210.8c4.7-39,43.9-88.8,78.9-111.3c22.7-14.6,48-33.6,69.1-39.6
	C371.6,298.8,501,335.4,512,373c11-37.6,140.2-74.2,186.4-80.4c21.1,6,46.2,25,68.9,39.6C802.2,354.7,841.5,404.5,846.1,443.5z
	 M420.6,445.8c0-0.9,0-1.9-0.1-2.8l-115.8-86.9c-39.9,10.3-81,58.1-81,101.3c0,51.2,41.5,92.6,92.6,92.6
	C367.5,550,420.6,497,420.6,445.8z M573.1,525.4c-9.4-10.2-19.9-19.6-31.3-27.8c-3.7-2.6-7.4-5.1-10.9-7.2c-5-3.1-11.9-7.7-23.9-7.8
	c-11.2,0.1-18.7,4.7-23.7,7.8c-3.5,2.2-7.1,4.6-10.8,7.2c-11.4,8.2-21.9,17.5-31.3,27.8c-33.5,36.6-48.7,80.4-44,126.8l0.4,4.2
	l1.3,4c10.4,32.2,19.8,43.3,30.2,53.5c2.9,2.9,3.8,3.7,6,7.6c5.7,10.3,14.3,23.5,25.3,39.4c4.4,6.3,8.1,11.5,10.5,14.7
	c1.4,1.9,2.5,3.5,3.3,4.5c0.5,0.7,0.9,1.2,1.1,1.5c10.8,14.2,25.3,16,31.6,16.1c7-0.1,21-2,31.8-16.1c0.3-0.3,0.9-0.9,1.4-1.5
	c0.8-1.1,1.9-2.6,3.3-4.5c2.3-3.2,6.1-8.4,10.5-14.7c11.1-15.9,19.6-29.2,25.3-39.4c2.2-3.9,3.1-4.8,6-7.6
	c10.4-10.2,19.8-21.2,30.2-53.5l1.3-4l0.4-4.2C621.9,605.9,606.6,562,573.1,525.4z M799.4,457.4c0-43.1-41-90.9-81-101.3L602.6,443
	c0,0.9-0.1,1.9-0.1,2.8c0,51.2,53,104.2,104.2,104.2C757.9,550,799.4,508.5,799.4,457.4z M1024,512c0,282.8-229.2,512-512,512
	S0,794.8,0,512S229.2,0,512,0S1024,229.2,1024,512z M928.2,634c8.8-73,5.6-133.3-10-189.7c-14.3-51.5-24.7-115.5-79.2-154.7
	c-9.8-7-19.6-13.4-29.4-19.1c28.9-20.3,54.4-55.3,70.5-80.6c0,0-118.7-63-215,27.6c0,0-0.1,0-0.1,0.1c-1-0.1-1.6-0.2-1.6-0.2
	c-39.9-7-92.4-11.3-151.4-11.3c-59,0-111.7,4.3-151.6,11.3c0,0-0.6,0.1-1.7,0.2c0-0.1-0.1-0.1-0.1-0.1c-96.3-90.7-215-27.6-215-27.6
	c16.1,25.3,41.7,60.4,70.6,80.6c-9.8,5.7-19.6,12.1-29.3,19.1c-54.5,39.2-65,103.2-79.3,154.7C89.8,500.7,86.6,561,95.4,634
	C111.6,768.2,201.2,834.2,228,851.1c8.5,9,23.5,18.2,66.9,25c45.9,7.1,116.4,21,209.7,21h7.3h6.9c93.3,0,163.9-13.9,209.7-21
	c43.4-6.7,58.4-16,66.9-25C822.4,834.2,912,768.2,928.2,634z"/>
</svg>
