<?xml version="1.0" encoding="utf-8"?>
<!-- Generator: Adobe Illustrator 19.0.0, SVG Export Plug-In . SVG Version: 6.00 Build 0)  -->
<svg version="1.1" id="Layer_2" xmlns="http://www.w3.org/2000/svg" xmlns:xlink="http://www.w3.org/1999/xlink" x="0px" y="0px"
	 viewBox="0 0 1024 1024" style="enable-background:new 0 0 1024 1024;" xml:space="preserve">
<path d="M512,0C229.2,0,0,229.2,0,512s229.2,512,512,512s512-229.2,512-512S794.8,0,512,0z M819.1,730.6c0,46.4-37.8,84.2-84.2,84.2
	H289.1c-46.4,0-84.2-37.8-84.2-84.2V284.8c0-46.4,37.8-84.2,84.2-84.2h445.8c46.4,0,84.2,37.8,84.2,84.2V730.6z M512,458.8
	L324.2,271c1.5-0.2,3.1-0.4,4.6-0.4h365.4c1.9,0,3.8,0.2,5.6,0.5L512,458.8z M560.9,512l187.8-187.8c0.2,1.5,0.4,3.1,0.4,4.6v365.4
	c0,1.9-0.2,3.8-0.5,5.6L560.9,512z M512,556.6l187.8,187.8c-1.5,0.2-3.1,0.4-4.6,0.4H329.8c-1.9,0-3.8-0.2-5.6-0.5L512,556.6z
	 M463.1,512L275.3,699.8c-0.2-1.5-0.4-3.1-0.4-4.6V329.8c0-1.9,0.2-3.8,0.5-5.6L463.1,512z"/>
</svg>
