<?xml version="1.0" encoding="utf-8"?>
<!-- Generator: Adobe Illustrator 19.0.0, SVG Export Plug-In . SVG Version: 6.00 Build 0)  -->
<svg version="1.1" id="Layer_7_copy" xmlns="http://www.w3.org/2000/svg" xmlns:xlink="http://www.w3.org/1999/xlink" x="0px"
	 y="0px" viewBox="0 0 1024 1024" style="enable-background:new 0 0 1024 1024;" xml:space="preserve">
<path id="XMLID_2_" d="M606,296.7c0,22.3-21,40.3-47,40.3s-47-18-47-40.3c0-22.3,21-40.3,47-40.3S606,274.4,606,296.7z M1024,512
	c0,282.8-229.2,512-512,512S0,794.8,0,512S229.2,0,512,0S1024,229.2,1024,512z M968.6,526.2c1.5,1.8,2.9,3.6,4.1,5.4
	c0,0-0.8-1.9-2.3-5.3l2.3,0.1c0,0-1.3-1.2-3.9-3.5C951.6,487,875.7,350.7,695.4,303c-42.5-68.2-115.8-126.9-166.8-140.5
	c-83.7-22.3-106.5-17.9-183.3,25.3c-57.1,32.1-116.9,110.6-116.9,110.6s-45.8,58.5-148.6,216.5c0,0-3.1,2.9-8.6,8.3
	C77.1,761.6,272.2,953,512,953c28.9,0,57.1-2.8,84.4-8.1c17.2-97.9,18.1-202.3-29.9-270.4c-4.3-64.6,48.5-124.7,82.7-156.5
	L968.6,526.2z"/>
</svg>
