<?xml version="1.0" encoding="utf-8"?>
<!-- Generator: Adobe Illustrator 19.0.0, SVG Export Plug-In . SVG Version: 6.00 Build 0)  -->
<svg version="1.1" id="Layer_5" xmlns="http://www.w3.org/2000/svg" xmlns:xlink="http://www.w3.org/1999/xlink" x="0px" y="0px"
	 viewBox="214 -92.1 1024 1024" style="enable-background:new 214 -92.1 1024 1024;" xml:space="preserve">
<path id="XMLID_2_" d="M658.1,745.6c7.4,14.8,3.3,21.3-17,22c-147.2-34.1-217.4-78.3-252.9-225c4.8-19.2,9.8-21.1,23.9-7.7
	C445.8,677,514.1,716.9,658.1,745.6z M347,544.1c-20-6.6-20-6.6-25.7,9.6C367,703.9,446.1,787.3,606.2,828.4
	c20.3-2.5,20.8-8.5,17-23.7C466.8,768.9,392,700.9,347,544.1z M702.6,210.9c-27.9,0-50.4,14.8-50.4,33s22.6,33,50.4,33
	c27.9,0,50.4-14.8,50.4-33S730.4,210.9,702.6,210.9z M1238,419.9c0,282.8-229.2,512-512,512s-512-229.2-512-512s229.2-512,512-512
	S1238,137.1,1238,419.9z M1084.7,268.9l-183.7,78l132.2-165.7c9.9-12.4,5.8-31-8.6-37.7C864.4,68.5,501.8,178,257.9,313
	c-0.5,2.1-0.9,4.2-1.4,6.3c0,0.2-0.1,0.3-0.1,0.5c-0.4,2-0.8,3.9-1.2,5.9c0,0.2-0.1,0.5-0.1,0.7c-0.4,1.9-0.7,3.8-1.1,5.7
	c0,0.2-0.1,0.5-0.1,0.7c-0.4,1.9-0.7,3.9-1,5.8c0,0.2-0.1,0.4-0.1,0.6c-0.4,2.1-0.7,4.2-1,6.3v0.1c-1,6.6-1.9,13.2-2.7,19.8
	c0,0.2,0,0.3,0,0.5c-0.2,2-0.4,3.9-0.6,5.9c-0.1,0.5-0.1,1-0.1,1.5c-0.2,1.6-0.3,3.2-0.4,4.9c-0.1,0.7-0.1,1.3-0.2,2
	c-0.1,1.5-0.2,2.9-0.3,4.4c-0.1,0.7-0.1,1.4-0.2,2.1c-0.1,1.4-0.2,3.7-0.3,5.1c0,0.6-0.1,1.1-0.1,1.7c-0.1,1.4-0.1,2.7-0.2,4.1
	c0,0.8-0.1,1.7-0.1,2.5c-0.1,1.4-0.1,2.8-0.1,4.1c0,0.8-0.1,1.6-0.1,2.4c0,1.5-0.1,3-0.1,4.5c0,0.7,0,1.4,0,2.1c0,2.2,0,4.4,0,6.6
	c0,265.1,214.9,480,480,480c15.9,0,31.7-0.8,47.2-2.3c129.6-121.3,365.2-385.5,338.9-612.6C1110.9,271.6,1097,263.7,1084.7,268.9z"
	/>
</svg>
