<?xml version="1.0" encoding="utf-8"?>
<!-- Generator: Adobe Illustrator 19.0.0, SVG Export Plug-In . SVG Version: 6.00 Build 0)  -->
<svg version="1.1" id="Layer_6_copy" xmlns="http://www.w3.org/2000/svg" xmlns:xlink="http://www.w3.org/1999/xlink" x="0px"
	 y="0px" viewBox="0 0 1024 1024" style="enable-background:new 0 0 1024 1024;" xml:space="preserve">
<path id="XMLID_3_" d="M221,399.8c-127.3-65.4-120.2-119.1-68.2-174.2c52-55.1,124.3-3.6,175.7,54.2c-7,6.5-13.9,13.1-20.5,19.8
	c-28.3-23.9-78.3-59-102-32.6c-30.1,33.7-28.1,77.4,37.6,104.2C229.6,388.4,221,399.8,221,399.8z M751.7,432.1
	c18.8,46.8,51.6,79.7,55.3,149.6c0,139.5-71.3,193.8-106.3,221.8c13.5-44-4.5-119.6-15.9-128.6c-7.9-6.3-32.8-16.1-32.8-16.1
	l-10.2,0.2c0.3,0.3,21.3,26.8,28.8,64.2c0.5,3,1.1,6.4,1.5,10.3c0.5,4.6,1,9.8,1.1,15.4c0,1.6,0,3.2,0,4.7l0.2,0
	c-0.4,40.9-7.7,98.7-104.2,109.9l5.9-19.5c-1.1-0.3-20.2-6-50.2-8.7v-32.6c16-8,38.8-22.3,62.5-46.3c43.2-43.6-14.1-40.6-14.1-40.6
	l-61.8,0.6l-61.7-0.6c0,0-57.2-3-14,40.6c23.7,23.9,46.3,38.3,62.3,46.3v32.6c-30,2.7-49,8.4-50,8.7l6.1,19.5
	c-96.5-11.2-103.8-69.1-104.2-109.9l0.2,0c-0.1-1.6,0-3.2,0-4.7c0.1-5.6,0.6-10.7,1.1-15.4c0.5-3.9,1-7.4,1.5-10.3
	c7.5-37.4,28.5-63.9,28.8-64.2l-10.2-0.2c0,0-24.8,9.8-32.8,16.1c-11.4,9-29.5,84.6-15.9,128.6c-35-28.1-106.3-82.3-106.3-221.8
	c3.8-69.9,36.5-102.8,55.3-149.6l31.6-57.2c26.1-38.7,64.7-61.7,64.7-61.7l21.8-10.5c0,0,17.2-9.8,54.1-11.1
	c22.1-0.7,55.3-1.4,67.3-0.6v0.1c0.2,0,0.3,0,0.5,0c0.2,0,0.3,0,0.5,0V291c12-0.7,45.4-0.1,67.4,0.6c36.8,1.2,54.1,11.1,54.1,11.1
	l21.9,10.5c0,0,38.6,23,64.7,61.7L751.7,432.1z M302.1,750.1c-2.9-166.4-41-33.7-45-247.8C257.1,502.4,197.5,644.2,302.1,750.1z
	 M340.5,387.7c0,0-102.4,133.6-5.6,256.9C355.3,467.8,288.5,600.3,340.5,387.7z M462.1,563.1c-15.2-132.8-95.3-64.8-95.3-64.8
	S396.4,572.5,462.1,563.1z M492,457.8c-8.5-37.1-7-118-144.8-84.5C349.4,372.7,403.6,365,492,457.8z M569.8,322.1
	c-25.2,5.9-43.8-4.2-58.8,6.3c-15-10.5-33.6-0.4-58.8-6.3c-74.4-17.3,5.8,7.8,58.8,45.3C565.3,329,640.2,305.7,569.8,322.1z
	 M656.6,498.3c0,0-80-68-95.3,64.8C626.9,572.5,656.6,498.3,656.6,498.3z M676.1,373.2c-137.8-33.5-136.3,47.4-144.8,84.5
	C619.7,365,674,372.7,676.1,373.2z M682.8,387.7c52.1,212.6-14.7,80.1,5.6,256.9C785.2,521.3,682.8,387.7,682.8,387.7z M766.2,502.4
	c-4.1,214-42.2,81.4-45,247.8C825.8,644.2,766.2,502.4,766.2,502.4z M665.6,261L665.6,261C665.6,261,665.6,261,665.6,261
	C665.6,261,665.6,261,665.6,261z M870.5,225.6c-52-55.1-124.3-3.6-175.7,54.2c7,6.5,13.9,13.1,20.5,19.8c28.3-23.9,78.3-59,102-32.6
	c30.1,33.7,28.1,77.4-37.6,104.2c14.1,17.1,22.6,28.5,22.6,28.5C929.6,334.3,922.5,280.7,870.5,225.6z M1024,512
	c0,282.8-229.2,512-512,512S0,794.8,0,512S229.2,0,512,0S1024,229.2,1024,512z M933,672.7c1.2-49.4-119.4-126-93.7-128.3
	C865,542.1,956,576.9,956,576.9c-25.7-83.8-119.1-143.8-119.1-143.8s14.8-11.9,72.4-57.7c12.5-11,20.6-23.1,25.9-34.6
	c10.6-23.3,12-50.4,3.9-78.4c-7-24.1-20.9-48-39.2-67.5c-22.2-23.5-48.6-35.2-78.5-34.8c-9.3,0.1-98.3,9.4-154.8,99.4
	c-3.2-11.8-22.5-90,16.4-111c36.6-19.7-100.8,41.2-119.6,90.9c-1.4-0.1-2.8-0.2-4.1-0.2c-4.9-28.1-8.1-75.1,20.8-90.7
	c36.5-19.7-100.7,41.1-119.5,90.9c-1.8,0.1-3.5,0.2-5.3,0.3c-2.7-27.3-0.7-61.4,23-74.2c37.6-20.3-108.9,44.8-120.9,95.2
	c-56.5-91.1-146-100.5-155.4-100.6c-29.9-0.4-56.3,11.3-78.5,34.8c-18.3,19.5-32.3,43.4-39.2,67.5c-8.1,28-6.7,55.1,3.9,78.4
	c5.2,11.5,13.4,23.5,25.9,34.6c57.5,45.8,72.4,57.7,72.4,57.7S93,493.2,67.3,576.9c0,0,91-34.8,116.7-32.5
	c25.7,2.3-94.8,78.9-93.7,128.3c46.7-21.8,101.9-18.1,101.9-18.1s-42,32.9-39.7,130.5c0,0,46.7-44.4,72.4-37.5
	c-18.7,31-31.5,72.3-3.5,130.8c15.2-24.1,50.2-68.9,50.2-68.9s-33.9,45.9,31.5,120.5c6-45.3,78.4-58.5,99.2-61.3
	c-4.5,45.9,81.5,65.9,108.6,71.3v0.2c0.2,0,0.3-0.1,0.5-0.1c0.2,0,0.3,0.1,0.5,0.1V940c27.2-5.4,113.3-25.4,108.8-71.3
	c20.8,2.8,93.3,16,99.3,61.3c65.4-74.6,31.6-120.5,31.6-120.5s35,44.8,50.2,68.9c28-58.5,15.2-99.9-3.5-130.8
	c25.7-6.9,72.4,37.5,72.4,37.5c2.3-97.6-39.7-130.5-39.7-130.5S886.3,650.9,933,672.7z"/>
</svg>
