<?xml version="1.0" encoding="utf-8"?>
<!-- Generator: Adobe Illustrator 19.0.0, SVG Export Plug-In . SVG Version: 6.00 Build 0)  -->
<svg version="1.1" id="Layer_2" xmlns="http://www.w3.org/2000/svg" xmlns:xlink="http://www.w3.org/1999/xlink" x="0px" y="0px"
	 viewBox="0 0 1024 1024" style="enable-background:new 0 0 1024 1024;" xml:space="preserve">
<path id="XMLID_1_" d="M480.7,548c0,42.5-27.5,77-61.5,77s-61.5-34.5-61.5-77s27.5-77,61.5-77S480.7,505.5,480.7,548z M604.7,471
	c-34,0-61.5,34.5-61.5,77s27.5,77,61.5,77s61.5-34.5,61.5-77S638.7,471,604.7,471z M770.5,199.3c-0.6,0-1.3,0-2,0.1l-17.7,0.9
	l-4.5-18.5c-6.6-27.1-26.4-46.1-48.3-46.1c-8.2,0-16.1,2.5-23.4,7.5l-18.2,12.4L644.6,136c-9.7-16.1-24.3-25.3-39.9-25.3
	c-12.9,0-25.1,6.3-34.6,17.9l-13.7,16.7l-16.2-13.6c-8.3-7-17.8-10.6-27.6-10.6h-0.2c0,0-0.4,0-0.4,0v0h-0.1
	c-9.8,0-19.4,3.5-27.6,10.6l-16.2,13.6l-13.7-16.7c-9.5-11.5-21.7-17.9-34.6-17.9c-15.6,0-30.2,9.2-39.9,25.3l-11.8,19.5l-18.2-12.4
	c-7.3-4.9-15.1-7.5-23.4-7.5c-21.9,0-41.8,19-48.3,46.1l-4.5,18.5l-17.7-0.9c-0.7,0-1.4-0.1-2-0.1c-27.9,0-50.6,29.4-50.6,65.6
	c0,22.8,9,43.7,24.1,55.8l11.8,9.5l-3.7,15.4c-1.5,6.2-2.2,12.7-2.2,19.2c0,36.2,22.7,65.6,50.6,65.6c18.1,0,34.7-12.9,43.7-32.6
	c1.5,0.1,3.1,0.2,4.7,0.2c18.3,0,34.8-8.5,46.3-22c8.2,6.9,17.7,10.7,27.6,10.7c7.5,0,14.7-2.1,21.5-6.2l16.3-10l11.6,15.8
	c9.7,13.1,22.6,20.4,36.5,20.4c4.4,0,8.7-0.8,12.9-2.2l6.8-2.5l0.1,0.1l0.3-0.1l6.9,2.5c4.2,1.5,8.5,2.2,13,2.2
	c13.8,0,26.8-7.2,36.5-20.4l11.7-15.8l16.3,10c6.8,4.1,14,6.2,21.5,6.2c9.9,0,19.4-3.7,27.6-10.7c11.5,13.5,28,22,46.3,22
	c1.6,0,3.1-0.1,4.7-0.2c8.9,19.6,25.5,32.6,43.7,32.6c27.9,0,50.6-29.4,50.6-65.6c0-6.5-0.8-13-2.2-19.2l-3.7-15.4l11.8-9.5
	c15.1-12.1,24.1-33,24.1-55.8C821.1,228.7,798.4,199.3,770.5,199.3z M1024,512c0,282.8-229.2,512-512,512S0,794.8,0,512
	S229.2,0,512,0S1024,229.2,1024,512z M956.6,560.5c9.8-54.4-61.8-73.6-61.8-73.6l-89.9-39.8c18.4-20.6,30-49.9,30-82.4
	c0-5.4-0.3-10.8-1-16.2c19.6-21.2,31-51.5,31-83.7c0-57-35.5-104.3-81.5-111.8c-6.3-15.9-15.6-29.9-27.4-40.9
	c-16.7-15.6-36.8-23.8-58-23.8c-9.8,0-19.6,1.8-28.8,5.4c-17.3-19.3-40.4-30.4-64.4-30.4c-19.4,0-37.9,6.8-53.5,19.7
	c-12.1-6.5-25.1-10-38.6-10c-0.1,0-0.1,0-0.2,0c0,0-0.3,0-0.3,0s0.2,0,0.1,0c-0.1,0-0.1,0-0.2,0c-13.5,0-26.6,3.5-38.6,10
	c-15.6-12.9-34.1-19.7-53.5-19.7c-24.1,0-47.1,11.1-64.4,30.4c-9.3-3.5-19-5.4-28.8-5.4c-21.3,0-41.3,8.2-58,23.8
	c-11.8,11-21.1,25-27.4,40.9c-46,7.5-81.5,54.8-81.5,111.8c0,32.2,11.4,62.5,31,83.7c-0.6,5.4-1,10.8-1,16.2
	c0,32.5,11.5,61.8,30,82.4l-89.9,39.8c0,0-71.6,19.1-61.8,73.6s27.5,84.2,27.5,84.2s31.3,108,138.8-75.6c2.3-3.9,4.5-7.7,6.5-11.4
	c-1.9,20.7-3.4,48.1-2.5,78.8c1.1,38.9,5.9,75,14.2,107.4c10.6,41.5,27,77,48.9,105.7c43.8,57.6,108.3,86.8,191.7,87.3v-49v-79v-5
	c-102-6.3-111.2-61.8-111.9-68.5l39.4-5c-0.1-0.6,10,30.9,91.1,30.9c0.1,0,0.1,0,0.1,0s0.2,0,0.3,0c81.2,0,91.3-31.5,91.3-30.9
	l39.5,5c-0.7,6.7-9.8,62.2-111.8,68.5v13v71v49c83.6-0.4,148.3-29.7,192.2-87.3C745,821,761.5,785.5,772.1,744
	c8.3-32.4,13.1-68.5,14.2-107.4c0.9-30.7-0.6-58.1-2.5-78.8c2.1,3.7,4.3,7.5,6.5,11.4c107.5,183.7,138.8,75.6,138.8,75.6
	S946.8,614.9,956.6,560.5z"/>
</svg>
