<?xml version="1.0" encoding="utf-8"?>
<!-- Generator: Adobe Illustrator 19.0.0, SVG Export Plug-In . SVG Version: 6.00 Build 0)  -->
<svg version="1.1" id="Layer_11_copy" xmlns="http://www.w3.org/2000/svg" xmlns:xlink="http://www.w3.org/1999/xlink" x="0px"
	 y="0px" viewBox="0 0 1024 1024" style="enable-background:new 0 0 1024 1024;" xml:space="preserve">
<path id="XMLID_2_" d="M434.1,684c7.9-12.4,15.4-26.1,22.9-41.4c1.5-3,7-20.7,12.5-40.6H512h42.4c5.5,20,11.1,37.6,12.5,40.6
	c7.5,15.3,15,29.4,22.9,41.4H512H434.1z M389.2,353H430V218.9l-15.8,8.5c-39.3,29.5-46.1,65.7-46.1,89.7
	C368.1,341.7,380.7,350,389.2,353z M512,520h24.4c-1.7-12-2.6-23-2.6-32.2l0-0.7c0.5-14.7,0.5-28.2,0-43.5l0-0.7l0-0.7
	c0.3-7.2,0.7-14.3,1.1-21.1h-46c0.5,6.8,0.9,13.9,1.1,21.1l0,0.7l0,0.7c-0.5,15.4-0.5,28.8,0,43.5l0,0.7c0,9.2-0.9,20-2.6,32.2H512z
	 M420.6,625.9c3.9-11.2,29.3-93.5,29.5-137.8c-0.5-15.3-0.5-29.3,0-45.2c-0.3-7.5-0.7-14.9-1.2-21.9H406h-54c-2.2,0.6-5,1.4-8.6,2.4
	c-25.8,7.2-94.5,26.4-132.4,52.1c-67.5,45.8-109.5,92.2-121.5,134.1c-6.4,22.4-4.2,43.2,7,65.4c16.7,33.2,48.4,58.2,89.2,70.4
	c42.7,12.7,89,9.4,130.5-9.4C363.5,714.7,391.8,684.8,420.6,625.9z M655.8,317.1c0-24-6.8-60.2-46.1-89.7l-15.8-8.5V353h40.8
	C643.3,350,655.8,341.7,655.8,317.1z M677.8,766H512H346.2c-4.3,2.2-8.8,4.4-13.4,6.5c-5.7,2.6-11.6,5-17.4,7.1
	c15.4,27.9,33.8,51.2,55,68.4H512h141.6c21.2-17,39.6-40.5,55-68.4c-5.9-2.1-11.7-4.5-17.4-7.1C686.6,770.4,682.1,768,677.8,766z
	 M812.9,475.6c-37.9-25.7-106.5-44.9-132.4-52.1c-3.6-1-6.4-1.4-8.6-2.4h-47.1h-49.8c-0.5,7-0.9,14.4-1.2,21.9
	c0.5,15.9,0.5,29.9,0,45.2c0.1,44.3,25.6,126.6,29.5,137.8c28.8,58.8,57.2,88.8,104.4,110.1c41.5,18.8,87.8,22.2,130.5,9.4
	c40.9-12.2,72.6-37.2,89.2-70.4c11.2-22.2,13.4-43,7-65.4C922.4,567.7,880.4,521.4,812.9,475.6z M1024,512
	c0,282.8-229.2,512-512,512S0,794.8,0,512S229.2,0,512,0S1024,229.2,1024,512z M963.2,693c15.7-31.3,18.9-62.2,9.7-94.4
	c-14.8-51.8-61.1-104.3-137.5-156.2c-43.3-29.4-113.9-49.1-144.1-57.6c-4.4-1.2-8.6-2.4-9.9-2.9l-3-1c7.4-7.1,13.8-19.4,13.8-40.4
	c0-32.1-8.5-94.1-57.8-133.6l34.3-78.4c4.9-11-0.5-25.3-10.9-29.9c-10.4-4.6-22.8,0.5-27.7,11.5l-33.6,74.9
	c-22.5-9-50.1-14.4-84-14.4c-0.1,0-0.3,0.2-0.4,0.2c-0.1,0-0.1,0-0.1,0c0,0-0.1,0-0.1,0c-0.1,0-0.3-0.2-0.4-0.2
	c-33.9,0-61.5,5.3-84,14.4l-33.6-74.9c-4.9-11-17.2-16.1-27.7-11.5c-10.4,4.6-15.8,18.9-10.9,29.9l34.3,78.4
	c-49.3,39.5-57.8,101.5-57.8,133.6c0,21,6.4,33.2,13.8,40.4l-3,1c-1.4,0.5-5.5,1.6-9.9,2.9c-30.1,8.4-100.8,28.2-144.1,57.6
	C112.2,494.3,66,546.9,51.1,598.6c-9.2,32.2-6.1,63,9.7,94.4c21.7,43.2,62,75.4,113.6,90.8c20.8,6.2,42.2,9.3,63.8,9.3
	c11.4,0,22.8-0.9,34.1-2.6c21.9,44.5,50,80.1,83.7,105.7c43.2,32.8,95.6,49.5,156,49.5c0,0,0.1,0,0.1,0c0,0,0.1,0,0.1,0
	c60.3,0,112.8-16.7,156-49.5c33.7-25.6,61.8-61.1,83.7-105.7c11.3,1.7,22.7,2.6,34.1,2.6c21.5,0,43-3.1,63.7-9.3
	C901.2,768.4,941.5,736.2,963.2,693z"/>
</svg>
