<?xml version="1.0" encoding="utf-8"?>
<!-- Generator: Adobe Illustrator 19.0.0, SVG Export Plug-In . SVG Version: 6.00 Build 0)  -->
<svg version="1.1" id="Layer_8_copy" xmlns="http://www.w3.org/2000/svg" xmlns:xlink="http://www.w3.org/1999/xlink" x="0px"
	 y="0px" viewBox="0 0 1024 1024" style="enable-background:new 0 0 1024 1024;" xml:space="preserve">
<path id="XMLID_2_" d="M382.7,457.4l52.6,62.6c-9.8,9.3-22.4,20.7-37.1,32.1c-43,33.4-82.5,51.1-114.1,51.1c-3,0-5.9-0.2-8.7-0.5
	c-42.8-4.8-65.9-14.9-77.7-22.6c-10.2-6.7-12.9-12-13.1-12.5c-2.6-6.8-2.8-11.4-2.6-13.3c0.1,0,0.2-0.1,0.3-0.1
	c9.6-4.4,25.1-11.3,41.6-18.7c53.8-24,90-40.2,102.3-47.8C334.1,482.8,359.2,469.6,382.7,457.4z M1024,512
	c0,282.8-229.2,512-512,512S0,794.8,0,512S229.2,0,512,0S1024,229.2,1024,512z M877.9,388.4c0.1-7.3-1.1-15.1-2.2-22.7
	c-0.2-1.1-0.3-2.2-0.5-3.3c-0.5-3.5-1-7-1.3-10.3c-0.1-0.9-0.2-1.8-0.2-2.6c-0.9-14.7-9.1-21.3-13.9-23.9c-1.2-0.7-2.4-1.2-3.7-1.7
	c-3.4-1.2-6.8-1.7-10.1-1.7c-6.4,0.1-12.4,2-16.6,3.7c-1.4,0.6-2.6,1.2-3.5,1.7l-55.9,22.4c2.9-7.6,6.1-15.8,9.3-24
	c8.1-21,16.1-41.9,20.2-52.5c7.5-19.6,0.7-38.7-8.7-52.9c-3.1-4.7-6.6-8.9-9.9-12.3c-0.1-0.8-0.3-1.7-0.5-2.7
	c-0.1-0.5-0.2-1-0.3-1.4c-1.3-6.4-3.2-14.4-5.7-20.3c-1.4-3.3-3.5-6.4-5.8-9.2c-4.4-5.4-9.8-9.7-13.4-12.2c-11-7.9-20.7-11.2-29-9.8
	c-7.9,1.3-20.2,8.8-36.5,22.2l-0.7,0.6l-0.6,0.6C658.9,206.1,580,285.6,570.1,294.5c-4.8,4.3-12.1,6.7-30,10
	c-0.3,0.1-0.6,0.1-0.9,0.2c-1.7,0.3-3.5,0.6-5.4,1c-5.8,1-12.4,2.1-20.2,3.4c-4.2,0.7-8.7,1.4-13.5,2.3l-11.5,1.9l0,0
	c-48.7,8.9-69.5,27.1-84.8,40.4c-3.5,3.1-6.6,5.8-9.5,7.8c-3.4,2.4-10.5,7.5-85.9,95.1c-0.3,0.2-0.7,0.4-1,0.6
	c-16.1,9.9-107.9,49.6-140.1,64.5c-32.2,14.9-18.6,52.1-16.1,58.6c1.3,3.5,6.9,16.5,27,29.7c-7.3,8.6-11.5,13.6-11.5,13.6
	l-71.9,89.5c22.6,46.8,52.7,89.2,89.8,126.3c42.5,42.5,92.1,75.9,147.2,99.2c57,24.1,117.7,36.4,180.2,36.4
	c61,0,120.1-11.6,175.9-34.6c-2.4-9.1-4.9-19.5-7.3-31c8.9,9.5,17.7,17.5,24.8,23.4c3.1-1.4,6.2-2.9,9.3-4.4
	c-5.5-17.3-14.2-48-21.7-89.9c-0.2-1-0.4-2-0.5-3c20.4,22.2,41.3,36.8,41.3,36.8s-13.6-34.5-25.2-94.9
	c17.7,17.7,33.7,28.8,33.7,28.8s-13.8-35.1-25.5-96.6c22.3,26.7,48.4,44.9,48.4,44.9s-15.2-38.6-27.2-105.8
	c-1.4-7.8-2.5-15-3.4-21.7c6.2-27.8,10.7-47.1,12.2-52.1c3-10,13.3-29.8,23.9-49l0,0l3.2-5.8c8.7-15.4,16.7-28.8,19.6-33.6
	c10.6-10.2,67.5-65,75.5-73.1C875.7,406.6,877.8,397.9,877.9,388.4z M842.1,370.7c0.9,6,2.4,15.9,1.7,19.6
	c-11.7,11.5-75,72.6-75.7,73.2l-1.6,1.5l-1.1,1.9c-0.4,0.6-8.3,13.7-18,30.6C659,525.6,595.3,524,558.1,493
	c-21.8-18.2-32.8-25.4-37.6-53.7l-71.1,25.5l69.5-120c0.1-0.7,0.1-1.5,0.2-2.2c0,0,0,0,0,0c43.2-7.2,59.4-9.9,73.8-22.8
	c10-9,76.8-76.3,106.1-105.9c6.7,9.8,21.8,21.3,54.8,15.5c5.1,4.5,18.5,20,13.9,32c-9.8,25.7-43,111.9-43.4,112.8l-14,36.4
	l129.2-51.7l0.9-0.3l0,0C840.9,362.7,841.5,366.8,842.1,370.7z M583,352l-47.8,9l-39.5,67.1l87.2-32.4V352z"/>
</svg>
