<?xml version="1.0" encoding="utf-8"?>
<!-- Generator: Adobe Illustrator 19.0.0, SVG Export Plug-In . SVG Version: 6.00 Build 0)  -->
<svg version="1.1" id="Layer_11" xmlns="http://www.w3.org/2000/svg" xmlns:xlink="http://www.w3.org/1999/xlink" x="0px" y="0px"
	 viewBox="214 -92.1 1024 1024" style="enable-background:new 214 -92.1 1024 1024;" xml:space="preserve">
<path d="M896,436.6c14.7,19.4,28.6,41.2,40.6,65.8l-88.7,1.2L896,436.6z M799.4,345.1l-2.3,116l84.6-42.3
	C854.5,387,825.3,362.9,799.4,345.1z M727.7,677.3l65.8,98.8c-22.5,4.9-45.3,8-67.5,8.4c-21.2-0.3-43-3.2-64.5-7.7L727.7,677.3z
	 M967.1,587.3L967.1,587.3L967.1,587.3c-5.5-22.6-12.5-43.5-20.6-62.9l-80,37.1l106,49.2C971.1,602.7,968.9,594.9,967.1,587.3z
	 M726,305.1c-10.1,4.1-35.4,14.4-67.9,36l69.7,104.6L796.2,343C763.3,320.9,736.2,309.3,726,305.1z M658.4,461.2l-2.7-118.5
	c-29.2,19.4-54.2,36.6-84.7,74.7L658.4,461.2z M607.6,503.6L557.5,434c-19.2,23.9-29.6,37.1-43,68.2L607.6,503.6z M589.1,561.5
	l-83.7-38.6c-9.2,21.3-13.7,36.9-20.3,64.2v0.1H485c-2.3,9.4-3.6,15-5.4,25L589.1,561.5z M919.5,723.2L797,661.9c0,0,0,0,2.2,113.1
	c70.2-12.5,180.7-72.2,180.7-72.2s-2.9-77.3-5.7-81.5c-126.4-1.7-126.4-1.7-126.4-1.7L919.5,723.2z M605.9,619.6c0,0,0,0-126.4,1.7
	c-2.8,4.2-5.7,81.5-5.7,81.5s110.5,59.7,180.7,72.2c2.2-113.1,2.2-113.1,2.2-113.1l-122.5,61.3L605.9,619.6z M726-92.1
	c-282.8,0-512,229.2-512,512s229.2,512,512,512s512-229.2,512-512S1008.8-92.1,726-92.1z M728,863.9h-2.1h-2
	c-179,0-304.9-100.2-370-167.7c20.1-196.4,65.2-340.6,117.4-446.1c0.5,0.4,1.1,0.6,1.6,0.9c21,12.2,52.4-2.7,70.2-33.2
	c17.8-30.6,15.2-65.3-5.8-77.5c-0.2-0.1-0.3-0.2-0.5-0.3C629.3,11.5,721.1-21.8,726-23.4c5,1.6,96.7,34.9,189.3,163.5
	c-0.2,0-0.3,0.1-0.5,0.2c-21,12.2-23.6,46.9-5.8,77.4s49.2,45.3,70.2,33.1c0.6-0.3,1.1-0.7,1.6-1c52.1,105.5,97.2,250,117.3,446.4
	C1032.9,763.7,907.1,863.9,728,863.9z"/>
</svg>
