<?xml version="1.0" encoding="utf-8"?>
<!-- Generator: Adobe Illustrator 19.0.0, SVG Export Plug-In . SVG Version: 6.00 Build 0)  -->
<svg version="1.1" id="Layer_1" xmlns="http://www.w3.org/2000/svg" xmlns:xlink="http://www.w3.org/1999/xlink" x="0px" y="0px"
	 viewBox="0 0 1024 1024" style="enable-background:new 0 0 1024 1024;" xml:space="preserve">
<path id="XMLID_2_" d="M378.4,345.7c-12.2,6.1-24.5,13-36.5,20.8c-20.6-46.2-37.8-143.3-8.2-172.4c36.3-35.8,35.5,32.6,33.9,75.3
	C366.4,303.2,372.2,328.5,378.4,345.7z M355.7,533.3c-9-3-19.9,5.3-24.3,18.5c-4.4,13.2-0.6,26.3,8.5,29.3s19.9-5.3,24.3-18.5
	C368.6,549.4,364.8,536.3,355.7,533.3z M564.1,669H512h-52c-88.9-2,0,21,0,21h52h52.1C564.1,690,653.1,667,564.1,669z M220.3,366.7
	c-22.7-33.1-60.4-85.3-66.7-38.7c-5.2,38.5,63.7,104.1,104.3,127.1c5.8-11.3,12.7-21.9,20.4-31.7
	C263.5,414.7,241.7,397.9,220.3,366.7z M147.7,516c-35.1-11-91.7-27.2-70.4,11.7C96,561.8,192.6,567.8,231.5,558
	c1.7-11.8,3.8-24.7,6.4-38.9C230.3,521.9,198,531.8,147.7,516z M690.4,194.1c-36.3-35.8-35.5,32.6-33.9,75.3
	c1.2,33.9-4.5,59.2-10.8,76.4c12.2,6.1,24.5,13,36.5,20.8C702.7,320.4,719.9,223.3,690.4,194.1z M667.9,533.3
	c-9,3-12.8,16.1-8.5,29.3c4.4,13.2,15.2,21.5,24.3,18.5c9-3,12.8-16.1,8.5-29.3C687.9,538.6,677,530.3,667.9,533.3z M1023,512
	c-21.1,282-229.2,512-512,512S-1,794.8-1,512S228.2,0.5,511,0C803.7-0.5,1044.2,228.2,1023,512z M953.9,545.8
	c45.1-17.8,40.3-84.5-13.7-62.4c24.7-55.3-22.4-23.3-46.2,8.9c8.7-36.4-8.1-28-40,7.2c2-8.3,5.9-35-25.7-17.9
	c-20.6,11.1-35.6,15.6-46.2,16.9c-1.9-8.1-4.2-15.9-7-23.3c41.5-6.6,90.2-19.1,47.2-38.7c19.5-9.2,113.3-46.4,50.3-48.4
	c55.8-28.8,82.9-65.5,15.1-50c26.9-45.6-18.9-97-50.6-41.8c-13.7-62.4-33.5-3.8-33.4,39.1c-15.4-35.8-24.3-17.4-29.3,33.4
	c-3.5-8.2-16.9-32.8-32.9,2.9c-5.5,12.2-10.8,21.9-15.8,29.5c-7.6-7.4-15.6-14.3-23.9-20.6c32.7-31.9,68.3-73.7,16.9-63.3
	C730,297,789,205.9,731.7,244c30.7-59.9,30.7-108.3-19.5-52.3c-6.1-56-80.7-70.9-72.6-3.7c-53.3-44.6-32.3,17.9-4,54.5
	c-37.3-20.9-33.1,0.5-4.1,47.1c-8.5-4.8-36.6-17.4-27.3,23.3c1.3,5.7,2.3,11,3.2,16C603.8,310.7,512,312,512,312
	s-92.1,0.7-95.4,16.7c0.8-5,1.9-10.3,3.2-16c9.2-40.6-18.8-28.1-27.3-23.3c29-46.5,33.2-67.9-4.1-47.1c28.3-36.6,49.3-99.1-4-54.5
	c8.1-67.2-66.5-52.3-72.6,3.7c-50.1-56.1-50.1-7.6-19.5,52.3c-57.3-38.1,1.6,53,12.9,73.2c-51.4-10.5-15.8,31.4,16.9,63.3
	c-8.3,6.4-16.3,13.3-23.9,20.6c-5-7.6-10.3-17.2-15.8-29.5c-16-35.7-29.4-11.1-32.9-2.9c-5-50.8-13.9-69.2-29.3-33.4
	c0-42.9-19.7-101.4-33.4-39.1c-31.7-55.2-77.6-3.8-50.6,41.8c-67.8-15.5-40.7,21.2,15.1,50c-62.9,2,30.9,39.2,50.3,48.4
	c-43,19.6,5.7,32.1,47.2,38.7c-2.8,7.5-5.1,15.2-7,23.3c-10.6-1.3-25.5-5.7-46.2-16.9c-31.6-17-27.7,9.6-25.7,17.9
	c-31.9-35.2-48.8-43.6-40-7.2c-23.9-32.3-70.9-64.2-46.2-8.9c-54-22.1-58.8,44.6-13.7,62.4c-58.2,29.8-17.9,40.8,38.9,28.4
	c-44.9,40,44.4,10.6,63.8,5.6c-20.4,40.9,21.9,20.8,55.8,0.4c-10.2,94.5,11.8,103.8,11.8,103.8s0.9,13.4,40,27.5
	c-0.7,1.6-1.5,3.3-2.2,4.9c-3.1,7.2-5.8,14.6-8.1,22.2c-2.4,8.1-4.3,16.4-5.4,24.7c-1.1,8.5-1.4,17.1-0.5,25.7
	c0.9,8.6,3.1,17.2,6.7,25.1c1.8,3.9,4,7.7,6.5,11.3c-5.1,2.8-10.2,5.8-15,9c-7.6,5.1-14.1,11.9-19.2,19.5
	c-4.9,7.1-8.7,15.2-10.8,23.6c-0.2,0.7-0.3,1.5-0.5,2.3c-0.1,0.6,0,0.6,0.5,0.8c0.5,0.2,1,0.4,1.5,0.6c0.6,0.2,0.5,0.3,0.9-0.1
	c1.3-1.2,2.3-2.8,3.5-4.1c1.5-1.6,3-3.1,4.6-4.6c7.7-7.1,16.6-13,26.4-16.8c-3.5,8.2-2.1,17.3-1.2,25.9c1,10.4,3.9,20.5,8.1,30.1
	c1.9,4.4,4.1,8.7,6.5,12.9c0.5,1,1.1,1.9,1.7,2.9c0.5,0.9,1,2,1.7,2.8c0.3,0.4,0.4,0.7,0.8,0.8c0.5,0.2,1.4,0.1,1.9,0.1
	c0.5,0,0.7,0.2,0.9-0.2c0.3-0.7,0.1-2.1,0-2.8c0-2.3-0.1-4.7-0.2-7c-0.2-5.1-0.2-10.3,0-15.4c0.2-6,0.7-12,1.6-17.9
	c0.4-2.8,0.8-5.6,1.7-8.3c0.9-2.7,2.3-5.1,3.6-7.7c4.9,8.9,10.5,17.5,17.7,24.7c7,7,15.2,12.9,24,17.6c2.4,1.2,4.7,2.4,7.2,3.5
	c1.1,0.5,2.2,1,3.2,1.4c0.3,0.1,2.3,1.3,2.6,1.2c0-0.1,0-0.1,0-0.2c0.3,0.4,1.8-0.7,2.2-0.9c0.2-0.1,0.6-0.2,0.7-0.4
	c0.1-0.4-1-1.5-1.3-1.8c-2.3-3-5-5.7-7.4-8.6c-5.4-6.6-10.4-13.6-14.4-21.1c-4.1-7.7-7.8-16.1-8.2-24.9c-0.1-2.1-0.1-4.3-0.3-6.4
	c0-0.5-0.2-1-0.1-1.4c0-0.5,0.1-0.6,0.5-0.4c0.4,0.2,0.9,0.8,1.2,1.1c0.4,0.4,0.8,0.7,1.2,1.1c1.5,1.3,2.9,2.7,4.5,3.9
	c1.6,1.2,3.4,2.1,5.3,2.8c3.8,1.6,7.4,2.9,10.7,5.3c3.5,2.5,6.7,5.5,9.8,8.4c6.2,5.9,11.9,12.3,17.3,19c1.3,1.5,2.5,3.1,3.8,4.6
	c0.6,0.7,1.1,1.3,1.7,2c0.2,0.3,0.9,1.3,1.3,1.3c0.2,0,0.6-0.6,0.7-0.7c0.4-0.3,0.9-0.7,1.2-1.1c0.3-0.4,0.2-0.1,0.1-0.7
	c-0.1-0.7-0.1-1.5-0.3-2.2c-1.4-7.8-3.2-15.5-5.8-23c-2.9-8.3-6.9-16.3-12-23.5c-3.9-5.5-7.6-11.5-12.9-15.8c-1.5-1.2-3.2-2.3-5-3.2
	c8.4-3.4,17.9-3.2,26.8-2.9c8.8,0.3,17.6,1.5,26.4,2.6c1,0.1,2.1,0.3,3.1,0.4c0.2,0,1,0.2,1.2,0c0.1-0.1,0-0.1,0.1-0.3
	c0.2-0.4,0.1-1.3,0.1-1.7c0-0.5,0.2-0.9-0.2-1.1c-0.3-0.2-0.6-0.6-0.9-0.8c-0.5-0.4-1.1-0.8-1.6-1.2c-1.2-0.9-2.3-1.7-3.5-2.6
	c-2.5-1.8-5.1-3.5-7.8-5.1c-5.3-3.3-10.9-6.2-16.7-8.5c-6.1-2.5-12.3-4.1-18.7-5.4c-4.8-1-9.6-2-14.6-2.3
	c-7.3-0.3-14.6,2.6-20.1,7.3c-1.8-8.6-3.6-17.3-5-26c-1.4-9.1-2.4-18.3-2.5-27.5c-0.1-8.9,0.6-17.9,2.9-26.6c0.9-3.3,2-6.5,3.3-9.6
	c40.2,9,101.2,16.9,193.7,20v0.1c104.8-3.5,169.2-13.2,208.7-23.6c2.2,4.2,3.8,8.6,5,13.1c2.3,8.7,3,17.7,2.9,26.6
	c-0.1,9.2-1.1,18.4-2.5,27.5c-1.4,8.7-3.1,17.4-5,26c-5.5-4.7-12.8-7.6-20.1-7.3c-4.9,0.2-9.7,1.3-14.6,2.3
	c-6.4,1.3-12.6,2.9-18.7,5.4c-5.8,2.4-11.3,5.3-16.7,8.5c-2.6,1.6-5.2,3.4-7.8,5.1c-1.2,0.8-2.4,1.7-3.5,2.6
	c-0.5,0.4-1.1,0.8-1.6,1.2c-0.3,0.2-0.6,0.7-0.9,0.8c-0.5,0.2-0.3,0.7-0.2,1.1c0,0.5-0.1,1.3,0.1,1.7c0.1,0.2,0,0.2,0.1,0.3
	c0.2,0.2,1,0,1.2,0c1.1-0.1,2.1-0.2,3.1-0.4c8.8-1.1,17.5-2.3,26.4-2.6c8.9-0.3,18.4-0.6,26.8,2.9c-1.8,0.9-3.4,1.9-5,3.2
	c-5.3,4.3-9,10.3-12.9,15.8c-5.1,7.2-9,15.2-12,23.5c-2.7,7.5-4.4,15.2-5.8,23c-0.1,0.7-0.2,1.5-0.3,2.2c-0.1,0.6-0.2,0.3,0.1,0.7
	c0.3,0.4,0.8,0.8,1.2,1.1c0.1,0.1,0.5,0.7,0.7,0.7c0.4,0,1.1-1,1.3-1.3c0.6-0.7,1.1-1.3,1.7-2c1.3-1.5,2.5-3.1,3.8-4.6
	c5.4-6.6,11.1-13.1,17.3-19c3.1-2.9,6.3-5.9,9.8-8.4c3.3-2.4,6.9-3.8,10.7-5.3c1.9-0.8,3.6-1.6,5.3-2.8c1.6-1.2,3-2.6,4.5-3.9
	c0.4-0.4,0.8-0.7,1.2-1.1c0.3-0.3,0.8-0.9,1.2-1.1c0.5-0.2,0.5-0.2,0.5,0.4c0,0.4-0.1,1-0.1,1.4c-0.2,2.1-0.2,4.3-0.3,6.4
	c-0.4,8.8-4,17.2-8.2,24.9c-4,7.5-9,14.5-14.4,21.1c-2.4,2.9-5,5.7-7.4,8.6c-0.2,0.3-1.3,1.3-1.3,1.8c0,0.2,0.5,0.3,0.7,0.4
	c0.4,0.2,1.9,1.2,2.2,0.9c0,0.1,0,0.1,0,0.2c0.3,0.2,2.3-1,2.6-1.2c1.1-0.5,2.2-1,3.2-1.4c2.4-1.1,4.8-2.3,7.2-3.5
	c8.8-4.6,17-10.5,24-17.6c7.2-7.2,12.8-15.8,17.7-24.7c1.3,2.5,2.6,5,3.6,7.7c0.9,2.7,1.3,5.5,1.7,8.3c0.9,5.9,1.4,11.9,1.6,17.9
	c0.2,5.1,0.1,10.3,0,15.4c-0.1,2.3-0.2,4.7-0.2,7c0,0.8-0.3,2.1,0,2.8c0.2,0.4,0.4,0.3,0.9,0.2c0.5,0,1.4,0.1,1.9-0.1
	c0.4-0.1,0.5-0.5,0.8-0.8c0.7-0.8,1.1-1.9,1.7-2.8c0.6-0.9,1.1-1.9,1.7-2.9c2.4-4.2,4.6-8.5,6.5-12.9c4.2-9.6,7.1-19.6,8.1-30.1
	c0.8-8.6,2.3-17.7-1.2-25.9c9.8,3.7,18.7,9.7,26.4,16.8c1.6,1.5,3.1,3,4.6,4.6c1.2,1.3,2.3,2.9,3.5,4.1c0.4,0.4,0.3,0.3,0.9,0.1
	c0.5-0.2,1-0.4,1.5-0.6c0.6-0.2,0.6-0.2,0.5-0.8c-0.1-0.8-0.3-1.5-0.5-2.3c-2-8.4-5.9-16.4-10.8-23.6c-5.2-7.5-11.6-14.3-19.2-19.5
	c-4.8-3.3-9.9-6.2-15-9c2.5-3.6,4.7-7.4,6.5-11.3c3.6-7.9,5.8-16.4,6.7-25.1c0.9-8.5,0.6-17.2-0.5-25.7c-1.1-8.4-3-16.6-5.4-24.7
	c-2.3-7.5-5-14.9-8.1-22.2c-1.5-3.5-3.1-7.1-4.8-10.5c25.3-11.8,26-21.7,26-21.7s22-9.4,11.8-103.8c33.9,20.4,76.3,40.6,55.8-0.4
	c19.4,5,108.7,34.4,63.8-5.6C971.8,586.6,1012,575.7,953.9,545.8z M876.5,516.1c-50.3,15.8-82.7,5.9-90.2,3.1
	c2.6,14.1,4.7,27,6.4,38.9c38.9,9.8,135.5,3.8,154.2-30.3C968.2,488.9,911.5,505.1,876.5,516.1z M870.5,328.1
	c-6.3-46.6-44,5.6-66.7,38.7c-21.4,31.2-43.2,48-57.9,56.7c7.7,9.8,14.5,20.3,20.4,31.7C806.8,432.2,875.7,366.6,870.5,328.1z"/>
</svg>
