<?xml version="1.0" encoding="utf-8"?>
<!-- Generator: Adobe Illustrator 19.0.0, SVG Export Plug-In . SVG Version: 6.00 Build 0)  -->
<svg version="1.1" id="Layer_8_copy" xmlns="http://www.w3.org/2000/svg" xmlns:xlink="http://www.w3.org/1999/xlink" x="0px"
	 y="0px" viewBox="0 0 1024 1024" style="enable-background:new 0 0 1024 1024;" xml:space="preserve">
<path id="XMLID_2_" d="M447,638.8c-55.4-3.5-10.2,18.5-80.8-42.8C366.2,596,447,502,447,638.8z M278,243.6
	c-50.9-28.5-45.2,22.6-43.5,32.8c4.4,27.8,43.2,186.2,44.6,198.3L424.3,347C424.3,347,328.9,272.2,278,243.6z M780.2,499.5l0.3-1
	l-0.5-0.4C780,498.6,780.1,499,780.2,499.5z M244,498.2l-0.5,0.4l0.3,1C243.9,499,244,498.6,244,498.2z M657.8,596
	c0,0-80.8-94-80.8,42.8C632.4,635.3,587.2,657.3,657.8,596z M664.2,722.4l-5.3,6l-4,0.1c1.9,0.9,3,1.4,3,1.4L572,814.8
	c0,0,2.3-90,0.9-125.9c-43.1,44.9-33.1,74.8-33.1,74.8s0.1,0.3-27.5-51.7h-0.5c-27.6,52-27.6,51.7-27.6,51.7s10-29.9-33.1-74.7
	c-1.4,36,0.8,125.9,0.8,125.9l-85.8-85c0,0,1.1-0.5,3-1.4l-4-0.1l-5.3-6c-7.2-8.1-5.2-16.2-13.3-23.6
	c11.2,38.1,31.3,133.1,49.1,158.4c3.3,4.7,6.4,9.3,9.4,13.8c20.5,30.4,32.7,46.3,62.5,45.4c11.8-0.4,18.9-1.7,23-2.9l-3.6-13.7
	c-9.9-7.2-17-20.2-20.2-29.8c-4.3-12.7-9.4-15.4,8.7-25.4c8.1-4.5,31.8-7.9,36.3-8.1l0-0.4h0.3h0.1l0,0.4c4.5,0.2,28.2,3.5,36.3,8
	c18.1,10,13.1,12.8,8.7,25.5c-3.3,9.6-10.4,22.6-20.2,29.8l-3.6,13.7c4.1,1.2,11.3,2.5,23,2.9c29.8,0.9,41.9-14.9,62.5-45.4
	c3-4.5,6.1-9.1,9.4-13.8c17.9-25.3,37.9-120.3,49.1-158.4C669.4,706.3,671.4,714.3,664.2,722.4z M1024,512
	c0,282.8-229.2,512-512,512S0,794.8,0,512S229.2,0,512,0S1024,229.2,1024,512z M780.4,498.5c2.2-19.6,51.1-232.3,58.6-275
	c3.5-20,11.9-99.4-70.6-53.2c-62.9,35.2-169.2,114-202.1,149.6c-30.9-7.9-30.8-10.5-54.3-8.9c-23.8-1.6-23.5,1.1-54.4,8.9
	c-32.8-35.5-139.3-114.4-202.2-149.6c-82.5-46.2-74.1,33.2-70.6,53.2c7.5,42.8,56.5,255.4,58.6,275c0,0-79.9,54-69,94.6
	c51-33.7,57.3,5,85.1,6.3h0c0,0-56.7,36.6-66.9,78.4c35.6-9.8,58.8-10.6,66.3-5.3c0.6,1,1.2,1.9,1.9,2.9c-4,5.1-46.3,59.8-44.8,94.9
	c28.3-21.2,101.4-20.2,107.7-20c13.8,43.3,25.6,106.2,42.6,130.3c3.1,4.3,6.1,8.8,9,13.1c10.6,15.7,20.6,30.6,34.6,42.1
	c16.6,13.8,35.8,20.2,58.7,19.4c4.1-0.1,8.1-0.5,11.8-1l0,0c0,0,0.2,0,0.5-0.1c3.3-0.5,6.5-1.1,9.5-1.8c7.6-1.7,17.5-4.4,21.7-7.7
	c0,0,0,0,0,0c1.3,5.2,24.9,10.1,43.3,10.6c22.9,0.7,42-5.7,58.6-19.4c14-11.6,24-26.4,34.6-42.1c2.9-4.3,5.9-8.7,9-13.1
	c17-24,28.8-87,42.6-130.3c6.2-0.2,79.4-1.1,107.7,20c1.5-35.2-40.8-89.9-44.8-94.9c0.6-0.9,1.3-1.9,1.9-2.9
	c7.4-5.3,30.7-4.5,66.3,5.3c-10.2-41.8-66.9-78.4-66.9-78.4c27.9-1.4,34.1-40,85.1-6.3C860.3,552.6,780.4,498.5,780.4,498.5z
	 M746,243.6C695.1,272.2,599.7,347,599.7,347l145.2,127.8c1.3-12.1,40.2-170.5,44.6-198.3C791.1,266.2,796.8,215.1,746,243.6z"/>
</svg>
