<?xml version="1.0" encoding="utf-8"?>
<!-- Generator: Adobe Illustrator 19.0.0, SVG Export Plug-In . SVG Version: 6.00 Build 0)  -->
<svg version="1.1" id="Layer_8_copy_2" xmlns="http://www.w3.org/2000/svg" xmlns:xlink="http://www.w3.org/1999/xlink" x="0px"
	 y="0px" viewBox="0 0 1024 1024" style="enable-background:new 0 0 1024 1024;" xml:space="preserve">
<path id="XMLID_5_" d="M512,0C229.2,0,0,229.2,0,512s229.2,512,512,512s512-229.2,512-512S794.8,0,512,0z M609.6,164.3
	c0,0,297,2.4,163.1,279.8c-51-81.7-27.1-75.3-40.6-110.1c-13.4-34.8-49.4-53.2-56.7-60.4s-22-21.6-36.6-30
	c-14.6-8.4-35.4-16.8-40.2-26.4c-4.9-9.6,3.7-15.6,9.8-12c6.1,3.6,74.4,22.8,74.4,22.8s13.4-12,4.9-16.8
	c-8.5-4.8-37.8-33.6-64.6-26.4S579.1,163.1,609.6,164.3z M420.6,164.3c30.5-1.2,13.4,27.6-13.4,20.4s-56.1,21.6-64.6,26.4
	c-8.5,4.8,4.9,16.8,4.9,16.8s68.3-19.2,74.4-22.8c6.1-3.6,14.6,2.4,9.8,12c-4.9,9.6-25.6,18-40.2,26.4c-14.6,8.4-29.3,22.8-36.6,30
	S311.4,299.2,298,334c-13.4,34.8,10.4,28.4-40.6,110.1C123.6,166.7,420.6,164.3,420.6,164.3z M851.1,669
	c-12.6,10.7-26.4,15.9-42,15.9c-1.7,0-3.4-0.1-5.1-0.2c-14-1-27.5-5.8-40.6-10.5c-11.8-4.3-24.1-8.6-36.6-10.2
	c-0.2,0.1-0.3,0.2-0.5,0.2c-3.8,1.5-8.7,4-14.2,7.1c33.4,12.1,73.7,30.3,95.3,46.8c9.3,7.1,24.8,28.6,26.5,31
	c17.6,24.6,20,35,20.2,41.9c0.3,19-18.9,33.3-37.5,47.1c-3.7,2.8-7.2,5.4-9.1,7l-26.2-30.2c3-2.6,6.9-5.5,11.5-8.9
	c4.8-3.6,14.9-11.1,19.8-16.1c-6-11.5-23.8-35.1-29.5-40c-23.2-17.6-81.6-42-114.5-50.5l0.3-1.1c-5.3,3.5-10.7,7-15.9,10.4
	c2.5,1.1,5,2.3,7.5,3.5c33.7,15.9,42.9,24.9,47.1,31c3.8,5.5,8.9,16.2,8.7,45.1c-0.1,14.6-1.5,31-3.6,40.8l-39.1-8.2
	c3.2-15.3,3.6-46.5,0.8-55c-7.6-7.1-40.5-22.6-62.3-31c-2.3,1.3-4.1,2.2-5.4,2.6c-13.4,4.8-92.7,6-92.7,6v-0.7c0,0-79.2-1.2-92.6-6
	c-1.3-0.5-3.2-1.4-5.6-2.8c-21.7,8.2-56.7,24.6-64.6,31.9c-2.8,8.5-2.4,39.7,0.8,55l-39.1,8.2c-2.1-9.9-3.5-26.3-3.6-40.8
	c-0.1-28.9,4.9-39.6,8.7-45.1c4.2-6.1,13.4-15.1,47.1-31c3.2-1.5,6.5-3,9.7-4.4c-8.3-5.5-17-11.3-25.6-16.8
	c-33.6,9.7-86.8,32.3-108.7,48.9c-5.7,4.9-23.5,28.5-29.5,40c4.9,5,15,12.5,19.8,16.1c4.5,3.4,8.4,6.3,11.5,8.9l-26.2,30.2
	c-1.9-1.6-5.4-4.2-9.1-7c-18.6-13.8-37.8-28.1-37.5-47.1c0.1-6.9,2.6-17.3,20.2-41.9c1.7-2.4,17.2-23.9,26.5-31
	c20-15.2,55.8-31.9,87.5-43.9c-0.6-0.3-1.2-0.5-1.8-0.8c-4.4-1.8-9-4.6-13.7-8c-9.5,2.1-18.9,5.4-28,8.7
	c-13.1,4.7-26.6,9.6-40.6,10.5c-1.7,0.1-3.4,0.2-5.1,0.2c-15.7,0-29.5-5.2-42-15.9c-23.4-19.8-46-41-67.8-61.5
	C94,587.4,82.8,577,71.8,566.9l27-29.5c11.2,10.2,22.4,20.8,33.3,31c21.5,20.2,43.7,41,66.3,60.1c11.7,9.9,22,7.5,48.3-2
	c3-1.1,6-2.2,9.1-3.2c-3.3-4.1-6.4-8.1-9.2-11.9l-0.2,0.5c-4-2-99.1-50.1-118.5-94.1c-14.3-32.3-11.2-64.2-8.3-94.9
	c0.7-7.2,1.4-14.6,1.9-22.1l39.9,2.7c-0.5,8-1.3,15.7-2,23.2c-2.7,28-5,52.2,5,75c5.2,11.9,32,35.1,68.1,56.9
	c2.3-23,7.7-49.8,8.4-57.2c1.2-12,28-54,36.6-66.1s82.9-49.2,98.8-58.4c15.9-9.1,57.3-8.9,57.3-8.9s2.1,3.3,5.2,7
	c-3,3.5-4.8,8-4.8,13c0,11,9,20,20,20s20-9,20-20c0-3.7-1-7.1-2.8-10.1c16.6-6.2,42.8-9.9,42.8-9.9v0.7c0,0,26.6,3.7,43.3,10.1
	c-1.4,2.8-2.3,5.9-2.3,9.2c0,11,9,20,20,20s20-9,20-20c0-5-1.9-9.6-4.9-13.1c2.7-3.4,4.5-6.1,4.5-6.1s41.5-0.2,57.3,8.9
	c15.9,9.1,90.2,46.3,98.8,58.4s35.4,54,36.6,66.1c0.8,8,7.1,39.3,9,63.3c33.5-20.9,58-42.5,63-53.8c10-22.8,7.7-47,5-75
	c-0.7-7.5-1.5-15.2-2-23.2l39.9-2.7c0.5,7.4,1.2,14.9,1.9,22.1c3,30.8,6,62.6-8.3,94.9c-19.4,44-114.5,92.1-118.5,94.1l-1.2-2.5
	c-3.4,4.3-7,8.7-10.8,13c4,1.4,8,2.8,11.7,4.1c26.3,9.5,36.6,11.9,48.3,2c22.6-19.1,44.8-40,66.3-60.1c10.9-10.2,22.1-20.7,33.3-31
	l27,29.5c-11,10.1-22.1,20.5-32.9,30.6C897,628,874.4,649.2,851.1,669z"/>
</svg>
