<?xml version="1.0" encoding="utf-8"?>
<!-- Generator: Adobe Illustrator 19.0.0, SVG Export Plug-In . SVG Version: 6.00 Build 0)  -->
<svg version="1.1" id="Layer_2" xmlns="http://www.w3.org/2000/svg" xmlns:xlink="http://www.w3.org/1999/xlink" x="0px" y="0px"
	 viewBox="0 0 1024 1024" style="enable-background:new 0 0 1024 1024;" xml:space="preserve">
<path d="M511.9,237.9c3.7,14.8,6.5,29.1,8.2,38.8c-10.7,1.9-21.5,4.2-32.1,6.8c-3.8-9.3-8.1-19.5-12.9-29.5c-1.4-3-2.8-5.9-4.2-8.8
	c0.8-13.9,5.3-28.7,13.6-44.3c3.6-6.8,6.4-10.2,8.1-11.9C495.8,192.8,503.4,204.3,511.9,237.9z M447.8,292.2c-1.6-3.3-3-7-4.3-11
	c-0.7-1.6-1.4-3.2-2.1-4.8c-17.5-38.6-29.3-52-34.3-56.4c-1.6,2.6-3.9,7.4-6.3,15.8c-11.7,39.6-8.4,72.9,9.7,99
	c0.1,0.2,0.3,0.4,0.4,0.6c12.5-7.3,28.6-14.2,46.6-20.3c-2-5.4-4.4-11.5-7.1-17.9C449.4,295.6,448.6,293.9,447.8,292.2z
	 M593.8,404.4c-93.6-1.4,20.3,108.9,82.4,71.2C676.2,475.7,687.3,405.8,593.8,404.4z M1024,512c0,282.8-229.2,512-512,512
	S0,794.8,0,512S229.2,0,512,0S1024,229.2,1024,512z M682.9,637.3c12.6-34.6,30-68,51.9-99.2c16.9-24.2,36.5-47.1,58.5-68.5
	c-12.1-11.8-22.1-21.9-26.7-27.3c-16-19-79.3-107.6-85.4-114.4c-6-6.7-6-8.7-19.4-16.7l29.6-174.4c0,0,0,0,5.3-41.5
	c4.8-37.2-15.8-5.2-15.8-5.2l-106.3,183c-7.3-0.8-14.9-1.1-22.6-0.7c-1.9-11.3-5.3-29.1-10-47c-11.8-44.6-25.5-66-44.4-69.3
	c-15.6-2.8-29.5,7.2-41.5,29.7c-3.6,6.7-6.5,13.2-8.9,19.4c-13.9-18.4-27.3-27-41.5-27c-0.2,0-0.4,0-0.6,0
	c-19.4,0.3-33.8,15.9-42.7,46.3c-10.8,36.5-2.1,87.4,3.7,110.9C200,357,226.1,438.8,242.7,405c12.1-24.5,55.3-13.7,78.4-5.7
	C164,428.7,189.1,523.8,205.7,490c12.1-24.6,55.6-13.6,78.7-5.6c-0.5,1.3-0.9,2.6-1.4,3.9C126.2,517.6,150.9,612.9,167.5,579
	c13-26.6,62.6-11.6,83.7-3.8c-0.2,0.6-0.5,1.2-0.7,1.9C91.9,606.1,117,701.9,133.7,668c12.4-25.2,57.5-13.1,80.2-5.1
	c-9,21.3-20.1,46.3-25.1,52.3c-3.4,3-9.5,6.8-15,10.2c-14.4,8.9-28.1,17.4-29.9,32.8c-1,7.9,1.8,15.9,7.6,21.8
	c88.4,90.3,168.7,144.9,238.6,162.3c16.5,4.1,32.4,6.2,47.6,6.2c27.5,0,52.9-6.7,75.8-20.1c24.8-14.5,24.5-39,24.2-55.2
	c0-3.3-0.1-6.4,0-9.4c0.9-33.7-1.5-64.3-7.3-90.9c-5.7-26-0.7-51.4,5.8-70.1c-71.5-43.2-79.4-79.9-80.1-84.4l29.6-4.7
	c0,0,0-0.2-0.1-0.5c0.1,0.3,7.4,29.5,70,66.2c18.3-0.9,42.1-1.3,55.2,1c12.3,2.2,37.4,8.1,56.3,12.9
	C670.3,677.5,675.2,658.5,682.9,637.3z M892.2,652.6c4.5-20.1,16.6-73.3-12.8-101.5c-5.7-5.4-14.8-14-25.5-24
	c-11.2-10.4-25.3-23.6-39-36.7c-21,20.3-39.6,42-55.6,64.9c-20.4,29.1-36.6,60.1-48.3,92.2c-8.1,22.3-12.8,41.8-15.6,57.2
	c8.8,6.7,20.7,14.8,33.3,20.5c1,0.5,2.1,1,3.3,1.5c10.2,4.9,28.6,13.5,50.8,13.5c15.6,0,33.2-4.3,51.2-17.1
	c6.6-4.7,17.9-13.6,17.9-13.6l20.9-23.7C872.9,685.9,888.7,667.2,892.2,652.6z"/>
</svg>
