<?xml version="1.0" encoding="utf-8"?>
<!-- Generator: Adobe Illustrator 19.0.0, SVG Export Plug-In . SVG Version: 6.00 Build 0)  -->
<svg version="1.1" id="Layer_7" xmlns="http://www.w3.org/2000/svg" xmlns:xlink="http://www.w3.org/1999/xlink" x="0px" y="0px"
	 viewBox="0 0 1024 1024" style="enable-background:new 0 0 1024 1024;" xml:space="preserve">
<path id="XMLID_2_" d="M560.8,316.9c-31.6-22.3-35.8,39.7-35.8,39.7c0,381.8,58.1,381.4,58.1,381.4h211.1c0,0,60.3,5.5,60.3-63.9
	S592.4,339.2,560.8,316.9z M801.4,648.7c0,49-43.2,45.3-43.2,45.3h-93.1c-8.4-22.4-3.9-60.7,13.4-110.9c9.2-26.8,20.4-52,29-70
	C756.2,567.2,801.4,624.6,801.4,648.7z M685.7,489.4c-9.2,18.5-23.6,49.5-35.4,83.6c-17.7,51.2-23.1,91.7-16.3,121H607
	c0,0-54,0.1-41.6-269.4c0,0,3-43.9,25.6-28.2C600.9,403.3,642.2,442.9,685.7,489.4z M463.6,316.9C432,339.2,169.9,604.7,169.9,674.1
	s60.3,63.9,60.3,63.9h211.1c0,0,58.1,0.1,58.1-381.4C499.4,356.6,495.2,294.6,463.6,316.9z M358.8,694h-92.6c0,0-43.2,3.7-43.2-45.3
	c0-24,45-81.2,93.6-135.2c8.5,17.9,19.6,42.7,28.7,69.3C362.7,633.1,367.2,671.6,358.8,694z M417.5,694H390
	c6.8-29.3,1.4-69.8-16.3-121c-11.7-33.9-26-64.7-35.2-83.2c43.6-46.7,85.1-86.4,95-93.3c22.6-15.8,25.6,28.2,25.6,28.2
	C472,694.3,417.5,694,417.5,694z M512,0C229.2,0,0,229.2,0,512s229.2,512,512,512s512-229.2,512-512S794.8,0,512,0z M864.3,784H604
	c-24.2,47.6-56,96.5-90.8,96.5c-0.3,0-1.2,0-1.2,0c0,0-0.7,0-1,0c-34.8,0-66.6-48.9-90.7-96.5H160.1c0,0-78.7,7.1-78.7-79.8
	c0-75.5,258.6-336.2,353.2-421.2c2.5-27.7,9-61.6,24.8-84.5c-26.5-47.8-54.1-76.9-73-93.1c-19.4-16.7-33-22.8-33.1-22.8l15.5-36.9
	c2.8,1.2,66.1,28.7,122.9,128.6c3-0.8,6.1-1.4,9.5-1.6l0-0.1c0,0-0.2,0,10.8,0c11,0,11,0,11,0l0.1,0.1c3.7,0.3,7.1,1,10.4,1.9
	c23.1-40.9,49.1-74.1,77.5-98.7c22.1-19.3,39.2-27.5,45.5-30.1l15.6,36.8l-0.2,0.1c-5.7,2.4-56.3,25.5-106.4,116.7
	c15.4,22.9,21.7,56.3,24.3,83.6c94.5,85,353.3,345.8,353.3,421.3C943,791.1,864.3,784,864.3,784z"/>
</svg>
