<?xml version="1.0" encoding="utf-8"?>
<!-- Generator: Adobe Illustrator 19.0.0, SVG Export Plug-In . SVG Version: 6.00 Build 0)  -->
<svg version="1.1" id="Layer_6" xmlns="http://www.w3.org/2000/svg" xmlns:xlink="http://www.w3.org/1999/xlink" x="0px" y="0px"
	 viewBox="0 0 1024 1024" style="enable-background:new 0 0 1024 1024;" xml:space="preserve">
<path id="XMLID_2_" d="M867,224c0,14.9-13,27-29,27s-29-12.1-29-27s13-27,29-27S867,209.1,867,224z M528.9,431.6
	c-36.4-31.8-83-47.6-131.2-44.4c-48.2,3.2-92.3,25-124.2,61.4c-39.1,44.6-58.4,101.8-54.5,161c2.9,44.4,18.7,85.9,45.2,120.3
	c12.9-2.4,25.5-4.6,37.7-6.7c-29.4-31.7-46.9-72.1-49.8-115.8c-3.3-50.4,13.1-99,46.4-137c26-29.7,62-47.5,101.4-50.1
	c39.4-2.6,77.5,10.3,107.2,36.3c47.7,41.7,52.5,114.5,10.8,162.2c-32.2,36.8-88.3,40.5-125.1,8.3c-13.6-11.9-21.7-28.4-22.9-46.4
	c-1.2-18,4.7-35.4,16.6-49c17.5-19.9,47.2-22.9,68.2-7.5c10.3,5.1,17.4,15.7,17.4,28c0,17.2-14,31.2-31.2,31.2s-31.2-14-31.2-31.2
	c0-17.2,13.9-31.1,31.1-31.2c-4.2-1-8.6-1.3-13-1c-11.8,0.8-22.5,6.1-30.3,15c-9,10.3-13.4,23.4-12.5,37c0.9,13.6,7.1,26.1,17.3,35
	c12,10.5,27.4,15.7,43.3,14.6c15.9-1.1,30.5-8.2,41-20.2c12.4-14.2,18.5-32.3,17.3-51.1c-1.2-18.8-9.7-35.9-23.9-48.3
	c-34.8-30.5-88-27-118.4,7.9c-17.7,20.3-26.5,46.2-24.7,73.1c1.8,26.9,13.9,51.4,34.2,69.1c50.5,44.2,127.6,39.1,171.9-11.4
	c26.1-29.8,39-67.9,36.3-107.4C576.5,493.8,558.6,457.7,528.9,431.6z M678,265c-16,0-29,12.1-29,27s13,27,29,27s29-12.1,29-27
	S694,265,678,265z M1024,512c0,282.8-229.2,512-512,512S0,794.8,0,512S229.2,0,512,0S1024,229.2,1024,512z M945.3,587.5
	c3.5-25.4,3-56.2-1-71.9c-8.1-31.9-28.1-85-61.5-104.4c0.1-2.1,0.1-4.3,0.2-6.5c1.3-54.6-1.2-96.4-7.4-124.6
	c18.9-12,31.4-32.7,31.4-56.1c0-36.9-31-67-69-67s-69,30.1-69,67c0,36.6,30.5,66.5,68.1,67c6,28.8,6.9,73.2,5.9,114.5
	c-11.5,2.9-24.1,9.6-37.7,21.1c-10-32.5-24.3-59.6-42.7-81.1c-8.3-9.7-16.5-16.9-23.6-22.2c5.1-9.4,8-20,8-31.3c0-36.9-31-67-69-67
	s-69,30.1-69,67s31,67,69,67c11.3,0,22-2.7,31.5-7.4c6.1,3.8,15.2,10.7,24.8,22.5c20.4,24.9,32,57.3,38.7,87.1
	c-1.9,2.5-3.8,5-5.8,7.6c-12.7,17.2-35.5,62.9-46.1,84.2c-30.2,60.4-43.5,75.3-77.6,105.1c31.6-83.2,21.4-180.3-35.7-257
	c-88.9-119.7-258.1-144.6-377.7-55.7c-27.5,20.4-50,45.1-67.3,72.5c-49.1,96.8-45.8,215.9,16.6,311.8c6,7.5,12.3,14.7,18.8,21.4
	C136,779.4,41,835,258,835c271.1,0,362.9-0.5,393.7-0.8L664,835c0,0,179,0,259-160C934.5,652,941.4,616.2,945.3,587.5z"/>
</svg>
