<?xml version="1.0" encoding="utf-8"?>
<!-- Generator: Adobe Illustrator 19.0.0, SVG Export Plug-In . SVG Version: 6.00 Build 0)  -->
<svg version="1.1" id="Layer_1" xmlns="http://www.w3.org/2000/svg" xmlns:xlink="http://www.w3.org/1999/xlink" x="0px" y="0px"
	 viewBox="0 0 1024 1024" style="enable-background:new 0 0 1024 1024;" xml:space="preserve">
<path id="XMLID_3_" d="M512,0C229.2,0,0,229.2,0,512s229.2,512,512,512s512-229.2,512-512S794.8,0,512,0z M813.4,637.5
	c0,0-19.5,168.1-235.5,278C523.7,941.4,512,947,512,947s-11.7-5.6-65.9-31.5c-216-109.9-235.5-278-235.5-278V159.7
	c8.7,26.9,73.3,47.8,150.7,47.8s142-20.9,150.7-47.8c8.7,26.9,73.3,47.8,150.7,47.8s142-20.9,150.7-47.8V637.5z"/>
</svg>
