<?xml version="1.0" encoding="utf-8"?>
<!-- Generator: Adobe Illustrator 19.0.0, SVG Export Plug-In . SVG Version: 6.00 Build 0)  -->
<svg version="1.1" id="Layer_2" xmlns="http://www.w3.org/2000/svg" xmlns:xlink="http://www.w3.org/1999/xlink" x="0px" y="0px"
	 viewBox="0 0 1024 1024" style="enable-background:new 0 0 1024 1024;" xml:space="preserve">
<path id="XMLID_1_" d="M512,0C229.2,0,0,229.2,0,512s229.2,512,512,512s512-229.2,512-512S794.8,0,512,0z M748.5,729.1
	c-66.1,12.8-83.1,71.4-83.1,71.4s-18.8,86.6-36,155.3C591.9,965.7,552.6,971,512,971c-161.3,0-303.1-83.2-385-208.9
	c2.9-7.9,154.7-425.8,173.7-490.2c19.2-65,119.4-195.1,119.4-195.1L499,258c0,0,149.2,10.7,197.2,18.1s62.9,46.9,83.1,88.5
	s62.9,65,111.9,88.5c49,23.5,33,45.8,33,45.8s-10.9,54.4-21.1,100.4c-0.4,2-2.6,19.3-5.6,19c-1-0.1-10.5-0.9-10.7-0.3
	c-3.8,16.8-3.6,21.1-6.4,31.2c-10.1,43.2-55.4,63.4-65.3,66.8C809.7,717.1,791.1,720.9,748.5,729.1z M661.1,342.2l-93.8,115.1
	c74.6,34.1,123.7,10.7,151.4,0C744.2,382.7,661.1,342.2,661.1,342.2z M710.2,446.1c0,0-3.2,5.3-21.2,8.9c0,0-60.4-58-23.2-95.3
	C665.8,359.7,718.5,398,710.2,446.1z"/>
</svg>
