<?xml version="1.0" encoding="utf-8"?>
<!-- Generator: Adobe Illustrator 19.0.0, SVG Export Plug-In . SVG Version: 6.00 Build 0)  -->
<svg version="1.1" id="Layer_3_copy_2" xmlns="http://www.w3.org/2000/svg" xmlns:xlink="http://www.w3.org/1999/xlink" x="0px"
	 y="0px" viewBox="214 -92.1 1024 1024" style="enable-background:new 214 -92.1 1024 1024;" xml:space="preserve">
<path d="M652.9,182.4c-39.1-20.5-84.9-10.2-102.3,23c-17.3,33.2,0.3,76.6,39.5,97.1c39.1,20.5,84.9,10.2,102.3-23
	C709.7,246.4,692,202.9,652.9,182.4z M655.4,259.3c-8.4,16.1-30.7,21.1-49.7,11.2c-19-10-27.6-31.1-19.2-47.2
	c8.4-16.1,30.7-21.1,49.7-11.2C655.2,222,663.8,243.2,655.4,259.3z M726-92.1c-282.8,0-512,229.2-512,512s229.2,512,512,512
	s512-229.2,512-512S1008.8-92.1,726-92.1z M717.8,519.2c-9,1.1-45.8,7.1-61.4,30.8c-1.5,2.3-2.8,4.7-3.8,7.2
	c-37.5,15-75.3,17.4-76,17.5l0,0c-11.5,0-16.3,11.8-16.3,19.7s8.9,12.4,20.3,10.6c0.3,0,1.1-0.2,2.4-0.4c0.1,0,0.2,0,0.2,0
	c8.7-1.7,36.9-7.7,68-18.5c0.1,0.4,0.2,0.7,0.3,1.1c20.3,66.4,24.3,121.6,23.4,151.1l-19.8,4.9l-0.8-0.1l-1.8,0.9
	c-3.2,1-24.6,7.3-123.6,30.2c-52.6,12.2-76,3.9-85.2-2.1c-7.6-4.9-9.7-10.7-10.1-12.5v-0.9l-29.1-95.6l-0.9-3.6l-2.5-3.2
	c-1.4-1.9-16.4-23.9-59.9-112.1c-43.6-88.4-17-244.4-16.8-246l0.2-1.2c0.1-0.7,8.5-66.3,47.3-129C422.3,86.5,499,47.6,599.8,52.2
	c56.4,2.6,104.1,13.9,141.6,33.8c29.1,15.4,52.3,36,68.9,61.2c17.2,26.2,23.9,52.4,26.5,69.1c-2.4,1.1-4.7,2.6-7.1,4.3
	c-11.4,8.4-21.4,14.5-25.8,17.1c-9.6,3.1-23.8,13.1-26.6,44.4c-0.5,6.1-0.8,14-1.1,23.2c-0.5,15.6-1.1,35.1-3.5,52
	c-3.3,23.8-8.1,28.7-8.3,28.9c-4.7,4.4-21.4,8.6-31.4,11.2c-20.5,5.2-39.8,10.2-45,28.2c-1.7,5.7-2.8,17.1,8,28.8
	c2.6,2.9,25.1,27.8,57.3,58.4L717.8,519.2z M1150.7,604.9l-0.9,0.8c-1.3,1.1-32.8,27-58.8,32.2c-13.2,2.6-30.7,4.9-51.3,4.9
	c-15.6,0-33.1-1.3-51.7-4.9c-12.6-2.4-20.1-3.9-26.6-6.8c-6.4-2.8-12.8-7-25.5-15.5c-11.6-7.8-27.4-18.4-52.6-34.1
	c-25.5-16-79.2-54.1-151.8-130l-18.8-19.7l27.4-7c15.7-4,33.5-8.6,43.4-17.8c16.7-15.5,19.3-56.4,20.8-100.6
	c0.3-8.8,0.5-16.3,1-21.6c0.4-4.4,1.1-8.2,2-11.4l1.9-6.2l6-3.3c0.1-0.1,9.8-5.4,22.6-14.3l14.8-10.2l8.4,15.9
	c3,5.7,6.7,13.2,10.2,20.4c5.5,11.3,12.3,25.3,21.2,42.1c14.3,27.2,46.9,63.7,94.2,105.6c37.6,33.2,71.6,58.4,73,59.5l0.5,0.3
	c2.4,1.4,57.9,34.5,90.4,65.6c8.5,8.1,12.9,16.9,13,26.2c0.3,14.3-9.2,26-12.1,29.2L1150.7,604.9z"/>
</svg>
