<?xml version="1.0" encoding="utf-8"?>
<!-- Generator: Adobe Illustrator 19.0.0, SVG Export Plug-In . SVG Version: 6.00 Build 0)  -->
<svg version="1.1" id="Layer_10" xmlns="http://www.w3.org/2000/svg" xmlns:xlink="http://www.w3.org/1999/xlink" x="0px" y="0px"
	 viewBox="0 0 1024 1024" style="enable-background:new 0 0 1024 1024;" xml:space="preserve">
<path id="XMLID_1_" d="M564.7,680.5c4.5,4.6,13.3,16.1,21.2,27.2c-4.5,16.4-18.4,56.7-54.2,87.8c-7.8,6.8-14.2,11.5-18.2,15.5h-1.4
	h-1c-4-4-10.4-8.7-18.2-15.5c-35.8-31.1-49.8-71.5-54.2-87.8c7.8-11.1,16.6-22.5,21.1-27.2c7.8-1.4,30.3-0.2,51.3,2.8
	c0.3,0,0.7-0.1,1-0.1c1,0,0.9,0.1,1.2,0.1C534.3,680.3,556.9,679.1,564.7,680.5z M186.8,295.8C22.8,459.4,217.7,515,256.1,524
	c27.5-98.9,94.6-149.2,153.2-174.7C387.4,278.8,319.7,163.3,186.8,295.8z M336,487.4c57.1,118.9,142.3,67.7,142.3,67.7
	S454.3,389.6,336,487.4z M546.5,555.2c0,0,85.1,51.2,142.3-67.7C570.3,389.6,546.5,555.2,546.5,555.2z M1024,512
	c0,282.8-229.2,512-512,512S0,794.8,0,512S229.2,0,512,0S1024,229.2,1024,512z M763.4,641.2c5.7-16.5,9.7-32.6,11.6-47.8
	c18.7-4.3,340.7-82.2,101.8-349.9C691.3,35.6,599.3,228,572.3,334.1c-35-9.9-60.2-11-60.2-11s-25.3,1.1-60.4,11.1
	c-26.9-106.1-119-298.6-304.6-90.7c-240.1,269.1,86.4,346.5,102.1,350c2,15.2,5.9,31.1,11.6,47.6l-68.3-18.7l0-0.2l-37-10.1
	L145,650.6l109.7,30.1l25.7,7.1c5,10.2,10.5,20.3,16.4,30.5l-159.5,1.5l0.4,40l156.4-1.4L322,758c6.3,9.1,12.8,18.1,19.5,26.8
	l-1.2,0.5c0,0,0,0,0,0l-30,11.6l0,0l-114.1,44.2l14.5,37.3l119.5-46.3l37.9-14.9c50.8,58,106.7,100,144.1,100
	c37.4,0,93.3-42,144.2-100.1l38.2,15.1L814,878.4l14.5-37.3l-114.1-44.2l0,0l-30-11.6c0,0,0,0,0,0l-1.5-0.6
	c6.7-8.7,13.2-17.6,19.4-26.7l28.3,0.3l156.4,1.4l0.4-40l-159.9-1.5c5.8-10.1,11.3-20.2,16.3-30.3l26.2-7.2l109.7-30.1L869.1,612
	l-37,10.1l0,0.2L763.4,641.2z M837.2,295.8c-132.8-132.5-200.5-17.1-222.5,53.4c58.7,25.5,125.9,75.8,153.4,174.8
	C807.1,514.7,1000.8,459.1,837.2,295.8z"/>
</svg>
