<?xml version="1.0" encoding="utf-8"?>
<!-- Generator: Adobe Illustrator 19.0.0, SVG Export Plug-In . SVG Version: 6.00 Build 0)  -->
<svg version="1.1" id="Layer_6_copy_4" xmlns="http://www.w3.org/2000/svg" xmlns:xlink="http://www.w3.org/1999/xlink" x="0px"
	 y="0px" viewBox="0 0 1024 1024" style="enable-background:new 0 0 1024 1024;" xml:space="preserve">
<path id="XMLID_4_" d="M414.1,525.4c-2.8,36.1-19.3,43.3-30.3,43.3c-11,0-30.3-19.3-33-55.4c-2.8-36.1,33-53,33-53
	S416.9,489.3,414.1,525.4z M1024,512c0,282.8-229.2,512-512,512S0,794.8,0,512S229.2,0,512,0S1024,229.2,1024,512z M520.7,947.6
	c3.8-0.7,59.8-10.8,113.2-21.9c-1.5-18.4-5.2-34-12.6-42.8C587.8,843.6,513,829.8,512,829.9c-0.7-0.1-75.8,13.7-109.3,53.1
	c-7.5,8.8-11.1,24.4-12.6,42.8c53.5,11,109.4,21.2,113.2,21.9c2.6,0.5,5.7,0.7,8.7,0.7C515,948.3,518.1,948.1,520.7,947.6z
	 M953.1,496.4c20.8-38.6,24.5-95.3,10.5-159.6v0c-8.2-37.3-28.6-69-59.2-91.5c-33.7-24.8-77.4-37.4-129.9-37.4
	c-36.8,0-73.9,21.2-110.2,63c-14,16.1-25.2,32.2-32.4,43.5c-1-0.4-2-0.8-2.9-1.1l3.9-0.8c0,0-30-25.6,22.4-91.4
	c-58.8,26.8-86.4,51.8-99.1,70.9c-1.3-0.3-2.7-0.6-4-0.8c-6.4-10.3-11-36.1,36.1-89.5C521.1,235.7,487,267,469.9,291.5
	c-3.9,0.8-8,1.7-12.4,2.8c-2-13.9,4.2-38.6,42.1-78.8c-64.9,30.4-99.8,59.2-118.4,82.6c-6-8.4-13.2-17.8-21.4-27.2
	c-36.3-41.8-73.4-63-110.2-63c-52.6,0-96.3,12.6-129.9,37.4c-30.5,22.5-51,54.2-59.2,91.5c-14.1,64.3-10.4,121,10.5,159.6
	c5.7,10.5,19.1,26,73,52.6c14,6.9,27.5,13,37.5,17.4L167.5,614l-0.2,2.2c-0.2,1.7-0.6,4.8-1,6.5c-0.3,1.3-6.2,32.1-7.7,68.8
	c-2.1,53,6.3,91.4,25,114.2c35.3,43.1,68.6,83.8,122,100.2c10.7,3.3,26.7,7.2,45.1,11.4c2.6-23.9,8.6-45,21.6-60.3
	c47.2-55.5,136-67.3,139.8-66.9c4-0.4,92.6,11.5,139.8,66.9c13,15.2,19,36.3,21.6,60.3c18.4-4.1,34.4-8.1,45.1-11.4
	c53.4-16.4,86.7-57.1,122-100.2c18.7-22.8,27.1-61.2,25-114.2c-1.5-36.7-7.5-67.5-7.7-68.8c-0.3-1.7-0.8-4.8-1-6.5l-0.2-2.2
	l-13.9-47.7c10-4.3,23.5-10.4,37.5-17.4C934,522.3,947.4,506.9,953.1,496.4z M357,339.9c-0.1-0.2-9.5-15.5-25-34.3
	c-10-3.9-20.2-6.5-29.8-6.5c-93.1,0-141.2,42.1-153.2,91.4c-12,49.3-9,91.4,7.5,118.9c1.6,2.6,4,5.7,6.7,9c13.9,5.5,23.5,9,23.6,9
	c4.1,1.5,7.8,3.6,10.9,6.2c9.2-18.5,30.4-60,49.7-90.7c23.3-37.1,87.7-76,118.8-93.4C362.5,347,359.3,343.7,357,339.9z M723,293.1
	c-9.7,0-20.1,2.6-30.2,6.5c-11.6,14-20.6,27-25.6,35.3c-2.4,4-5.7,7.4-9.5,10c31.9,17.8,97.5,57.7,121.3,95.7
	c19.7,31.5,41.4,74.2,50.8,93.1c3.2-2.7,7-5,11.3-6.5c0.2-0.1,9.8-3.6,23.8-9.1c2.9-3.4,5.4-6.6,7-9.3c16.9-28.3,20-71.4,7.7-122
	C867.3,336.2,818.2,293.1,723,293.1z M640,460.4c0,0-33,28.9-30.3,65c2.8,36.1,19.3,43.3,30.3,43.3c11,0,30.3-19.3,33-55.4
	C675.7,477.3,640,460.4,640,460.4z M512,761c23,0,87.5-42.2,87.5-91.9C601.1,619.4,512,532,512,532s-89.1,87.4-87.5,137.1
	C424.5,718.8,489.9,761,512,761z"/>
</svg>
