<?xml version="1.0" encoding="utf-8"?>
<!-- Generator: Adobe Illustrator 19.0.0, SVG Export Plug-In . SVG Version: 6.00 Build 0)  -->
<svg version="1.1" id="Layer_5_copy_3" xmlns="http://www.w3.org/2000/svg" xmlns:xlink="http://www.w3.org/1999/xlink" x="0px"
	 y="0px" viewBox="0 0 1024 1024" style="enable-background:new 0 0 1024 1024;" xml:space="preserve">
<path id="XMLID_1_" d="M563.6,278.6c-7.1-15.9-4.7-32.4,5.4-36.9c10.1-4.5,24,4.7,31.1,20.6c7.1,15.9,4.7,32.4-5.4,36.9
	C584.6,303.8,570.7,294.5,563.6,278.6z M454.8,241.7c-10.1-4.5-24,4.7-31.1,20.6c-7.1,15.9-4.7,32.4,5.4,36.9
	c10.1,4.5,24-4.7,31.1-20.6C467.4,262.8,464.9,246.2,454.8,241.7z M1024,512c0,282.8-229.2,512-512,512S0,794.8,0,512S229.2,0,512,0
	S1024,229.2,1024,512z M568.9,575.1c1.2-5.9,2.1-11.8,2.7-17.6l185.8-12.3L904,494.9l-12.2-40.6l-141.8,48.6l-176,11.7
	c0.4-4.1,0.8-8.3,1.3-12.5l199.6-66.8l77.1-168.6l-36-18.6l-69.5,152.1l-167.2,56c0.6-20.5-1.7-39.7-11.2-55.8l49.1,0
	c42.7-2.9,35.9-72.1,35.9-72.1s-4.8-63.6-35.7-95.6c-3.2-3.3-6.5-6.7-9.8-10.1l47.4-61l59.5-31.2l-17.7-38.2l-67.2,35.3l-51.6,66.4
	c-7.8-7-14.4-12.4-18.7-14.6L512,168.1l-47.3,11.1c-4.3,2.2-11,7.6-18.7,14.6l-51.6-66.4l-67.2-35.3l-17.7,38.2l59.5,31.2l47.4,61
	c-3.4,3.4-6.7,6.8-9.8,10.1c-30.8,32-35.7,95.6-35.7,95.6s-6.8,69.2,35.9,72.1l49.1,0c-9.5,16.1-11.8,35.3-11.2,55.8l-167.2-56
	L208,248l-36,18.6l77.1,168.6l199.6,66.8c0.5,4.2,0.9,8.3,1.3,12.5l-176-11.7l-141.8-48.6l-12.2,40.6l146.6,50.2l185.8,12.3
	c0.6,5.9,1.5,11.8,2.7,17.6l-180.1,59l-80.1,185.2l36.3,17.8l72.7-167.9l165.6-54.3c0.1,0.1,0.1,0.2,0.2,0.3
	c-0.8,0.3-1.7,0.7-2.5,1.1c-97.7,42.8-51.2,133.2-51.2,211.2c0,58.5,38.7,130.4,96.2,128.3c57,2.1,96.1-69.9,96.1-128.3
	c0-77.9,46.5-168.4-51.2-211.2c-0.8-0.4-1.7-0.7-2.5-1.1c0.1-0.1,0.1-0.2,0.2-0.3l165.6,54.3l72.7,167.9l36.3-17.8l-80.1-185.2
	L568.9,575.1z"/>
</svg>
