<?xml version="1.0" encoding="utf-8"?>
<!-- Generator: Adobe Illustrator 19.0.0, SVG Export Plug-In . SVG Version: 6.00 Build 0)  -->
<svg version="1.1" id="Layer_6_copy" xmlns="http://www.w3.org/2000/svg" xmlns:xlink="http://www.w3.org/1999/xlink" x="0px"
	 y="0px" viewBox="0 0 1024 1024" style="enable-background:new 0 0 1024 1024;" xml:space="preserve">
<path id="XMLID_3_" d="M732.4,416.3c0,0,1.2-42.4-50-89.7c45.6-51.3,109.7-96.9,155.8-48C884.3,327.4,891.7,422.7,732.4,416.3z
	 M764.2,632.3c0,0-29.9,33.1-61,58c-2.4-7-5.2-13.9-8.4-20.7c-3.9-8.1-50.3-6.8-50.3-6.8l-0.2,0.1c0.2,0.3,18.9,23.8,25.5,56.9
	c0.5,2.6,1,5.7,1.4,9.2c0.5,4.1,0.9,8.7,1,13.6c0,1.4,0,2.8,0,4.2l0.2,0c-0.3,36.2-15.6,87.5-101.2,97.5l5.7-17.3
	c-0.9-0.3-17.9-5.3-43.9-7.7v-28.9c14-7.1,33.8-19.8,54.8-41c38.3-38.7-13-23.5-13-23.5L513.6,741H512v-0.2l-0.6,0.2l-0.4-0.2v0.2
	h-2l-61.1-15.1c0,0-51.2-15.2-12.9,23.5c21,21.2,41,33.9,55,41v28.9c-26,2.4-43.2,7.4-44.2,7.7l5.5,17.3
	c-85.5-9.9-100.8-61.2-101.2-97.5l0.2,0c-0.1-1.4,0-2.8,0-4.2c0.1-4.9,0.5-9.5,1-13.6c0.4-3.5,0.9-6.5,1.4-9.2
	c6.6-33.1,25.3-56.6,25.5-56.9l-0.2-0.1c0,0-46.5-1.3-50.3,6.8c-3.3,6.8-6.1,13.7-8.4,20.7c-31-24.9-61-58-61-58s30.7,6,40-4.7
	c-23.5-39.9-26.1-60.3-33.7-75.3c17,2.7,23.6,5.5,52.1,9.9c-43.5-50.9-32.1-91.6-32.1-91.6s9.3,10.2,35.2,24.4
	c-3.7-18.3-4.1-34.2-2.7-47.8l1.2-8.6c5.9-34.1,23.2-50.7,23.2-50.7s-5.2,21.6,14.5,52.2c-4.1-61.1,38.3-88.5,38.3-88.5
	s4.1,5.1,12.4,43.8c5-18.4,15.5-29.5,34.2-48.8c18.6-19.3,33-12,34,19.5C481.4,418.7,504,436,509,440h2c0.1-0.1,0.2-0.1,0.3-0.2
	c0.1,0.1,0.2,0.2,0.3,0.2h2c5-4,27.6-21.3,34.1-73.9c1-31.5,15.4-38.9,34-19.5c18.6,19.3,29.2,30.5,34.2,48.8
	c8.3-38.7,12.4-43.8,12.4-43.8s42.4,27.5,38.3,88.5C686.2,409.6,681,388,681,388s17.3,16.6,23.2,50.7l1.2,8.6
	c1.4,13.6,1,29.5-2.7,47.8c25.9-14.2,35.2-24.4,35.2-24.4s11.4,40.7-32.1,91.6c28.5-4.4,35.1-7.3,52.1-9.9
	c-7.5,15.1-10.2,35.4-33.7,75.3C733.6,638.3,764.2,632.3,764.2,632.3z M450.5,576.1c-13.5-117.7-84.5-57.5-84.5-57.5
	S392.3,584.3,450.5,576.1z M656.5,516.6c0,0-70.9-60.2-84.5,57.5C630.2,582.3,656.5,516.6,656.5,516.6z M290.2,416.3
	c0,0-1.2-42.4,50-89.7c-45.6-51.3-109.7-96.9-155.8-48C138.3,327.4,130.9,422.7,290.2,416.3z M1024,512c0,282.8-229.2,512-512,512
	S0,794.8,0,512S229.2,0,512,0S1024,229.2,1024,512z M893.6,675c1-43.8-105.8-111.7-83.1-113.7c22.8-2,103.5,28.8,103.5,28.8
	c-22.8-74.3-105.6-127.5-105.6-127.5s21.1-1.6,105.6,40.6c0-31.8-21.3-66.3-41.4-91.8c11.1-9.8,18.3-20.5,22.9-30.7
	c9.4-20.7,10.6-44.7,3.4-69.5c-6.2-21.3-18.5-42.6-34.8-59.8c-19.7-20.9-43.1-31.2-69.6-30.9c-8.3,0.1-16.6,1.3-24.8,3.4
	c11.1-21.2,28.2-46.5,73.8-69c-53.8-30.5-175.9,47.1-175.9,47.1s2-28.5,45.5-81.4c-53.7,2-104.4,20.3-141.7,38.4
	c-25.8-32.2-56.8-60.9-59.7-63.3c-0.1,0.1-0.3,0.2-0.4,0.3c-0.1-0.1-0.3-0.2-0.4-0.3c-2.9,2.5-34.1,31.1-59.9,63.3
	c-37.3-18.1-87.9-36.3-141.7-38.4c43.5,52.9,45.5,81.4,45.5,81.4S232.8,124.5,179,155c45.7,22.5,62.7,47.7,73.8,69
	c-8.2-2.1-16.5-3.3-24.8-3.4c-26.5-0.4-50,10-69.6,30.9c-16.3,17.2-28.6,38.5-34.8,59.8c-7.2,24.8-6,48.8,3.4,69.5
	c4.6,10.2,11.8,20.9,22.9,30.7c-20.1,25.5-41.4,60-41.4,91.8c84.4-42.2,105.6-40.6,105.6-40.6s-82.8,53.2-105.6,127.5
	c0,0,80.7-30.9,103.5-28.8c22.8,2-84.1,70-83,113.7c41.4-19.3,90.3-16.1,90.3-16.1s-37.3,29.2-35.2,115.6c0,0,41.4-39.3,64.2-33.2
	c-16.6,27.5-27.9,64.1-3.1,116c13.5-21.4,44.5-61.1,44.5-61.1s-30,40.7,27.9,106.8c5.3-40.2,69.6-51.9,88-54.4
	c-4.5,46.8,96.3,63.3,103.3,64.5v0.1c0,0,1.4,0,1.6,0c0.1,0,0.2,0,0.4,0v-0.1c0.1,0,0.2,0,0.3,0c0.1,0,0.4,0,0.7,0v0.1
	c0,0,0.3,0,0.4,0c0.2,0,1.6,0,1.6,0v-0.1c7-1.2,107.7-17.7,103.1-64.5c18.4,2.5,82.6,14.2,87.9,54.4C763,837,733,796.3,733,796.3
	s31,39.7,44.5,61.1c24.8-51.9,13.4-88.5-3.1-116c22.8-6.1,64.2,33.2,64.2,33.2c2.1-86.5-35.2-115.6-35.2-115.6
	S852.2,655.7,893.6,675z"/>
</svg>
