<?xml version="1.0" encoding="utf-8"?>
<!-- Generator: Adobe Illustrator 19.0.0, SVG Export Plug-In . SVG Version: 6.00 Build 0)  -->
<svg version="1.1" id="Layer_2" xmlns="http://www.w3.org/2000/svg" xmlns:xlink="http://www.w3.org/1999/xlink" x="0px" y="0px"
	 viewBox="0 0 1024 1024" style="enable-background:new 0 0 1024 1024;" xml:space="preserve">
<path id="XMLID_2_" d="M656.7,493.5L688.2,386l2.2-63.1c0,0-16.1-48-51.4-48s-69.6-13.7-94,0c0,0-149.2,70.8-116,143.5
	c33.2,72.7,54.3,192.5,98.4,229.6c15.7,13.2,35.1,2.5,53.5-16.5c6.6-23,19.4-50.9,31.7-73.6c10.3-19.3,21.1-36.3,31.1-49.3
	C648.2,502.6,652.5,497.7,656.7,493.5z M575.2,418.3c-26.4,0-47.7-21.4-47.7-47.7c0-26.3,21.4-47.7,47.7-47.7s47.7,21.4,47.7,47.7
	C622.9,397,601.5,418.3,575.2,418.3z M774.2,625.2c11.8,4.5,18.3,7.7,21.8,10c-13,14.7-41.4,29.6-103.8,26.2
	c-31.1-1.7-59.9-7.5-74.9-11c2.7-12.6,11.4-37.1,27.7-68.2c16.7-31.9,30.7-50.7,39.2-59.5c10.5,18,25.1,38.5,41.3,58
	C746.6,606,763,620.9,774.2,625.2z M512,0C229.2,0,0,229.2,0,512s229.2,512,512,512s512-229.2,512-512S794.8,0,512,0z M859.1,709.5
	l-0.7,0.8c-0.9,1.1-2.7,4.6-3.7,6.6c-1.4,2.7-2.8,5.5-4.5,8c-6.3,9.3-14.4,11-19.4,11c-1.6,0-2.9-0.2-3.7-0.3
	c-14.9-2.7-18.4-18-19.5-23c-1.4-6.3-2.7-15.5-4.1-28.8c-0.1-1.1-0.2-2.1-0.3-3.2c-10.4,6.4-22.5,11.4-36.2,14.9
	c-16.8,4.3-36.2,6.5-57.9,6.5c-6.4,0-13-0.2-19.8-0.6c-11.4-0.6-22.4-1.7-32.7-3.1c-3.6,26.4-3.1,53.5,2.9,81
	c47.7,220-514.9-18.7-514.9-18.7s-52.2-15.9-39.4-64.4c0,0,42.4-184.8,173.8-329.8c-27-10.3-53-15.6-74.7-11.9
	c-3.3,0.5-5-3.8-2.2-5.6c55.8-35.1,102.6-47.6,142.8-56.1c-20-12.9-40-21.6-58.6-23.2c-3.3-0.3-3.9-4.9-0.7-5.9
	c57.1-18,102.2-19.9,140.7-18.6c-21.7-17.4-43.9-29.9-65-33.1c-3.3-0.5-3.5-5.2-0.3-6c92.2-22.6,151.7-6.8,203.4-2.5
	c35.9-6.4,74.4-9.2,115.7-7.6c100.2,13.4,149.3,62.3,178.1,98.6c19.4,22,47.7,59.6,66.7,108.2c18.3,46.8,24.1,94.1,17.2,140.6
	C933.7,600.9,905.8,656.8,859.1,709.5z M887.8,417.4c15.6,40.1,20.6,80.5,14.9,120c-6.5,44.4-26.8,88.1-60.4,130.1
	c-0.1-0.7-0.1-1.3-0.2-2c-0.9-10-1.8-20.2-3.4-30.3c0.1-3.5-0.3-7-1.4-10.4c-0.3-1-0.7-1.9-1-2.8c-3-14.1-7.8-28.1-15.8-41.9
	c-17.3-29.5-46.9-52.5-92.6-71.9c-1.2-4.2-2.8-13.2-2-30.4c0.9-19.3,4.5-43,10.2-66.7c12.5-52.1,32.7-95.8,51.4-111.1
	c7.7-6.3,12.7-7.6,22.2,1.7l0.6,0.6C810.8,302.7,860.5,347.7,887.8,417.4z"/>
</svg>
