<?xml version="1.0" encoding="utf-8"?>
<!-- Generator: Adobe Illustrator 19.0.0, SVG Export Plug-In . SVG Version: 6.00 Build 0)  -->
<svg version="1.1" id="Layer_6_copy_2" xmlns="http://www.w3.org/2000/svg" xmlns:xlink="http://www.w3.org/1999/xlink" x="0px"
	 y="0px" viewBox="0 0 1024 1024" style="enable-background:new 0 0 1024 1024;" xml:space="preserve">
<path d="M512,0C229.2,0,0,229.2,0,512s229.2,512,512,512s512-229.2,512-512S794.8,0,512,0z M664,759.6c-83.1-35.5,0,0-83.1-35.5
	c0.7,34.6,0.7,64.6,3.2,152.3c0,0,21.3,57.5-3.5,67.2c-6.3,2.4-10.6,2.4-21.6,2.5c-3.7,0-39.7,0.1-46.9,0c-7.2,0.1-43.4,0-47.1,0
	c-11.1-0.1-15.6-0.1-21.8-2.5c-24.8-9.7-3.5-67.2-3.5-67.2c2.4-87.7,2.4-117.7,3.2-152.3c-83.1,35.5,0,0-83.1,35.5
	C146.3,850.8,94,659.8,84.9,602.5c-19.4-122.5-13.6-240,81.2-365.8c56.2-48.9,162.7-93.7,241.5-106.3c41.4-6.6,96.8,64.9,104.5,75.2
	c7.2-10.2,62.9-81.8,104.3-75.2c78.8,12.7,185.2,57.4,241.4,106.3c94.7,125.7,100.5,243.3,81.1,365.8
	C929.7,659.8,877.3,850.7,664,759.6z M637.9,462.9c0,17.5-14.1,31.6-31.6,31.6s-31.6-14.1-31.6-31.6s14.1-31.6,31.6-31.6
	C623.8,431.2,637.9,445.4,637.9,462.9z M449.5,462.9c0,17.5-14.1,31.6-31.6,31.6s-31.6-14.1-31.6-31.6s14.1-31.6,31.6-31.6
	S449.5,445.4,449.5,462.9z M221,573.6l228.5,23l-2.1,63.2l-69.6-0.4c0,0-38.3,3.8-65.2-15.1C205.1,568.9,221,573.6,221,573.6z
	 M711.7,644.4c-26.9,18.8-65.2,15.1-65.2,15.1l-69.6,0.4l-2.1-63.2l228.5-23C803.5,573.6,819.2,568.9,711.7,644.4z"/>
</svg>
