<?xml version="1.0" encoding="utf-8"?>
<!-- Generator: Adobe Illustrator 19.0.0, SVG Export Plug-In . SVG Version: 6.00 Build 0)  -->
<svg version="1.1" id="MainLayer" xmlns="http://www.w3.org/2000/svg" xmlns:xlink="http://www.w3.org/1999/xlink" x="0px" y="0px"
	 viewBox="0 0 1024 1024" style="enable-background:new 0 0 1024 1024;" xml:space="preserve">
<path id="XMLID_2_" d="M780.5,464.8c-2.7-10.1,2.7-20.4,12.1-22.9c9.4-2.5,19.2,3.7,21.9,13.8s-2.7,20.4-12.1,22.9
	C793,481.1,783.2,474.9,780.5,464.8z M562.2,307.1c-25.9-5.4-50,5.4-53.9,24.1c-3.9,18.7,13.9,38.3,39.8,43.7
	c25.9,5.4,50-5.4,53.9-24.1C605.9,332.1,588.1,312.5,562.2,307.1z M807.7,499.4c-9.4,2.5-14.8,12.7-12.1,22.9
	c2.7,10.1,12.5,16.3,21.9,13.8c9.4-2.5,14.8-12.7,12.1-22.9C826.9,503.1,817.1,496.9,807.7,499.4z M754,520.3
	c9.4-2.5,14.8-12.7,12.1-22.9c-2.7-10.1-12.5-16.3-21.9-13.8c-9.4,2.5-14.8,12.7-12.1,22.9C734.8,516.6,744.6,522.8,754,520.3z
	 M339.6,500.3c-6.3,4.1-20.9,13.8-73,28.8c-19.5,5.6-35.5,3.1-47.8-7.4c-9.4-8.1-13.6-18.3-13.9-19.1l-1.4-4.2
	c-1.5-6.5-4.9-26-9.6-81.2c-1.1-12.3,2-21.1,9.5-27.8c12.6-11.2,38.7-16.8,73.5-15.8c28.5,0.9,53,5.8,53.2,5.9l6.1-29.4
	c-1.1-0.2-26.9-5.5-57.9-6.5c-43.9-1.4-75.8,6.5-94.8,23.3c-14.6,13-21.4,31.2-19.5,52.8c3.2,36.6,6.2,63.1,8.9,78.7
	c1.2,6.7,2.3,12.1,4.4,16.1c2,4.7,8.1,17.6,20.6,28.8c10.4,9.3,26.5,18.7,49.3,18.7c8.3,0,17.5-1.2,27.6-4.2
	c56.4-16.3,73.1-27.3,81.1-32.5c0.7-0.4,1.2-0.8,1.7-1.1l-15.5-25.7C341.5,499,340.6,499.6,339.6,500.3z M766.8,583.7
	c-35.3,6.6-20.8,71.1-20.8,71.1s24.9,77.5,60.9,77.5c0.7,0,1.2,0.2,1.4,0.5l0,0l15.2,13.1l66.3-28.3l-27.5-134.8
	C843.8,585.5,789.7,579.4,766.8,583.7z M1024,512c0,282.8-229.2,512-512,512S0,794.8,0,512S229.2,0,512,0S1024,229.2,1024,512z
	 M887.2,555.2c16.3-28.2,35.7-75,41.7-123.4c-31-1.6-82.9-10-110.6-46.6c-20.1-26.6-23.5-62.3-10.2-106.2
	c-569.5-174-446.4-28.7-523.1-27.2c-79.2,1.5-210.6,102.2-210.6,102.2C73,901.4,456.8,940.5,551.3,880.8
	c94.4-59.7,144.9-86.6,184.8-101.6c18.9-7.1,34.3-15,45.9-22.2l39.7,22.3l102.4-43.7L887.2,555.2z M930.8,404.8
	c0.9-81.5-34.9-97.9-67-108.6c-10.2-3.2-20.1-6.3-29.9-9.4c-10.6,35.2-8.6,62.7,6,82c8.8,11.7,27.6,27,66.9,33.4
	C915.6,403.8,923.8,404.5,930.8,404.8z"/>
</svg>
