<?xml version="1.0" encoding="utf-8"?>
<!-- Generator: Adobe Illustrator 19.0.0, SVG Export Plug-In . SVG Version: 6.00 Build 0)  -->
<svg version="1.1" id="Layer_6_copy" xmlns="http://www.w3.org/2000/svg" xmlns:xlink="http://www.w3.org/1999/xlink" x="0px"
	 y="0px" viewBox="0 0 1024 1024" style="enable-background:new 0 0 1024 1024;" xml:space="preserve">
<path id="XMLID_2_" d="M721.2,447c-36.5,0-66-39.4-66-88c0-48.6,29.5-88,66-88c26.3,0,48.9,20.5,59.6,50.1c-5.6-3.9-12-6.1-18.8-6.1
	c-22.8,0-41.2,24.6-41.2,55s18.5,55,41.2,55c1,0,2-0.1,3-0.2C753.4,438.6,738,447,721.2,447z M377.8,315c6.8,0,13.2,2.2,18.8,6.1
	C386,291.5,363.3,271,337,271c-36.5,0-66,39.4-66,88c0,48.6,29.5,88,66,88c16.8,0,32.1-8.4,43.8-22.2c-1,0.1-2,0.2-3,0.2
	c-22.8,0-41.2-24.6-41.2-55S355,315,377.8,315z M566.1,428.6c0,0-38.5,28.2-41.1,87c0,0,0,0,0,0c0.1,1.6,1.6,23.6,14.1,54.4
	c57.9,0,57.9,0,57.9,0l-71.9-54.4c1.9,0,20.5,0.5,110.8,2.7C656.9,479.8,566.1,428.6,566.1,428.6z M1024,512
	c0,282.8-229.2,512-512,512S0,794.8,0,512S229.2,0,512,0S1024,229.2,1024,512z M872.9,672.2c-93.4,33.1-146.3-11.9-174.8-57.9
	c27.6,13.4,53,19.5,76.2,20.3c0.3-10.8,9.1-19.5,20-19.5c9.6,0,17.6,6.7,19.5,15.7c11.4-2.6,22.1-6.5,32.1-11.3
	c-2.3-3.2-3.6-7.2-3.6-11.4c0-11,9-20,20-20c7.5,0,14.1,4.2,17.5,10.4c8.6-6.7,16.5-13.9,23.5-21.1c-3.7-3.6-6-8.7-6-14.3
	c0-11,9-20,20-20c4.3,0,8.3,1.4,11.6,3.7c12.3-17.1,18.6-29.9,18.6-29.9s53-165.5-60.9-19.9c-61.8,79-153,73.5-196.7,51.2
	c20.6-20.4,76.6-55.5,113.6-113C922.4,250.2,682.6,37,534.7,37c-3.2,0-6.7,0.1-9.7,0.3c-3-0.2-6.5-0.3-9.7-0.3
	c-147.9,0-387.6,213.2-268.6,398.1c37,57.5,93,92.6,113.6,113c-43.6,22.3-134.9,27.8-196.7-51.2c-113.9-145.6-60.9,19.9-60.9,19.9
	s6.3,12.8,18.6,29.9c3.3-2.3,7.2-3.7,11.6-3.7c11,0,20,9,20,20c0,5.6-2.3,10.6-6,14.3c7,7.2,14.8,14.4,23.5,21.1
	c3.4-6.2,10-10.4,17.5-10.4c11,0,20,9,20,20c0,4.3-1.3,8.2-3.6,11.4c10,4.8,20.7,8.6,32.1,11.3c2-9,10-15.7,19.5-15.7
	c10.9,0,19.7,8.7,20,19.5c23.2-0.8,48.6-6.9,76.2-20.3c-28.5,46-81.5,91-174.8,57.9c-164.3-58.2-45.8,51.5-45.8,51.5
	s3.5,2.3,9.9,5.7c3.4-6.2,10-10.4,17.5-10.4c11,0,20,9,20,20c0,2-0.3,3.8-0.8,5.6c8.8,2.8,18.6,5.3,29.1,7.1
	c1.6-9.5,9.8-16.7,19.7-16.7c10.9,0,19.7,8.7,20,19.4c9.1-0.4,18.4-1.4,28-3.4c-0.6-1.9-0.9-3.9-0.9-6c0-11,9-20,20-20
	c8.7,0,16.1,5.5,18.8,13.3c8.3-3.9,16.6-8.7,24.8-14.5c-2.9-3.5-4.7-7.9-4.7-12.8c0-11,9-20,20-20c6,0,11.4,2.7,15.1,6.9
	c12.7-13.1,25.1-28.9,37-47.9c-5.6,56.7-33.8,132.8-142.2,146.9c-166.5,21.6-35.4,63.3-23.9,66.8c0.2-10.9,9-19.7,20-19.7
	c10.7,0,19.5,8.5,20,19.1c8.7-1,18.5-2.6,29-5.1c-0.6-1.9-0.9-3.9-0.9-6c0-11,9-20,20-20c8.6,0,15.9,5.4,18.7,13.1
	c9.8-4.4,19.7-9.8,29.4-16.4c-2-3.1-3.1-6.8-3.1-10.7c0-11,9-20,20-20c5.1,0,9.8,2,13.3,5.1c13.8-14.4,26.5-32.2,36.9-54.1
	c-11.7,46.8-29.6,102.3-57.3,164.9c0,0-38,125.1,50,35.1c6.5-6.7,12.6-13.9,18.2-21.6c-6.1-3.4-10.2-9.9-10.2-17.4c0-11,9-20,20-20
	c4.1,0,7.9,1.2,11.1,3.4c3.8-7.3,7.3-14.9,10.6-22.8c-7.4-2.9-12.7-10.1-12.7-18.6c0-11,9-20,20-20c2.2,0,4.3,0.4,6.2,1
	c2.9-9.3,5.5-18.8,7.8-28.4c-9.2-1.8-16.1-9.9-16.1-19.6c0-11,9-20,20-20c1.5,0,3,0.2,4.4,0.5c5.2-28.7,8.8-77.7,10.8-105.7
	c2,28,5.7,77.1,10.9,105.7c1.4-0.3,2.9-0.5,4.4-0.5c11,0,20,9,20,20c0,9.7-6.9,17.8-16.1,19.6c2.4,9.6,5,19.1,7.8,28.4
	c2-0.6,4.1-1,6.2-1c11,0,20,9,20,20c0,8.5-5.3,15.7-12.7,18.6c3.3,7.8,6.8,15.4,10.6,22.8c3.2-2.1,7-3.4,11.1-3.4c11,0,20,9,20,20
	c0,7.5-4.1,14-10.2,17.4c5.6,7.7,11.7,14.9,18.2,21.6c88,90,50-35.1,50-35.1C637.6,851.3,619.6,795.8,608,749
	c10.5,21.9,23.1,39.7,36.9,54.1c3.5-3.2,8.2-5.1,13.3-5.1c11,0,20,9,20,20c0,3.9-1.2,7.6-3.1,10.7c9.7,6.6,19.6,12,29.4,16.4
	c2.8-7.6,10.1-13.1,18.7-13.1c11,0,20,9,20,20c0,2.1-0.3,4.1-0.9,6c10.4,2.5,20.2,4.1,29,5.1c0.5-10.6,9.2-19.1,20-19.1
	c10.9,0,19.8,8.8,20,19.7c11.5-3.5,142.6-45.2-23.9-66.8C679,782.8,650.8,706.7,645.2,650c11.9,19,24.3,34.8,37,47.9
	c3.7-4.2,9.1-6.9,15.1-6.9c11,0,20,9,20,20c0,4.9-1.8,9.4-4.7,12.8c8.3,5.7,16.6,10.5,24.8,14.5c2.8-7.7,10.1-13.3,18.8-13.3
	c11,0,20,9,20,20c0,2.1-0.3,4.1-0.9,6c9.5,2,18.9,3,28,3.4c0.3-10.8,9.1-19.4,20-19.4c9.9,0,18.1,7.2,19.7,16.7
	c10.5-1.8,20.3-4.3,29.1-7.1c-0.5-1.8-0.8-3.7-0.8-5.6c0-11,9-20,20-20c7.6,0,14.1,4.2,17.5,10.4c6.4-3.4,9.9-5.7,9.9-5.7
	S1037.2,613.9,872.9,672.2z"/>
</svg>
