<?xml version="1.0" encoding="utf-8"?>
<!-- Generator: Adobe Illustrator 19.0.0, SVG Export Plug-In . SVG Version: 6.00 Build 0)  -->
<svg version="1.1" id="MainLayer_copy_2" xmlns="http://www.w3.org/2000/svg" xmlns:xlink="http://www.w3.org/1999/xlink" x="0px"
	 y="0px" viewBox="0 0 1024 1024" style="enable-background:new 0 0 1024 1024;" xml:space="preserve">
<path id="XMLID_7_" d="M512,0C229.2,0,0,229.2,0,512s229.2,512,512,512s512-229.2,512-512S794.8,0,512,0z M868.2,278l-120.4,32.1
	l127.8,10.7c0,0-105.2,27.9-169.3,25.5c-76.4,44.4-177.5,98.6-228.5,101.1c-51,2.5-106.8-9-110.9-10.7
	c-4.1-1.6-173.4-55.9-25.5-127.4c72-34.8,72-34.8,72-34.8s91.9-22.5,320-24.4c101.9-0.8,137.2-7.2,137.2-7.2l-121.6,41.7L868.2,278z
	 M326.2,68.1c154.4,20,268.7,41.5,339.8,63.8c64.4,20.2,93.9,40.5,95.6,66c0.5,7.7-1.6,15.1-6.3,21.9c-7,0.1-14.4,0.2-22.1,0.3
	c-9.9,0.1-19.6,0.2-29,0.4c2.2-0.9,4.4-2,6.5-3.1c17.6-8.8,21.1-15.6,21-17.4c-0.1-1.8-2.9-6.7-12.7-13.2c-13-8.7-33.9-17.5-62-26.3
	c-69.4-21.7-182-42.8-334.7-62.6L326.2,68.1z M563,171c68.9-5.6,100.3,0.6,108.5,21.5c4.1,10.5,0.5,20.6-5.1,28.8
	c-15.8,0.4-30.8,1-45.1,1.6c9.7-7.1,17.9-14.6,20.9-19.3c-2.8-1.2-8.6-2.9-20-3.9c-16.9-1.4-40.8-0.5-71.1,2.5
	c-72.8,7.2-182.6,27.1-326.4,59l-6.5-29.3C373.2,197.5,489.2,177,563,171z M254.1,349.4c-2.9,8.6-3.4,16.3-3.1,22.5
	c1.5,26.3,19.7,49.8,54,69.8c14.6,8.5,31.7,16.2,50.7,22.9c0.3,0.1,0.5,0.2,0.7,0.2c-0.3-0.1-0.6-0.2-0.7-0.3
	c8.7,3.5,35.8,7.5,38.9,7.9c0.1,0,0.3,0,0.4,0.1c-22.7,19.2-51.6,43.9-55,48.1c-0.8,1-3.7,1.5-8.2,1.5c-28,0-117.9-21-149.7-88.4
	C216.2,385.5,232.3,364.3,254.1,349.4z M158.9,457.8c17.9,31,47.5,56.6,86.4,74.3c17.5,8,35.3,13.6,51.1,17.2l-5.5,13.1
	c0,0-136-27.6-163.2-44.2C139.8,493.2,141.9,476.1,158.9,457.8z M130.5,553.9c14.8,5.6,39.1,12.9,81.6,23.1
	c37,8.9,70.1,15.6,72.4,16.1c0.5,22.7,0.3,44.9-1.8,47.9c-5.6,2.7-45.6,10.5-88.3,10.5c-14.7,0-29.7-0.9-43.8-3.3
	C141.7,617.4,135,581.8,130.5,553.9z M180.2,687.5c4.7,0.2,9.4,0.3,14.3,0.3c25.5,0,48.5-2.5,63.2-4.6c10.5-1.5,19.3-3.1,26.3-4.8
	l0.8,1.3c0,0-43.2,39.5-81.4,48.5C195,716.5,187,701.9,180.2,687.5z M550.3,904.5c-9.9,0-53.6-15.3-53.6-15.3s49.1,20.1,49.1,35.7
	c-0.1,0.5-0.5,0.7-1.3,0.7c-10.4,0-80.9-38.8-80.9-38.8l65.1,45.5c0,0,29,15.6,11.9,19.4c-0.7,0.1-1.4,0.2-2.2,0.2
	c-15.5,0-55.4-26.5-72.3-38.1l65.5,46.1c0,0,12.7,8.9,6,13.4c-0.2,0.2-0.7,0.2-1.3,0.2c-15.7,0-154.9-51.8-230.2-136.1
	c-18.9-15.1-57.9-48.1-83.6-81.7c27.8-9.6,54.4-28.5,70-41l62.4,73.8c57.8,27.3,183.7,88.8,196.8,114
	C552.8,903.9,552.1,904.5,550.3,904.5z M641.1,799.9L532.4,640.7c-28.9-4-141.6-20.9-219.2-50.8l6.5-15.3l12.6-11
	c83.8,32,209.1,48,210.6,48.2l6.7,0.9L665.9,783L641.1,799.9z M719,744.7c-5.4-7.5-82.7-96-135.9-156.8
	c-31.9-1.2-167.7-7.9-237.1-35.5c6-1.5,12.6-4.6,17.9-10.7c1.7-1.7,5.9-5.5,11.8-10.7c77.3,23,213.2,27.1,214.8,27.1l6.5,0.2
	l4.3,4.9c0.3,0.4,35.4,40.4,70.2,80.3c72,82.6,72.5,84,73.9,87.3l-27.8,11.4C718.2,743.6,718.9,744.6,719,744.7z M845.8,662.3
	L668.1,540.9c-29.9,0.5-183.2,1.4-274.2-25.6c8.5-7.2,18-15.4,27.8-23.7c96.5,22.4,248.8,19.2,250.6,19.2l4.8-0.1l185.6,126.8
	L845.8,662.3z M727.4,473.2c-13.4,2.9-50.4,10.1-100.8,13.2c-43.3,2.7-102.9,2.7-166.3-8.8c0.9,0,1.9,0,2.8,0c5.6,0,11-0.1,16.2-0.4
	c19.2-0.9,44-7.4,75.2-19.8c25.9,0.9,49.5,0.3,69.5-0.9c60.1-3.7,101.3-13.6,101.7-13.7l5.3-1.3l4.9,2.4L936,542.5l-13.3,26.9
	L727.4,473.2z"/>
<circle id="XMLID_3_" cx="653.2" cy="298.7" r="28.4"/>
</svg>
