<?xml version="1.0" encoding="utf-8"?>
<!-- Generator: Adobe Illustrator 19.0.0, SVG Export Plug-In . SVG Version: 6.00 Build 0)  -->
<svg version="1.1" id="MainLayer" xmlns="http://www.w3.org/2000/svg" xmlns:xlink="http://www.w3.org/1999/xlink" x="0px" y="0px"
	 viewBox="0 0 1024 1024" style="enable-background:new 0 0 1024 1024;" xml:space="preserve">
<path id="XMLID_2_" d="M637.1,378c20.9,0,37.9,16.7,37.9,37.3c0,20.6-17,37.3-37.9,37.3c-20.9,0-37.9-16.7-37.9-37.3
	C599.3,394.7,616.2,378,637.1,378z M1024,512c0,282.8-229.2,512-512,512S0,794.8,0,512S229.2,0,512,0S1024,229.2,1024,512z
	 M904.4,677.9c0.2-0.6,0.5-1.2,0.7-1.8c-25.9-4.4-201.9-33.7-311-37.6c-94.5-3.4-118.5,8-121.4,9.7c-3,2.7-6.8,4.4-11.1,4.9
	c-11,1.2-20.9-6.7-22-17.7c-0.6-5.5,1.1-10.7,4.3-14.7c9.8-12.2,44.2-26,151.7-22.2c105.1,3.8,264.8,29.5,308.5,36.8
	c-0.6-3-1.7-8.5-3.2-15.9c0,0,0-0.1,0-0.1c-0.1-0.7-0.3-1.4-0.4-2.1c0-0.1,0-0.2-0.1-0.3c-0.8-3.8-1.7-8-2.6-12.6c0-0.1,0-0.2,0-0.2
	c-0.1-0.7-0.3-1.3-0.4-2c-0.1-0.4-0.2-0.7-0.2-1.1c-0.1-0.6-0.2-1.2-0.4-1.8c-0.1-0.5-0.2-0.9-0.3-1.4c-0.1-0.5-0.2-1.1-0.3-1.7
	c-0.1-0.5-0.2-1.1-0.3-1.6c-0.1-0.6-0.2-1.2-0.4-1.7c-0.1-0.5-0.2-1-0.3-1.6c-0.1-0.6-0.2-1.2-0.4-1.8c-0.1-0.5-0.2-1-0.3-1.6
	c-0.1-0.6-0.3-1.3-0.4-1.9c-0.1-0.6-0.2-1.1-0.4-1.7c-0.1-0.6-0.3-1.2-0.4-1.8c-0.1-0.6-0.3-1.2-0.4-1.8c-0.1-0.6-0.2-1.2-0.4-1.8
	c-0.1-0.7-0.3-1.3-0.4-2c-0.1-0.6-0.2-1.1-0.4-1.7c-0.1-0.6-0.3-1.3-0.4-1.9c-0.1-0.6-0.3-1.2-0.4-1.8c-0.3-1.2-0.5-2.5-0.8-3.7
	c0-0.2-0.1-0.4-0.1-0.6c-0.2-1.1-0.5-2.1-0.7-3.2c-0.1-0.6-0.3-1.2-0.4-1.8c-0.1-0.7-0.3-1.4-0.4-2c-0.1-0.6-0.3-1.3-0.4-1.9
	c-0.2-0.7-0.3-1.4-0.5-2.1c-0.1-0.6-0.3-1.3-0.4-1.9c-0.2-0.7-0.3-1.4-0.5-2.1c-0.1-0.6-0.3-1.3-0.4-1.9c-0.2-0.7-0.3-1.5-0.5-2.2
	c-0.1-0.6-0.3-1.2-0.4-1.8c-0.2-0.8-0.3-1.5-0.5-2.3c-0.1-0.6-0.3-1.2-0.4-1.8c-0.2-0.8-0.3-1.6-0.5-2.4c-0.1-0.6-0.3-1.2-0.4-1.9
	c-0.2-0.7-0.3-1.5-0.5-2.2c-0.1-0.7-0.3-1.3-0.4-2c-0.2-0.7-0.3-1.5-0.5-2.2c-0.1-0.6-0.3-1.3-0.4-1.9c-0.2-0.9-0.4-1.7-0.6-2.6
	c-0.1-0.5-0.2-1-0.4-1.6c-0.3-1.1-0.5-2.2-0.8-3.3c-0.1-0.3-0.1-0.6-0.2-0.9c-0.3-1.4-0.6-2.8-1-4.2c-0.1-0.4-0.2-0.8-0.3-1.1
	c-0.2-1-0.5-2.1-0.7-3.1c-0.1-0.5-0.2-1-0.3-1.5c-0.2-0.9-0.4-1.8-0.6-2.7c-0.1-0.6-0.3-1.2-0.4-1.8c-0.2-0.8-0.4-1.6-0.6-2.4
	c-0.1-0.6-0.3-1.3-0.4-1.9c-0.2-0.8-0.4-1.6-0.5-2.4c-0.1-0.6-0.3-1.2-0.4-1.8c-0.2-0.8-0.4-1.7-0.6-2.5c-0.1-0.6-0.3-1.2-0.4-1.8
	c-0.2-0.8-0.4-1.7-0.6-2.5c-0.1-0.6-0.3-1.2-0.4-1.8c-0.2-0.8-0.4-1.6-0.6-2.4c-0.1-0.6-0.3-1.2-0.4-1.8c-0.2-0.8-0.4-1.6-0.6-2.4
	c-0.1-0.6-0.3-1.2-0.4-1.8c-0.2-0.9-0.4-1.7-0.6-2.6c-0.1-0.5-0.2-1-0.4-1.5c-0.2-1-0.5-2-0.7-3.1c-0.1-0.4-0.2-0.7-0.3-1.1
	c-0.3-1.4-0.7-2.7-1-4.1c-0.1-0.4-0.2-0.7-0.3-1.1c-0.2-1-0.5-2-0.7-2.9c-0.1-0.5-0.2-1-0.4-1.5c-0.2-0.8-0.4-1.7-0.6-2.5
	c-0.1-0.6-0.3-1.1-0.4-1.7c-0.2-0.8-0.4-1.5-0.6-2.2c-0.1-0.6-0.3-1.2-0.4-1.8c-0.2-0.7-0.4-1.4-0.5-2.1c-0.1-0.6-0.3-1.2-0.4-1.7
	c-0.2-0.7-0.4-1.4-0.5-2.1c-0.1-0.6-0.3-1.2-0.4-1.7c-0.2-0.7-0.4-1.4-0.5-2.1c-0.1-0.6-0.3-1.1-0.4-1.7c-0.2-0.7-0.4-1.4-0.5-2
	c-0.1-0.6-0.3-1.1-0.4-1.7c-0.2-0.7-0.4-1.4-0.5-2c-0.1-0.5-0.3-1.1-0.4-1.6c-0.2-0.7-0.4-1.4-0.5-2c-0.1-0.5-0.3-1-0.4-1.5
	c-0.2-0.8-0.4-1.5-0.6-2.3c-0.1-0.4-0.2-0.8-0.3-1.2c-0.3-1.1-0.6-2.2-0.9-3.2c0-0.1,0-0.1,0-0.2c0,0,0,0,0,0
	c-0.3-1.1-0.6-2.1-0.9-3.2c-0.1-0.4-0.2-0.7-0.3-1c-0.2-0.7-0.4-1.4-0.7-2.1c-0.1-0.4-0.3-0.8-0.4-1.2c-0.2-0.6-0.4-1.3-0.7-1.9
	c-0.1-0.4-0.3-0.8-0.4-1.2c-0.2-0.6-0.4-1.2-0.7-1.8c-0.2-0.4-0.3-0.8-0.5-1.2c-0.2-0.6-0.5-1.2-0.7-1.8c-0.2-0.4-0.3-0.7-0.5-1.1
	c-0.3-0.7-0.6-1.3-0.9-1.9c-0.1-0.3-0.2-0.6-0.4-0.8c-0.4-0.9-0.8-1.8-1.3-2.7c-0.1-0.2-0.2-0.3-0.2-0.5c-0.4-0.7-0.7-1.4-1.1-2.1
	c-0.2-0.3-0.3-0.6-0.5-0.9c-0.3-0.6-0.6-1.1-0.9-1.6c-0.2-0.3-0.4-0.7-0.6-1c-0.3-0.5-0.6-1-0.9-1.5c-0.2-0.3-0.4-0.7-0.6-1
	c-0.3-0.5-0.6-1-0.9-1.4c-0.2-0.3-0.4-0.6-0.6-1c-0.3-0.5-0.6-1-1-1.5c-0.2-0.3-0.4-0.6-0.6-0.9c-0.4-0.6-0.8-1.1-1.2-1.6
	c-0.1-0.2-0.3-0.4-0.4-0.6c-0.5-0.7-1.1-1.5-1.6-2.2c-0.2-0.2-0.3-0.4-0.5-0.6c-0.4-0.5-0.8-1-1.2-1.5c-0.2-0.3-0.4-0.5-0.6-0.8
	c-0.4-0.4-0.7-0.9-1.1-1.3c-0.2-0.3-0.5-0.6-0.7-0.8c-0.3-0.4-0.7-0.8-1-1.2c-0.2-0.3-0.5-0.6-0.7-0.8c-0.4-0.4-0.7-0.8-1.1-1.1
	c-0.2-0.3-0.5-0.5-0.7-0.8c-0.4-0.4-0.8-0.8-1.1-1.2c-0.2-0.2-0.5-0.5-0.7-0.7c-0.5-0.5-1-0.9-1.5-1.4c-0.1-0.1-0.3-0.3-0.4-0.4
	c-0.6-0.6-1.2-1.1-1.9-1.7c-0.2-0.2-0.4-0.4-0.7-0.6c-0.4-0.4-0.8-0.7-1.3-1.1c-0.3-0.2-0.5-0.4-0.8-0.7c-0.4-0.3-0.8-0.6-1.2-1
	c-0.3-0.2-0.6-0.5-0.9-0.7c-0.4-0.3-0.8-0.6-1.1-0.9c-0.3-0.2-0.6-0.4-0.9-0.7c-0.4-0.3-0.8-0.6-1.2-0.9c-0.3-0.2-0.6-0.4-0.9-0.6
	c-0.4-0.3-0.8-0.6-1.3-0.9c-0.3-0.2-0.5-0.4-0.8-0.6c-0.6-0.4-1.2-0.8-1.7-1.2c-0.2-0.2-0.5-0.3-0.7-0.5c-0.6-0.4-1.1-0.7-1.7-1.1
	c-0.3-0.2-0.6-0.4-0.9-0.5c-0.4-0.3-0.8-0.5-1.3-0.8c-0.3-0.2-0.6-0.4-1-0.6c-0.4-0.2-0.8-0.5-1.2-0.7c-0.3-0.2-0.7-0.4-1-0.6
	c-0.4-0.2-0.8-0.4-1.2-0.6c-0.3-0.2-0.7-0.4-1-0.6c-0.4-0.2-0.8-0.4-1.2-0.6c-0.3-0.2-0.7-0.4-1-0.5c-0.4-0.2-0.8-0.4-1.3-0.6
	c-0.3-0.2-0.6-0.3-0.9-0.5c-0.6-0.3-1.3-0.6-1.9-0.9c-0.4-0.2-0.8-0.4-1.1-0.5c-0.4-0.2-0.8-0.4-1.3-0.6c-0.4-0.2-0.7-0.3-1.1-0.5
	c-0.4-0.2-0.8-0.3-1.1-0.5c-0.4-0.2-0.8-0.3-1.2-0.5c-0.4-0.2-0.7-0.3-1.1-0.5c-0.4-0.2-0.8-0.3-1.2-0.5c-0.4-0.1-0.7-0.3-1.1-0.4
	c-0.4-0.2-0.8-0.3-1.2-0.5c-0.4-0.1-0.7-0.3-1.1-0.4c-0.4-0.2-0.8-0.3-1.2-0.5c-0.3-0.1-0.7-0.2-1-0.4c-1.6-0.6-3.2-1.2-4.9-1.7
	c-0.3-0.1-0.6-0.2-0.8-0.3c-0.5-0.2-0.9-0.3-1.4-0.5c-0.3-0.1-0.6-0.2-0.9-0.3c-0.5-0.2-0.9-0.3-1.4-0.5c-0.3-0.1-0.6-0.2-0.9-0.3
	c-0.5-0.2-1-0.3-1.4-0.5c-0.3-0.1-0.5-0.2-0.8-0.2c-0.5-0.2-1-0.3-1.5-0.5c-0.2-0.1-0.4-0.1-0.7-0.2c-0.6-0.2-1.1-0.3-1.7-0.5
	c0,0,0,0,0,0c-2.1-0.6-4.3-1.2-6.4-1.8c0,0-0.1,0-0.1,0c-0.7-0.2-1.3-0.4-2-0.5c-0.1,0-0.2,0-0.2-0.1c-0.7-0.2-1.3-0.3-2-0.5
	c-0.1,0-0.1,0-0.2-0.1c-4.3-1.1-8.5-2.1-12.7-3.1c24.8,24,40.2,57.6,40.2,94.7c0,72.7-59.2,131.9-131.9,131.9
	s-131.9-59.2-131.9-131.9c0-72.7,59.2-131.9,131.9-131.9c5.1,0,10.1,0.3,15.1,0.9c0,0-0.1-0.1-0.1-0.1c-1-0.7-1.9-1.5-2.9-2.2
	c-0.4-0.3-0.8-0.6-1.1-0.9c-0.6-0.5-1.3-1-1.9-1.5c-0.4-0.3-0.8-0.7-1.2-1c-0.6-0.5-1.2-1-1.9-1.5c-0.4-0.3-0.8-0.6-1.2-0.9
	c-0.9-0.8-1.9-1.5-2.8-2.3c-0.4-0.3-0.7-0.6-1.1-0.9c-0.6-0.5-1.3-1-1.9-1.6c-0.4-0.4-0.9-0.7-1.3-1.1c-0.6-0.5-1.1-0.9-1.7-1.4
	c-0.5-0.4-0.9-0.7-1.4-1.1c-0.6-0.5-1.2-1-1.7-1.4c-0.6-0.5-1.1-0.9-1.7-1.4c-0.7-0.6-1.5-1.2-2.2-1.8c-0.5-0.4-1-0.9-1.5-1.3
	c-0.4-0.4-0.9-0.8-1.3-1.1c-0.5-0.5-1.1-0.9-1.6-1.4c-0.4-0.3-0.8-0.7-1.2-1c-0.6-0.5-1.1-1-1.7-1.4c-0.2-0.2-0.4-0.4-0.6-0.5
	c-1.4-1.2-2.7-2.3-4-3.5c-0.1-0.1-0.3-0.2-0.4-0.4c-0.7-0.6-1.4-1.2-2.1-1.9c-0.1-0.1-0.3-0.3-0.4-0.4
	c-14.9-13.1-28.6-25.6-39.6-34.7c0,0,0,0,0,0c-2.2-1.9-4.4-3.6-6.4-5.1c-0.1-0.1-0.1-0.1-0.2-0.2c-0.6-0.5-1.2-0.9-1.8-1.4
	c0,0-0.1-0.1-0.1-0.1c-0.6-0.5-1.3-0.9-1.9-1.4c-25.7-18.5-75.9-57.3-75.9-57.3s-35.2-24.7-70.6-24.7c-8.2,0-16.1,2-24.1,4.6
	c-0.1,0-0.2,0.1-0.2,0.1C361.5,162.5,324.9,221,306,252c-8.8,14.3-17.3,29.3-29.8,40.8c-8.9,14.6-15.1,25.4-17.4,29.1
	c-51.3,78.9-59.7,112.1-60.1,124.8c-2,58.8,15.6,106.6,15.8,107.1l-14.7,14.5c-0.8-2.2-20.7-55.6-18.4-123
	c1-28.6,19.9-71.8,57.8-131.9c-1.7,0-27.4-0.1-29.1-0.2c-26.2,0.4-45.4,0.8-59.4,0.8H135c-31.4,1-21.2,4.6-32,24
	c-52,93.9-34.5,246.8,0,315c21.8,43,35,58.9,64,71.1c24.8,7.9,52.6,16.3,76.3,23.4c15.7,4.5,33.7,9.7,54.5,16.2c0,0,0,0,0,0
	c1.6,0.5,3.3,1,4.9,1.5c0.3,0.1,0.7,0.2,1,0.3c1.6,0.5,3.2,0.9,4.9,1.4c0.3,0.1,0.6,0.2,1,0.3c1.6,0.4,3.2,0.9,4.8,1.3
	c0.2,0,0.3,0.1,0.5,0.1c1.7,0.4,3.4,0.9,5.2,1.3c0.4,0.1,0.8,0.2,1.1,0.3c1.7,0.4,3.4,0.8,5.2,1.2c0.3,0.1,0.6,0.1,0.9,0.2
	c1.6,0.4,3.3,0.7,4.9,1.1c0.3,0.1,0.5,0.1,0.8,0.2c1.8,0.4,3.6,0.7,5.4,1.1c0.4,0.1,0.8,0.2,1.2,0.2c1.8,0.4,3.6,0.7,5.4,1
	c0.2,0,0.5,0.1,0.7,0.1c1.7,0.3,3.4,0.6,5.2,0.9c0.3,0.1,0.7,0.1,1,0.2c1.8,0.3,3.7,0.6,5.5,0.9c0.4,0.1,0.8,0.1,1.2,0.2
	c1.9,0.3,3.8,0.6,5.7,0.9c0.1,0,0.3,0,0.4,0.1c1.8,0.3,3.7,0.5,5.5,0.8c0.4,0.1,0.8,0.1,1.2,0.2c1.9,0.3,3.8,0.5,5.7,0.8
	c0.4,0.1,0.8,0.1,1.2,0.2c1.9,0.2,3.8,0.5,5.7,0.7c0.1,0,0.2,0,0.3,0c2,0.2,4,0.5,6,0.7c0.4,0,0.9,0.1,1.3,0.1
	c1.9,0.2,3.9,0.4,5.9,0.6c0.4,0,0.8,0.1,1.1,0.1c1.9,0.2,3.7,0.4,5.6,0.5c0.3,0,0.5,0,0.8,0.1c2,0.2,4,0.4,6,0.5
	c0.5,0,0.9,0.1,1.4,0.1c2,0.2,4,0.3,6,0.5c0.3,0,0.7,0.1,1,0.1c1.9,0.1,3.7,0.3,5.6,0.4c0.3,0,0.7,0,1,0.1c2,0.1,4,0.3,6.1,0.4
	c0.5,0,0.9,0.1,1.4,0.1c2,0.1,4.1,0.2,6.1,0.4c0.2,0,0.5,0,0.7,0c1.9,0.1,3.8,0.2,5.8,0.3c0.4,0,0.8,0,1.2,0.1
	c2,0.1,4.1,0.2,6.1,0.3c0.5,0,0.9,0,1.4,0.1c2.1,0.1,4.2,0.2,6.3,0.3c0.1,0,0.2,0,0.3,0c2,0.1,4.1,0.1,6.1,0.2c0.4,0,0.9,0,1.3,0
	c2,0.1,4.1,0.1,6.1,0.2c0.4,0,0.9,0,1.3,0c2,0,4,0.1,6,0.1c0.2,0,0.4,0,0.6,0c2.1,0,4.2,0.1,6.3,0.1c0.5,0,0.9,0,1.4,0
	c2.1,0,4.1,0.1,6.2,0.1c0.4,0,0.8,0,1.2,0c1.9,0,3.8,0,5.8,0c0.3,0,0.6,0.1,0.9,0.1c2.1,0,4.1,0.1,6.2,0.1c0.6,0,1.1,0,1.7,0
	c1,0,1.9-0.1,2.9-0.1c0.6,0,1.3-0.1,1.9-0.1c1.1,0,2.1,0,3.2,0c0.5,0,1.1,0,1.6,0c1.6,0,3.1,0,4.7,0c0.4,0,0.8,0,1.1,0
	c1.2,0,2.4,0,3.6,0c0.6,0,1.2,0,1.8,0c1,0,2,0,3,0c0.6,0,1.3,0,1.9,0c1,0,1.9,0,2.9,0c0.6,0,1.3,0,1.9,0c1,0,1.9,0,2.9-0.1
	c0.6,0,1.2,0,1.8,0c1.1,0,2.2,0,3.3-0.1c0.5,0,0.9,0,1.4,0c1.5,0,3-0.1,4.6-0.1c0.5,0,1.1,0,1.6,0c1,0,2.1-0.1,3.1-0.1
	c0.6,0,1.2,0,1.8-0.1c1,0,1.9-0.1,2.9-0.1c0.6,0,1.2,0,1.9-0.1c0.9,0,1.9-0.1,2.8-0.1c0.6,0,1.2,0,1.9-0.1c1,0,2-0.1,3-0.1
	c0.5,0,1.1,0,1.6-0.1c1.5-0.1,2.9-0.1,4.3-0.2c0.3,0,0.7,0,1,0c1.2,0,2.5-0.1,3.7-0.1c0.6,0,1.1,0,1.7-0.1c1,0,1.9-0.1,2.9-0.1
	c0.6,0,1.2-0.1,1.8-0.1c0.9,0,1.9-0.1,2.8-0.1c0.6,0,1.2-0.1,1.8-0.1c0.9,0,1.8-0.1,2.7-0.1c0.6,0,1.2-0.1,1.8-0.1
	c1,0,2.1-0.1,3.1-0.2c0.4,0,0.9,0,1.3-0.1c1.4-0.1,2.9-0.1,4.3-0.2c0.4,0,0.8,0,1.3-0.1c1-0.1,2.1-0.1,3.1-0.2
	c0.6,0,1.1-0.1,1.7-0.1c0.9,0,1.8-0.1,2.7-0.1c0.6,0,1.1-0.1,1.7-0.1c0.9-0.1,1.8-0.1,2.7-0.2c0.6,0,1.1-0.1,1.7-0.1
	c0.9-0.1,1.9-0.1,2.8-0.2c0.5,0,1-0.1,1.4-0.1c1.2-0.1,2.4-0.1,3.5-0.2c0.4,0,0.7,0,1.1-0.1c1.2-0.1,2.5-0.2,3.7-0.2
	c0.5,0,1-0.1,1.5-0.1c0.9-0.1,1.8-0.1,2.7-0.2c0.5,0,1.1-0.1,1.6-0.1c0.8-0.1,1.6-0.1,2.5-0.2c0.6,0,1.1-0.1,1.7-0.1
	c0.8-0.1,1.6-0.1,2.4-0.2c0.6,0,1.1-0.1,1.7-0.1c0.9-0.1,1.8-0.1,2.7-0.2c0.4,0,0.9-0.1,1.3-0.1c1.3-0.1,2.6-0.2,3.9-0.3
	c0.4,0,0.8-0.1,1.1-0.1c0.9-0.1,1.8-0.1,2.7-0.2c0.5,0,1-0.1,1.5-0.1c0.8-0.1,1.6-0.1,2.3-0.2c0.5,0,1-0.1,1.6-0.1
	c0.8-0.1,1.5-0.1,2.3-0.2c0.5,0,1-0.1,1.5-0.1c0.8-0.1,1.6-0.1,2.4-0.2c0.4,0,0.9-0.1,1.3-0.1c1-0.1,1.9-0.1,2.9-0.2
	c0.3,0,0.5,0,0.8-0.1c1.2-0.1,2.4-0.2,3.5-0.3c0.4,0,0.9-0.1,1.3-0.1c0.7-0.1,1.5-0.1,2.2-0.2c0.5,0,1.1-0.1,1.6-0.1
	c0.7-0.1,1.3-0.1,2-0.2c0.5,0,0.9-0.1,1.4-0.1c0.7-0.1,1.4-0.1,2.1-0.2c0.5,0,1-0.1,1.4-0.1c0.7-0.1,1.4-0.1,2.1-0.2
	c0.4,0,0.8-0.1,1.2-0.1c1.1-0.1,2.1-0.2,3.2-0.3c0.3,0,0.6-0.1,0.9-0.1c0.8-0.1,1.5-0.1,2.3-0.2c0.4,0,0.8-0.1,1.2-0.1
	c0.7-0.1,1.4-0.1,2-0.2c0.4,0,0.9-0.1,1.3-0.1c0.6,0,1.1-0.1,1.7-0.1c0.5,0,1-0.1,1.5-0.1c0.5,0,1.1-0.1,1.6-0.1
	c0.5,0,0.9-0.1,1.4-0.1c0.6-0.1,1.3-0.1,1.9-0.2c0.3,0,0.7-0.1,1-0.1c0.9-0.1,1.8-0.2,2.7-0.2c0.5,0,1-0.1,1.5-0.1
	c0.6,0,1.1-0.1,1.7-0.1c0.5,0,0.9-0.1,1.4-0.1c0.7-0.1,1.4-0.1,2-0.2c3.6-0.3,7.1-0.6,10.3-0.9c0.3,0,0.5,0,0.8-0.1
	c0.5,0,1.1-0.1,1.6-0.1c0.3,0,0.5,0,0.8-0.1c0.5,0,1.1-0.1,1.6-0.1c0.2,0,0.5,0,0.7-0.1c0.5,0,1-0.1,1.4-0.1c0.3,0,0.5,0,0.8-0.1
	c0.6,0,1.2-0.1,1.8-0.1c0.1,0,0.1,0,0.2,0c0.7-0.1,1.4-0.1,2-0.2c0.2,0,0.3,0,0.5,0c0.5,0,1-0.1,1.4-0.1c0.2,0,0.4,0,0.6,0
	c0.4,0,0.8-0.1,1.2-0.1c0.2,0,0.4,0,0.7,0c0.4,0,0.7-0.1,1.1-0.1c0.2,0,0.4,0,0.6,0c0.4,0,0.7,0,1.1-0.1c0.2,0,0.3,0,0.5,0
	c0.5,0,1-0.1,1.5-0.1c2.7-0.2,5.2-0.4,7.7-0.6c1.6-0.2,3.1-0.3,4.6-0.5c1.8-0.2,3.6-0.5,5.3-0.7c1.3-0.2,2.5-0.4,3.7-0.6
	c1-0.2,1.9-0.4,2.9-0.5c1.3-0.3,2.5-0.5,3.8-0.8c2.7-0.6,5.2-1.3,7.6-1.9c1.2-0.3,2.4-0.7,3.5-1.1c1.1-0.4,2.2-0.7,3.3-1.1
	c1.1-0.4,2.1-0.8,3.1-1.1c0.8-0.3,1.6-0.6,2.3-0.9c2.4-1,4.5-2,6.5-3c0.6-0.3,1.2-0.6,1.8-0.9c0.6-0.3,1.2-0.6,1.7-0.9
	c2.5-1.4,4.7-2.8,6.5-4.1c0.9-0.6,1.7-1.2,2.5-1.8c2.1-1.7,3.8-3.1,4.9-4.3c1.6-1.6,2.3-2.6,2.3-2.6l0,0l0,0c0,0,0,0,44.8-36.2
	c0,0,0,0,0,0c0.8-0.7,1.6-1.3,2.4-2c0.2-0.2,0.5-0.4,0.7-0.6c0.6-0.5,1.1-1,1.6-1.4c0.2-0.2,0.5-0.4,0.7-0.6
	c0.6-0.6,1.2-1.1,1.8-1.7c0.1-0.1,0.2-0.2,0.3-0.3c0.7-0.7,1.3-1.3,2-2c0.2-0.2,0.4-0.4,0.5-0.6c0.5-0.5,0.9-1,1.4-1.5
	c0.2-0.2,0.4-0.4,0.6-0.6c0.5-0.5,0.9-1,1.4-1.6c0.1-0.1,0.3-0.3,0.4-0.4c0.6-0.7,1.1-1.3,1.6-2c0.1-0.1,0.2-0.3,0.3-0.4
	c0.4-0.5,0.8-1.1,1.2-1.6c0.1-0.2,0.3-0.4,0.4-0.6c0.4-0.5,0.7-1,1.1-1.5c0.1-0.2,0.2-0.3,0.3-0.5c0.5-0.7,0.9-1.3,1.3-2
	c0-0.1,0.1-0.1,0.1-0.2c0.4-0.6,0.7-1.2,1.1-1.8c0.1-0.2,0.2-0.3,0.3-0.5c0.3-0.5,0.6-1,0.9-1.5c0.1-0.2,0.2-0.3,0.3-0.5
	c0.7-1.3,1.3-2.6,1.9-3.8c0.1-0.1,0.1-0.3,0.2-0.4c0.2-0.5,0.4-1,0.7-1.5C904.2,678.2,904.3,678,904.4,677.9z M649.5,338.5
	c-50.7,0-91.9,41.2-91.9,91.9s41.2,91.9,91.9,91.9s91.9-41.2,91.9-91.9S700.2,338.5,649.5,338.5z"/>
</svg>
