<?xml version="1.0" encoding="utf-8"?>
<!-- Generator: Adobe Illustrator 19.0.0, SVG Export Plug-In . SVG Version: 6.00 Build 0)  -->
<svg version="1.1" id="Layer_6" xmlns="http://www.w3.org/2000/svg" xmlns:xlink="http://www.w3.org/1999/xlink" x="0px" y="0px"
	 viewBox="0 0 1024 1024" style="enable-background:new 0 0 1024 1024;" xml:space="preserve">
<path id="XMLID_6_" d="M894,315.5c3.5,6.8,6.8,13.7,9.9,20.7c-5,3.7-12.4,7.4-21.2,9.2c-14.1,2.8-60.6,15.6-101.6,28
	c-82.8,25-92.2,32-96.7,36.4c-2.6-5.9-5.8-15.4-7.5-29c-4.7-37.6,5.6-79,16.6-110.3c10.1,2.4,22.5,4.7,37.8,7
	c15.6,2.3,30.6,4.5,45.1,6.6c42.6,6.1,90.9,13,100.5,18.4C881.4,304.8,887.8,309.8,894,315.5z M654.3,261.6
	c-16.5,48.3-22,91.6-16.4,128.8c3.7,24.3,11.4,39.6,15.8,46.7c-19.6,17.7-34.1,33.1-38.2,47c-1.7,5.8-6.2,17-10.6,27.8
	c-15.2,37.9-19.1,49.7-17.1,59.8c0.6,2.9,3.8,13.4,26.2,86.1c19.9,64.6,49.4,160.1,74.7,244.4C633.1,927.2,573.8,940,512,940
	c-18.4,0-36.7-1.2-54.7-3.5c18.7-51.4,75.4-225.8,32.4-349.9c-160-31-99.3-202-99.3-202s1.5-7.8,30.5-70.8
	C448.4,254.1,635.4,260.8,654.3,261.6z M564,333.5c0-21.3-17.2-38.5-38.5-38.5S487,312.2,487,333.5c0,21.3,17.2,38.5,38.5,38.5
	S564,354.8,564,333.5z M1024,512c0,282.8-229.2,512-512,512S0,794.8,0,512S229.2,0,512,0S1024,229.2,1024,512z M944.5,350.6l5.3-8.6
	l-3.8-9.4c-5.4-13-11.4-26-17.9-38.5l-1.5-2.8l-2.3-2.2c-9.5-9.3-19.6-17.2-27.8-21.7c-15.3-8.5-49.7-13.7-114.3-23
	c-14.4-2.1-29.3-4.2-44.8-6.5c-36-5.4-47.7-9.8-51.1-11.4c-1.3-2.2-3.6-5.5-7.7-8.2c-0.8-0.6-3-2.7-4.7-4.3
	c-5.5-5.3-13.8-13.3-27.5-23.2c-19.8-14.4-61.8-20.5-104.2-24.9c-2-0.2-3.7-0.4-5.1-0.5c-51.8-5.8-114,12.9-184.8,55.3
	C306,248.3,271.4,312,249.5,409.9c-13.6,60.7-18,115.1-19,130.7c-18.4,36.6-61.2,142.4-83.8,253l-1.9,9.4l6.1,7.4
	C240.4,918.2,372,980,512,980c73.7,0,144.2-16.6,209.7-49.4l15-7.5l-4.8-16.1c-26.4-88.2-58.5-192.2-79.7-261.1
	c-11.6-37.5-21.7-70.5-24.6-80.3c1.8-7.5,9.6-26.9,14.4-38.9c5.1-12.7,9.5-23.6,11.8-31.1c0.3-0.7,2.7-5.7,15.5-18.3
	c9-8.9,19.7-18.1,28.3-25.5c5.7-5,10.4-9,13.6-12.1c5.4-3,28.9-12.2,86.2-29.4c42.3-12.7,82.4-23.5,93.3-25.7
	C913.5,380.1,934.7,366.7,944.5,350.6z"/>
</svg>
