<?xml version="1.0" encoding="utf-8"?>
<!-- Generator: Adobe Illustrator 19.0.0, SVG Export Plug-In . SVG Version: 6.00 Build 0)  -->
<svg version="1.1" id="Layer_6_copy_3" xmlns="http://www.w3.org/2000/svg" xmlns:xlink="http://www.w3.org/1999/xlink" x="0px"
	 y="0px" viewBox="0 0 1024 1024" style="enable-background:new 0 0 1024 1024;" xml:space="preserve">
<path id="XMLID_8_" d="M878.2,560.8c0,15.9-12.9,28.7-28.7,28.7c-15.9,0-28.7-12.9-28.7-28.7c0-15.9,12.9-28.7,28.7-28.7
	C865.3,532.1,878.2,545,878.2,560.8z M1024,512c0,282.8-229.2,512-512,512S0,794.8,0,512S229.2,0,512,0S1024,229.2,1024,512z
	 M952,499.3V373.8c0-38.2-10.1-74.5-29.9-104.9c-17.8-27.4-41.5-47.8-69.1-59.3c-12.6,31-42.6,51.4-76.5,51.4
	c-37.5,0-70.4-25.6-79.9-61.4l-5.4,0c-63.6,0-124.8,26-172.5,73.1c-47.8,47.2-78.7,112.2-87,182.9l-0.1,0.8l-0.2,0.8
	c-3.2,16.6-10.5,49.1-22.8,80.1c-13.7,34.6-29.3,57.5-47.7,70c-33.8,22.8-56.5,30-75.9,24.1c-13.4-4.1-23.6-14.3-30.2-30.4
	l-7.8-18.9l18.6-8.4c36.1-16.3,60.6-53.3,72.7-109.8c5.3-24.6,7-47.7,7.4-63.4c-62.1,4.7-108.7,30.6-138.6,77.2l-17.9,27.8
	l-17.9-27.8C141.8,431,95.2,405.1,33,400.4c0.4,17.5,2.4,44.1,9.1,71.6c14.4,59.1,43,95,85.2,106.9l10.9,3.1l3.5,10.7
	c19.4,58.9,43.3,102.6,73.1,133.2C252.5,764.6,300,783,359.9,783H556v-59.7c0-11.7,9.5-21.2,21.2-21.2c11.7,0,11.7,9.5,11.7,21.2
	l-0.2,156.9c-0.1,3.3-0.4,13,4.4,18c0.9,1,3.7,3.9,12.3,3.9c25.4,0,47.7-11.9,68.3-36.5c15.3-18.3,29.2-43.8,40.4-73.6L718,781
	c0,0,0-21.6,0-22.7c0-11.7-1-21.2,10.7-21.2s21.3,9.5,21.3,21.2c0,1.1,0,12.9,0,12.9C858,737.9,949,628.5,952,499.3z"/>
</svg>
