<?xml version="1.0" encoding="utf-8"?>
<!-- Generator: Adobe Illustrator 19.0.0, SVG Export Plug-In . SVG Version: 6.00 Build 0)  -->
<svg version="1.1" id="Layer_5_copy_5" xmlns="http://www.w3.org/2000/svg" xmlns:xlink="http://www.w3.org/1999/xlink" x="0px"
	 y="0px" viewBox="0 0 1024 1024" style="enable-background:new 0 0 1024 1024;" xml:space="preserve">
<path id="XMLID_2_" d="M896.6,554.6c0,0.1-0.1,0.2-0.1,0.3C896.6,554.9,896.6,554.8,896.6,554.6z M896.9,553.9
	c0.1-0.2,0.1-0.4,0.2-0.6C897,553.6,897,553.8,896.9,553.9z M522.9,464.6c-123.4-6.6-357,48.2-267.3,227.9
	c26.1-56.2,55.4-100.6,118.7-115.2c63.5-14.6,132.2-15.9,196.9-11.4c67.9,4.7,133.7,19.1,200.2,32.1c56.2,11,105.3,9.9,128.7-52.4
	c0,0,0,0,0,0C906.3,528.9,551.7,466.2,522.9,464.6z M586.7,286.7c23.8-38.8-123.3-98.8-133.4-47.9
	C444.4,283.2,565.9,320.7,586.7,286.7z M900,545.6L900,545.6C900,545.6,900,545.6,900,545.6z M900,545.7
	C900,545.7,900,545.7,900,545.7L900,545.7C900,545.7,900,545.7,900,545.7z M897.7,551.9c0.4-1.2,0.9-2.5,1.4-3.6
	C898.5,549.8,898,550.9,897.7,551.9z M1024,512c0,282.8-229.2,512-512,512S0,794.8,0,512S229.2,0,512,0S1024,229.2,1024,512z
	 M929.8,575c29-58.5,12.5-122-40.1-160.7c9.9,7.3,13.6,10,14,10.3c0,0,0,0,0,0c-0.9-0.7-21.6-15.9-14-10.3
	C810,355.6,731,298.6,646.5,247c-33-20.2-35.3-42.6-60.9-63.2c-27-21.8-72.7-13.7-103.5-7.1c-53.6,11.5-125.7,23.7-170.8,47.5
	c-57.9,30.7-82.7,92.7-106.1,150.3c-28.5,70.1-57.1,140.1-87.6,209.4c-7.7,17.4-52.3,93.3-45.1,107.4
	C86.9,719.5,135,817.4,231,888.5c16.8,12.5,42.8-134.9,55.3-165.3c20.6-50,31-90.7,93.7-107.4c29.7-7.9,63.6-9.8,94.5-11.7
	c43.1-2.6,86.4-1.1,129.2,3.9C705.2,620,868.5,698.5,929.8,575z M899.1,548c0.1-0.2,0.2-0.5,0.2-0.7
	C899.3,547.6,899.2,547.8,899.1,548z M899.9,545.8c0,0,0,0.1-0.1,0.2C899.9,545.9,899.9,545.9,899.9,545.8z M899.4,547.2
	c0.1-0.4,0.3-0.7,0.3-0.9C899.7,546.6,899.5,546.9,899.4,547.2z"/>
</svg>
