<?xml version="1.0" encoding="utf-8"?>
<!-- Generator: Adobe Illustrator 19.0.0, SVG Export Plug-In . SVG Version: 6.00 Build 0)  -->
<svg version="1.1" id="Layer_8_copy" xmlns="http://www.w3.org/2000/svg" xmlns:xlink="http://www.w3.org/1999/xlink" x="0px"
	 y="0px" viewBox="0 0 1024 1024" style="enable-background:new 0 0 1024 1024;" xml:space="preserve">
<path d="M279.1,474.7c-1.4-12.1-40.2-170.5-44.6-198.3c-1.7-10.2-7.4-61.3,43.5-32.8C328.9,272.2,424.3,347,424.3,347L279.1,474.7z
	 M664.2,722.4l-92.1,92.5c0,0,2.2-89.9,0.8-125.9c-43.1,44.8-33.1,74.7-33.1,74.7s0,0.3-27.6-51.7H512h-0.2
	c-27.6,52-27.6,51.7-27.6,51.7s10-29.9-33.1-74.7c-1.4,36,0.8,125.9,0.8,125.9l-92.1-92.5c-7.2-8.1-5.2-16.2-13.3-23.6
	c11.2,38.1,31.3,133.1,49.1,158.4c3.3,4.7,6.4,9.3,9.4,13.8c20.5,30.4,32.7,46.3,62.5,45.4c11.8-0.4,18.9-1.7,23-2.9l-3.6-13.7
	c-9.9-7.2-17-20.2-20.2-29.8c-4.3-12.7-9.4-15.4,8.7-25.4c8.1-4.5,31.8-7.9,36.3-8.1v-0.4h0.3h0.3v0.4c4.5,0.2,28.2,3.6,36.3,8.1
	c18.1,10,13,12.7,8.7,25.4c-3.2,9.6-10.3,22.6-20.2,29.8l-3.6,13.7c4.1,1.2,11.2,2.5,23,2.9c29.8,0.9,42-15,62.5-45.4
	c3-4.5,6.1-9.1,9.4-13.8c17.8-25.3,37.9-120.3,49.1-158.4C669.4,706.2,671.4,714.3,664.2,722.4z M366.2,596
	c70.6,61.3,25.4,39.3,80.8,42.8C447,502,366.2,596,366.2,596z M744.9,474.7c1.4-12.1,40.2-170.5,44.6-198.3
	c1.7-10.2,7.4-61.3-43.5-32.8C695.1,272.2,599.7,347,599.7,347L744.9,474.7z M577,638.8c55.4-3.5,10.2,18.5,80.8-42.8
	C657.8,596,577,502,577,638.8z M1024,512c0,282.8-229.2,512-512,512S0,794.8,0,512S229.2,0,512,0S1024,229.2,1024,512z M780.6,498.5
	c2.1-19.6,51.1-232.2,58.6-275c3.5-20,11.9-99.4-70.6-53.2c-62.9,35.2-169.4,114.1-202.2,149.6c-30.9-7.8-30.6-10.5-54.4-8.9
	c-23.8-1.6-23.5,1.1-54.4,8.9c-32.8-35.5-139.3-114.4-202.2-149.6c-82.5-46.2-74.1,33.2-70.6,53.2c7.5,42.8,56.5,255.4,58.6,275
	c0,0-79.9,54-69,94.6c51-33.7,57.3,5,85.1,6.3c0,0-56.7,36.6-66.9,78.4c35.6-9.8,58.8-10.6,66.3-5.3c0.6,1-44.4,62.7-42.9,97.8
	c28.3-21.2,101.4-20.2,107.7-20c13.8,43.3,25.6,106.2,42.6,130.3c3.1,4.3,6.1,8.8,9,13.1c10.6,15.7,20.6,30.6,34.6,42.1
	c16.6,13.8,35.8,20.2,58.7,19.4c4.1-0.1,8.1-0.5,11.8-1c0,0,0.2,0,0.5-0.1c3.3-0.5,6.5-1.1,9.5-1.8c7.5-1.7,17.3-4.4,21.6-7.6
	c4.3,3.3,14.1,5.9,21.6,7.6c3,0.7,6.2,1.3,9.5,1.8c0.3,0.1,0.5,0.1,0.5,0.1c3.7,0.5,7.7,0.9,11.8,1c22.9,0.8,42.1-5.6,58.7-19.4
	c14-11.5,24-26.4,34.6-42.1c2.9-4.3,5.9-8.8,9-13.1c17-24.1,28.8-87,42.6-130.3c6.3-0.2,79.4-1.2,107.7,20
	c1.5-35.1-43.5-96.8-42.9-97.8c7.5-5.3,30.7-4.5,66.3,5.3c-10.2-41.8-66.9-78.4-66.9-78.4c27.8-1.3,34.1-40,85.1-6.3
	C860.5,552.5,780.6,498.5,780.6,498.5z"/>
</svg>
