<?xml version="1.0" encoding="utf-8"?>
<!-- Generator: Adobe Illustrator 19.0.0, SVG Export Plug-In . SVG Version: 6.00 Build 0)  -->
<svg version="1.1" id="Layer_1" xmlns="http://www.w3.org/2000/svg" xmlns:xlink="http://www.w3.org/1999/xlink" x="0px" y="0px"
	 viewBox="0 0 1024 1024" style="enable-background:new 0 0 1024 1024;" xml:space="preserve">
<path id="XMLID_8_" d="M454.7,594.7c42.7-47.1,57.3-170.6,57.3-170.6s14.7,123.5,57.3,170.6c-8.8-3.3-35.3-12.9-57.3-12.5
	C489.6,581.9,463.5,591.4,454.7,594.7z M512,600.2c-67.6,5-81.7,31-90.5,80.6c0,0,31.3,25.3,87.7,26.8c-7.2-6.1-42.6-37.4-44.2-70.9
	c-1.6-32.2,45.7-10.9,45.7-10.9c0.3-0.1-0.6-0.2,1.2-0.3c1.9,0.1,0.9,0.2,1.2,0.3c0,0,47.2-21.4,45.7,10.9
	c-1.6,33.4-37,64.8-44.2,70.9c56.4-1.6,87.7-26.8,87.7-26.8C593.7,631.2,579.6,605.2,512,600.2z M333.2,414
	c28.2,69.8,57,61.4,71,50.2C404.3,408.5,333.2,414,333.2,414z M512,725.5c-35.7-2-57-10.6-57-10.6c-3.8,34.7,21.3,58.3,57,57.1
	c35.7,1.2,60.7-22.4,57-57.1C569,714.9,547.7,723.4,512,725.5z M1024,512c0,282.8-229.2,512-512,512S0,794.8,0,512S229.2,0,512,0
	S1024,229.2,1024,512z M670.9,679.1c-3.1-8.1-5.4-14.4-7-20.8c-12.9,27.6-27.2,51.3-42.2,64.8l-0.7,0.6c-1.6,1.9-4.4,9.3-6.7,15.3
	c-11.2,29.4-32.1,84-102.3,84c-70,0-91.1-54.7-102.3-84c-2.3-6-5.1-13.4-6.7-15.3l-0.2-0.2l-0.5-0.4c-15.1-13.5-29.4-37.2-42.2-64.8
	c-1.6,6.4-3.9,12.7-7,20.8c-8.5,22.3-55.7,136.7-47.5,212c8.2,75.3,206.4,69.8,206.4,69.8s198.2,5.6,206.4-69.8
	C726.6,815.8,679.3,701.4,670.9,679.1z M927.4,256.4c-149.3-46-205.6,57.2-228.1,48.8h0C618,253.8,512,248.2,512,248.2
	s-106,5.6-187.2,57.1c-22.5,8.4-78.9-94.9-228.1-48.8C82.6,256.6,116.4,414,293.8,414c19.7,22.3,19.7,22.3,19.7,22.3
	s41.6,130.7,47.4,172.2c18.8,49.8,37.4,83.8,54.4,99.3c5.6,4.3,8.6,12.2,13.1,23.9C439.2,760.2,456,803,512,803
	c56.4,0,72.8-42.8,83.6-71.2c4.5-11.8,7.5-19.7,13.1-23.9c17-15.5,35.6-49.5,54.4-99.3c5.8-41.5,47.4-172.2,47.4-172.2
	s0,0,19.7-22.3C907.6,414,941.4,256.6,927.4,256.4z M619.7,464.3c14.1,11.2,42.9,19.5,71-50.2C690.8,414,619.7,408.5,619.7,464.3z"
	/>
</svg>
