<?xml version="1.0" encoding="utf-8"?>
<!-- Generator: Adobe Illustrator 19.0.0, SVG Export Plug-In . SVG Version: 6.00 Build 0)  -->
<svg version="1.1" id="Layer_1" xmlns="http://www.w3.org/2000/svg" xmlns:xlink="http://www.w3.org/1999/xlink" x="0px" y="0px"
	 viewBox="0 0 1024 1024" style="enable-background:new 0 0 1024 1024;" xml:space="preserve">
<path id="XMLID_4_" d="M367.8,376.8l-66,33c-78-198,0-237,0-237C364.1,209.8,367.8,376.8,367.8,376.8z M532.1,499.6
	c67.3,42,109,25.2,134.2,14C585.2,438,532.1,499.6,532.1,499.6z M1024.1,512.2c0,282.8-229.2,512-512,512s-512-229.2-512-512
	s229.2-512,512-512S1024.1,229.4,1024.1,512.2z M960.2,558.4c11.2-53.2-36.4-67.2-123.2-98c-86.8-30.8-324.7-72.8-358.3-78.4
	c78.4-263.1,53.3-251.9,39.2-274.8c-67.2,10.7-100.8,73.3-123.2,123.6c-5.6-44.8-100.8-142.8-128.8-120.4c-28,22.4-42,70-50.4,156.8
	c-8.4,86.8,30.8,142.8,50.4,176.3c-47.4,173.3-65.1,321.6-71.7,403.9C277.2,926,389,974.2,512.1,974.2c10.1,0,20.2-0.3,30.2-1
	c27.2-81.2,61.9-185.8,65.3-199.3c5.6-22.4,47.6-28,47.6-28s154-19.6,198.7-25.2s44.8-36.4,58.8-83.8
	C949.1,639.9,949.1,611.6,960.2,558.4z"/>
</svg>
