<?xml version="1.0" encoding="utf-8"?>
<!-- Generator: Adobe Illustrator 19.0.0, SVG Export Plug-In . SVG Version: 6.00 Build 0)  -->
<svg version="1.1" id="Layer_9_copy_4" xmlns="http://www.w3.org/2000/svg" xmlns:xlink="http://www.w3.org/1999/xlink" x="0px"
	 y="0px" viewBox="0 0 1024 1024" style="enable-background:new 0 0 1024 1024;" xml:space="preserve">
<path id="XMLID_1_" d="M306.6,452.7c7.5-23.1,32.3-35.7,55.4-28.2s35.7,32.3,28.2,55.4c-7.5,23.1-32.3,35.7-55.4,28.2
	C311.7,500.6,299.1,475.8,306.6,452.7z M511.6,388.6c24.3,0,44-19.7,44-44c0-24.3-19.7-44-44-44s-44,19.7-44,44
	C467.7,368.9,487.4,388.6,511.6,388.6z M363.8,726.6c-15.5-11.2-37.1-7.8-48.4,7.7c-11.2,15.5-7.8,37.1,7.7,48.4
	c15.5,11.2,37.1,7.8,48.4-7.7C382.8,759.5,379.3,737.8,363.8,726.6z M305.5,806.8c-10.9-7.9-26.2-5.5-34.2,5.4
	c-7.9,10.9-5.5,26.2,5.4,34.2c10.9,7.9,26.2,5.5,34.2-5.4C318.9,830.1,316.5,814.8,305.5,806.8z M511.6,173.1
	c13.5,0,24.5-10.9,24.5-24.5c0-13.5-10.9-24.5-24.5-24.5c-13.5,0-24.5,10.9-24.5,24.5C487.2,162.1,498.1,173.1,511.6,173.1z
	 M257.3,400.3c-18.2-5.9-37.7,4-43.7,22.2s4,37.7,22.2,43.7s37.7-4,43.7-22.2S275.5,406.2,257.3,400.3z M169.5,382.5
	c-12.8-4.2-26.6,2.9-30.8,15.7c-4.2,12.8,2.9,26.6,15.7,30.8c12.8,4.2,26.6-2.9,30.8-15.7S182.4,386.7,169.5,382.5z M511.6,272.2
	c19.1,0,34.6-15.5,34.6-34.6c0-19.1-15.5-34.6-34.6-34.6c-19.1,0-34.6,15.5-34.6,34.6C477,256.7,492.5,272.2,511.6,272.2z
	 M682.9,515.9c23.1-7.5,35.7-32.3,28.2-55.4s-32.3-35.7-55.4-28.2s-35.7,32.3-28.2,55.4C635,510.7,659.8,523.4,682.9,515.9z
	 M432.2,632.5c-19.6-14.3-47.1-9.9-61.4,9.7c-14.3,19.6-9.9,47.1,9.7,61.4c19.6,14.3,47.1,9.9,61.4-9.7
	C456.2,674.2,451.8,646.8,432.2,632.5z M848.2,390.2c-12.8,4.2-19.9,18-15.7,30.8c4.2,12.8,18,19.9,30.8,15.7
	c12.8-4.2,19.9-18,15.7-30.8C874.8,393.1,861,386.1,848.2,390.2z M1024,512c0,282.8-229.2,512-512,512S0,794.8,0,512S229.2,0,512,0
	S1024,229.2,1024,512z M927.9,383c-8.4-25.8-31.2-42.4-54.9-42.4l-210.7-2.2c-11.7-0.1-22-7.6-25.8-18.7l-67.2-199.8
	C562,97.3,539.1,80.8,512,80.8c-27.1,0-50,16.5-57.3,39.1l-67.2,199.8c-3.7,11.1-14.1,18.6-25.8,18.7L151,340.6
	c-23.8,0-46.6,16.6-54.9,42.4c-8.4,25.8,0.3,52.7,19.5,66.6l169,125.5c9.4,7,13.3,19.1,9.8,30.3l-63,201
	c-7.4,22.6,1.4,49.4,23.3,65.3c21.9,15.9,50.2,16,69.4,2l172-122.3c9.5-6.8,22.3-6.8,31.9,0l172,122.3c19.2,14,47.4,13.9,69.4-2
	c21.9-15.9,30.7-42.8,23.3-65.3l-63-201c-3.5-11.2,0.4-23.3,9.8-30.3l169-125.5C927.7,435.7,936.3,408.8,927.9,383z M760.4,408.1
	c-18.2,5.9-28.2,25.5-22.2,43.7s25.5,28.2,43.7,22.2s28.2-25.5,22.2-43.7S778.6,402.1,760.4,408.1z M591.6,499.7
	c-15.6-48-67.4-74.4-115.4-58.8c-48,15.6-74.4,67.4-58.8,115.4c12.6,38.7,48.5,63.3,87.2,63.3c9.4,0,18.9-1.4,28.2-4.5
	C580.8,599.5,607.2,547.7,591.6,499.7z M715.9,840.9c7.9,10.9,23.2,13.3,34.2,5.4c10.9-7.9,13.3-23.2,5.4-34.2
	c-7.9-10.9-23.2-13.3-34.2-5.4C710.4,814.7,708,830,715.9,840.9z M656.1,642.1c-14.3-19.6-41.8-24-61.4-9.7
	c-19.6,14.3-24,41.8-9.7,61.4c14.3,19.6,41.8,24,61.4,9.7C666,689.2,670.3,661.7,656.1,642.1z M711.4,734.1
	c-11.2-15.5-32.9-18.9-48.4-7.7c-15.5,11.2-18.9,32.9-7.7,48.4s32.9,18.9,48.4,7.7S722.7,749.6,711.4,734.1z"/>
</svg>
