<?xml version="1.0" encoding="utf-8"?>
<!-- Generator: Adobe Illustrator 19.0.0, SVG Export Plug-In . SVG Version: 6.00 Build 0)  -->
<svg version="1.1" id="Layer_1" xmlns="http://www.w3.org/2000/svg" xmlns:xlink="http://www.w3.org/1999/xlink" x="0px" y="0px"
	 viewBox="0 0 1024 1024" style="enable-background:new 0 0 1024 1024;" xml:space="preserve">
<path id="XMLID_23_" d="M438.7,653.3c-9.6,7.6-29.2,13.3-48.3-34.2C390.4,619.1,438.7,615.3,438.7,653.3z M512,830.9
	c-24.3-1.4-38.7-7.2-38.7-7.2c-2.6,23.6,14.5,39.7,38.7,38.8c24.3,0.8,41.3-15.2,38.7-38.8C550.7,823.7,536.3,829.5,512,830.9z
	 M512,733.5c15-0.2,33,6.2,39,8.5c-29-32-39-116-39-116s-10,84-39,116C479,739.8,496.8,733.2,512,733.5z M1024,512
	c0,282.8-229.2,512-512,512S0,794.8,0,512S229.2,0,512,0S1024,229.2,1024,512z M924,402.9c-15.3,28.5-90,30.4-51.7,20.9
	c38.3-9.5,48.9-90.5,36.4-72.1c-55.5,81.6-124.5,47.4-124.5,47.4C910.6,327,887.7,175.2,880,207.4c-7.7,32.3-36.4,87.3-49.8,91.1
	c-13.4,3.8-24.9-58.8-24.9-58.8s-14.5,44.8,9.6,85.4c12.6,21.3-69,55-101.5,66.4c-32.6,11.4-49.8-29.5-49.8-29.5S608,270,598.4,253
	s-100-73.5-31,0c64.2,68.4,85.7,145.8,71.1,167.7c-7.4,11.1-4.5,5.8-7.4,11.1l-31,47.8c-1.7-1.2-4-1-7,1.2
	C577.8,492,512,509.1,512,509.1s-65.8-17.1-81.1-28.5c-3-2.2-5.3-2.3-7-1.2l-31-47.8c-2.9-5.2,0,0-7.4-11.1
	c-14.6-21.9,6.9-99.2,71.1-167.7c69-73.5-21.4-17.1-31,0c-9.6,17.1-65.2,109-65.2,109s-17.2,40.9-49.8,29.5s-114.1-45.1-101.5-66.4
	c24.1-40.6,9.6-85.4,9.6-85.4s-11.5,62.6-24.9,58.8c-13.4-3.8-42.1-58.8-49.8-91.1c-7.7-32.3-30.6,119.5,95.8,191.6
	c0,0-69,34.2-124.5-47.4c-12.5-18.4-1.9,62.6,36.4,72.1c38.3,9.5-36.4,7.6-51.7-20.9c-15.3-28.5-4.2,85.4,105.3,45.5
	c87.7-31.9,143-7.5,191.5,60.9c-0.8,0-1.7-0.1-2.6-0.2c0,22.8,5.7,30.4-9.6,36c-15.3,5.7-53.6-64.5-155.1-33.2
	c-9.6,0.2,13.4,107.2,134.1,107.2c13.4,15.2,13.4,15.2,13.4,15.2s30.7,96.5,32.6,120.3c1.9,23.9,0.1,29.6-5.7,44.7
	c-5.7,15.2-37.9,93-32.3,144.2C377.3,994.8,512,991,512,991s134.7,3.8,140.3-47.4c5.6-51.2-26.6-129-32.3-144.2
	c-5.7-15.2-7.6-20.9-5.7-44.7c1.9-23.9,32.6-120.3,32.6-120.3s0,0,13.4-15.2c120.7,0,143.7-107,134.1-107.2
	c-101.5-31.3-139.8,38.9-155.1,33.2c-15.3-5.7-9.6-13.3-9.6-36c-0.9,0.1-1.7,0.2-2.6,0.2c48.5-68.4,103.9-92.8,191.5-60.9
	C928.2,488.2,939.4,374.4,924,402.9z M512,745.7c-46,3.4-55.6,21.1-61.5,54.8c0,0,21.3,17.2,59.6,18.2c-4.9-4.1-28.9-25.4-30-48.2
	c-1.1-21.9,31.1-7.4,31.1-7.4c0.2-0.1-0.4-0.1,0.8-0.2c1.3,0.1,0.6,0.1,0.8,0.2c0,0,32.1-14.5,31.1,7.4c-1.1,22.7-25.2,44.1-30,48.2
	c38.3-1.1,59.6-18.2,59.6-18.2C567.6,766.8,558,749.1,512,745.7z M585.3,653.3c9.6,7.6,29.2,13.3,48.3-34.2
	C633.6,619.1,585.3,615.3,585.3,653.3z"/>
</svg>
