<?xml version="1.0" encoding="utf-8"?>
<!-- Generator: Adobe Illustrator 19.0.0, SVG Export Plug-In . SVG Version: 6.00 Build 0)  -->
<svg version="1.1" id="Layer_2_copy" xmlns="http://www.w3.org/2000/svg" xmlns:xlink="http://www.w3.org/1999/xlink" x="0px"
	 y="0px" viewBox="0 0 1024 1024" style="enable-background:new 0 0 1024 1024;" xml:space="preserve">
<path id="XMLID_1_" d="M512,0C229.2,0,0,229.2,0,512s229.2,512,512,512s512-229.2,512-512S794.8,0,512,0z M711.1,524.5
	c32.1,8.1,56.5,29.1,84.2,48.1c58.2,40,105.6,95.2,155.2,145.2c-46.7-4.4-108.9-63.7-145.9-97.2c-31.2-19.8-61.4-41.3-90-64.7
	c-30.8-7.4-62.5-16.7-92-29.4c-3.5,10.9-7.4,21-11.3,29.1c62.9,10.6,132.4,76.8,167.9,125.2c35.7,48.8,41.4,126.6,54.8,186.3
	c-34.9-24.6-56-104.6-69.4-151.4c-29.3-29-46.7-65.6-71-98.7c-27.3-16.7-64.1-29.9-88-51.2c-6.9,10.2-36.8,19.3-46.5,26.8l75.1,14.4
	c0,0,38.1,18,48.1,56s-28.1,122-28.1,122S600,921,512,921S370,785,370,785s-38-84-28-122s48-56,48-56l74.6-14.3
	c-11.3-8.6-42.8-19.5-49.6-31.7c-0.2-0.3-0.3-0.6-0.5-0.8c-22.9,19.9-58.4,32.1-84.2,47.9c-24.4,33.2-41.8,69.7-71,98.7
	c-13.4,46.8-34.4,126.8-69.4,151.4c13.4-59.7,19.1-137.5,54.8-186.3c34.7-47.4,102-111.8,163.8-124.5c-3.5-8.5-6.9-18.3-10-28.7
	c-28.7,12.1-59.4,21.1-89.2,28.2c-28.6,23.4-58.8,44.9-90,64.7c-37,33.5-99.2,92.8-145.9,97.2c49.7-50.1,97-105.2,155.2-145.2
	c27.7-19,52-40,84.2-48.1c18.3-4.6,52.6-12.4,80.7-14.7c-2.8-11-5.1-21.9-6.6-31.6c-41.1,5.9-83.9,4.7-125,1.3
	c-33,9.1-67.3,15.9-101.3,20.3c-36.9,21.4-83.1,46.1-120.5,41.3c69.2-48.4,109.8-77.4,194.8-90.5c35.1-5.4,105.5-2.6,149.9,10.3
	c-0.4-5.4-0.3-9.9,0.2-13c1.3-7,3.3-13.2,5.7-18.7c-15.8-0.9-34.8-4.6-49.3-7.1c-54-9.2-84.8-13.7-116.2-58.6
	c-17.6-25.2-42.6-55-46.6-84.8c-4.8-35.7,9.4-120.1,31.2-145.8c0.8,47,4.5,105.6,1,146.3c21,31.6,42,63.3,62.8,95
	c6.2,1.6,89.7,34.4,120.3,48.6c10.1-17.8,26.4-27.4,45.1-33.8l-1,0.2v-6.1c0,0-12.3-52.5,7.2-85.5c18.1-30.6,32.5,4.5,34.6,9.8
	c0.2,0.4,0.2,0.8,0.2,1.3v21.7c0,2-1.6,3.6-3.6,3.6c-2.2,0-4,2-3.6,4.2l6.3,38.7c0.3,1.9-0.9,3.7-2.8,4.1l-1.2,0.3
	c18.8-3.1,36.9-5.3,36.9-5.3s14.1,1.8,30.3,4.3l7.6-46.3H542v-26c0,0,15.4-43.4,34.9-10.4s7.3,85.5,7.3,85.5l0,5.7
	c0.2,0.1,0.4,0.1,0.5,0.2c21.1,7.3,39.1,18.6,48.6,41.3c32.9-14.9,110.9-45.5,116.9-47c20.8-31.7,41.8-63.4,62.8-95
	c-3.5-40.7,0.2-99.2,1-146.3c21.8,25.7,36,110.1,31.2,145.8c-4,29.8-29,59.7-46.6,84.8c-31.4,44.9-62.2,49.4-116.2,58.6
	c-13.7,2.3-31.3,5.7-46.4,6.9c0.9,3.1,1.8,6.4,2.4,9.9c0.9,4.7,0.5,12.6-0.7,22.3c44.3-13.2,115.8-16.2,151.2-10.7
	c85,13.1,125.6,42.1,194.8,90.5c-37.3,4.8-83.6-20-120.5-41.3c-34-4.4-68.2-11.2-101.3-20.3c-41.7,3.4-85.2,4.6-126.9-1.6
	c-1.9,10-4.5,20.9-7.4,31.7C656.3,511.6,692.3,519.7,711.1,524.5z M478.1,442.1c-13.3,0-24-10.7-24-24c0-13.3,10.7-24,24-24
	c13.3,0,24,10.7,24,24C502.1,431.3,491.4,442.1,478.1,442.1z M420.1,442.1c-9.9,0-18-8.1-18-18c0-9.9,8.1-18,18-18
	c9.9,0,18,8.1,18,18C438.1,434,430.1,442.1,420.1,442.1z M558.1,480.1c0,9.9-8.1,18-18,18c-9.9,0-18-8.1-18-18c0-9.9,8.1-18,18-18
	C550.1,462.1,558.1,470.2,558.1,480.1z M458.1,470.1c0,9.9-8.1,18-18,18c-9.9,0-18-8.1-18-18c0-9.9,8.1-18,18-18
	C450.1,452.1,458.1,460.2,458.1,470.1z M506.1,480.1c0,9.9-8.1,18-18,18c-9.9,0-18-8.1-18-18c0-9.9,8.1-18,18-18
	C498.1,462.1,506.1,470.2,506.1,480.1z M624.1,424.1c0,9.9-8.1,18-18,18c-9.9,0-18-8.1-18-18c0-9.9,8.1-18,18-18
	C616.1,406.1,624.1,414.2,624.1,424.1z M570.1,418.1c0,13.3-10.7,24-24,24c-13.3,0-24-10.7-24-24c0-13.3,10.7-24,24-24
	C559.4,394.1,570.1,404.8,570.1,418.1z M604.1,470.1c0,9.9-8.1,18-18,18c-9.9,0-18-8.1-18-18c0-9.9,8.1-18,18-18
	C596.1,452.1,604.1,460.2,604.1,470.1z"/>
</svg>
