<?xml version="1.0" encoding="utf-8"?>
<!-- Generator: Adobe Illustrator 19.0.0, SVG Export Plug-In . SVG Version: 6.00 Build 0)  -->
<svg version="1.1" id="Layer_6_copy" xmlns="http://www.w3.org/2000/svg" xmlns:xlink="http://www.w3.org/1999/xlink" x="0px"
	 y="0px" viewBox="0 0 1024 1024" style="enable-background:new 0 0 1024 1024;" xml:space="preserve">
<path id="XMLID_2_" d="M482.2,459.9l-65-126.1C446,318.7,478.1,310,512,310c0,0,0,0,0,0c0,0,0,0,0,0c33.9,0,66,8.7,94.7,23.8
	l-65,126.1c-9.4-3.3-19.4-4.9-29.7-4.9c0,0,0,0,0,0c0,0,0,0,0,0C501.6,455,491.6,456.6,482.2,459.9z M566,541h0.3
	c-2.2-8-5.7-15.5-10.2-22c-0.4-0.6-0.9-1.2-1.3-1.8c-0.1-0.2-0.2-0.3-0.4-0.5c-0.4-0.5-0.8-1.1-1.3-1.6c-0.2-0.2-0.3-0.4-0.5-0.6
	c-0.4-0.5-0.8-1-1.3-1.5c-0.2-0.2-0.4-0.4-0.6-0.6c-0.4-0.5-0.9-0.9-1.3-1.4c-0.2-0.2-0.4-0.4-0.6-0.6c-0.5-0.5-0.9-0.9-1.4-1.3
	c-0.2-0.2-0.4-0.3-0.5-0.5c-0.5-0.4-1-0.9-1.5-1.3c-0.1-0.1-0.2-0.2-0.4-0.3c-2.4-2-5-3.9-7.7-5.4c-0.2-0.1-0.3-0.2-0.5-0.3
	c-0.6-0.3-1.1-0.6-1.7-0.9c-0.2-0.1-0.4-0.2-0.7-0.3c-0.5-0.3-1.1-0.5-1.7-0.8c-0.2-0.1-0.5-0.2-0.7-0.3c-0.6-0.2-1.1-0.5-1.7-0.7
	c-0.3-0.1-0.5-0.2-0.8-0.3c-0.6-0.2-1.1-0.4-1.7-0.6c-0.2-0.1-0.5-0.2-0.7-0.2c-0.6-0.2-1.2-0.4-1.8-0.6c-0.2-0.1-0.4-0.1-0.6-0.2
	c-0.7-0.2-1.3-0.4-2-0.5c-3.6-0.8-7.1-1.3-11.1-1.3c-3.8,0-7.5,0.4-11.1,1.3c-0.7,0.2-1.3,0.3-2,0.5c-0.2,0.1-0.4,0.1-0.6,0.2
	c-0.6,0.2-1.2,0.4-1.8,0.6c-0.2,0.1-0.5,0.2-0.7,0.2c-0.6,0.2-1.1,0.4-1.7,0.6c-0.3,0.1-0.5,0.2-0.8,0.3c-0.6,0.2-1.1,0.5-1.7,0.7
	c-0.2,0.1-0.5,0.2-0.7,0.3c-0.6,0.3-1.1,0.5-1.7,0.8c-0.2,0.1-0.4,0.2-0.7,0.3c-0.6,0.3-1.1,0.6-1.7,0.9c-0.2,0.1-0.3,0.2-0.5,0.3
	c-2.7,1.6-5.3,3.4-7.7,5.4c-0.1,0.1-0.2,0.2-0.4,0.3c-0.5,0.4-1,0.9-1.5,1.3c-0.2,0.2-0.4,0.3-0.5,0.5c-0.5,0.4-0.9,0.9-1.4,1.3
	c-0.2,0.2-0.4,0.4-0.6,0.6c-0.4,0.5-0.9,0.9-1.3,1.4c-0.2,0.2-0.4,0.4-0.6,0.6c-0.4,0.5-0.9,1-1.3,1.5c-0.2,0.2-0.3,0.4-0.5,0.6
	c-0.4,0.5-0.8,1-1.3,1.6c-0.1,0.2-0.2,0.3-0.4,0.5c-0.4,0.6-0.9,1.2-1.3,1.8c-4.5,6.4-8,13.9-10.2,22h0.3c-2,6.2-2.7,12.8-2.7,19.7
	c0,7.1,0.7,13.9,2.7,20.3h-0.1c2.2,7.8,5.5,14.9,9.8,21.1c0.4,0.5,0.7,1,1.1,1.5c0.2,0.3,0.4,0.5,0.6,0.8c0.4,0.5,0.7,0.9,1.1,1.4
	c0.2,0.3,0.5,0.6,0.7,0.9c0.3,0.4,0.7,0.8,1.1,1.2c0.3,0.3,0.6,0.6,0.9,0.9c0.3,0.4,0.7,0.7,1,1.1c0.4,0.4,0.7,0.8,1.1,1.1
	c0.3,0.3,0.5,0.5,0.8,0.8c1.4,1.3,2.8,2.5,4.2,3.7c0,0,0,0,0,0c0.7,0.6,1.5,1.1,2.2,1.7c0.1,0,0.1,0.1,0.2,0.1
	c0.7,0.5,1.5,1,2.2,1.5c0.1,0,0.1,0.1,0.2,0.1c0.8,0.5,1.5,0.9,2.3,1.4c0,0,0,0,0.1,0c7.5,4.2,15.8,6.5,24.6,6.5
	c9,0,17.1-2.3,24.6-6.5c0,0,0,0,0,0c0.8-0.4,1.6-0.9,2.3-1.4c0.1,0,0.1-0.1,0.2-0.1c0.7-0.5,1.5-1,2.2-1.5c0.1,0,0.1-0.1,0.2-0.1
	c0.8-0.5,1.5-1.1,2.2-1.7c0,0,0,0,0,0c1.5-1.2,2.9-2.4,4.2-3.7c0.3-0.3,0.5-0.5,0.8-0.8c0.4-0.4,0.8-0.7,1.1-1.1
	c0.3-0.4,0.7-0.7,1-1.1c0.3-0.3,0.6-0.6,0.9-0.9c0.4-0.4,0.7-0.8,1.1-1.2c0.2-0.3,0.5-0.6,0.7-0.9c0.4-0.5,0.7-0.9,1.1-1.4
	c0.2-0.3,0.4-0.5,0.6-0.8c0.4-0.5,0.7-1,1.1-1.5c4.3-6.2,7.7-13.1,9.8-21.1H566c2-6,2.7-13.2,2.7-20.3C568.6,553.8,568,547,566,541z
	 M448.2,480.9l-64.7-125.2c-53,41.8-89.1,108.7-94.4,185.2h127.7C420.9,517.2,432.2,496.3,448.2,480.9z M416.9,581H289.2
	c0.2,2.3,0.4,4.7,0.6,7c0,0.4,0.1,0.8,0.1,1.1c0.2,2,0.4,3.9,0.6,5.8c0.1,0.4,0.1,0.9,0.2,1.3c0.2,1.9,0.5,3.7,0.8,5.6
	c0.1,0.4,0.1,0.9,0.2,1.3c0.3,1.9,0.6,3.8,0.9,5.6c0.1,0.4,0.1,0.8,0.2,1.1c0.3,1.9,0.7,3.9,1.1,5.8c0.1,0.3,0.1,0.5,0.2,0.8
	c0.4,2.1,0.9,4.2,1.3,6.2c0,0.1,0,0.2,0.1,0.3c4.5,19.5,11,38.2,19.3,55.6c0,0,0.1,0,0.1,0c16.7,34.8,40.7,64.7,69.6,87.2
	l63.3-125.9C432.2,624.9,421.1,604.3,416.9,581z M568.3,202c13.3,0,24-9,24-20c0-11-10.7-20-24-20s-24,9-24,20
	C544.3,193,555.1,202,568.3,202z M455.3,202c13.3,0,24-9,24-20c0-11-10.7-20-24-20s-24,9-24,20C431.3,193,442.1,202,455.3,202z
	 M512,666.8c-10.6,0-20.7-1.9-30.2-5.3l-65,125.8c28.9,15.3,61.2,23.9,95.2,23.9c34,0,66.3-8.6,95.2-23.9l-65-125.8
	C532.7,664.9,522,666.8,512,666.8z M640.5,355.8l-64.7,125.2c16,15.3,27.3,36.3,31.4,60.1h127.7
	C729.6,464.4,693.5,397.5,640.5,355.8z M1024,512c0,282.8-229.2,512-512,512S0,794.8,0,512S229.2,0,512,0S1024,229.2,1024,512z
	 M885.1,307.4c-6.7-10.8-12.8-19.1-12.8-19.1s-6.4-8.1-14.9-17.5s-51.5-9.7-71.5-5.2c-20,4.5-43.4,16.4-63.9,27.3
	c-15.2,8-27.3,25.4-36,42.5c-25.3-24.5-54.7-43.8-87-56.3c15.4-25,32.9-61.2,28-90.3c-4.9-29.2-10.9-62-22.2-85.8
	c-11.3-23.7-45.8-67.1-62.6-68.5C526,33.3,513,33,512,33c-0.8,0-14,0.3-30.3,1.6c-16.7,1.4-51.3,44.7-62.6,68.5
	c-11.3,23.7-17.2,56.6-22.2,85.8c-4.9,29,12.6,65.2,28,90.3c-32.3,12.5-61.7,31.8-87,56.3c-8.8-17.1-20.8-34.5-36-42.5
	C281.3,282,258,270.1,238,265.6c-20-4.5-63-4.2-71.5,5.2s-14.9,17.5-14.9,17.5s-6,8.3-12.8,19.1c-6.7,10.8,4.7,52.2,14.5,70.2
	c9.8,18.1,27.7,37.2,43.8,54.1c15.1,15.7,43.2,22.5,65.4,25.4c-10.7,32.3-16.5,67.2-16.5,103.6c0,45.8,9.2,89.1,25.7,127.8
	c-14.2,5-27.6,12-36.1,22.1c-15,17.8-31.7,38-40.4,56.6c-8.7,18.6-17.7,60.6-10.3,70.9c7.4,10.3,13.9,18.3,13.9,18.3
	s6.8,7.7,15.9,16.6c9.1,8.9,52,6.6,71.7,0.9c19.7-5.7,42.3-19,62.2-31.1c10-6.1,18.2-16.3,24.9-27.8c40.4,27.7,87.8,43.6,138.6,43.6
	c51,0,98.2-15.9,138.6-43.6c6.7,11.5,15,21.7,24.9,27.8c19.9,12.1,42.5,25.5,62.2,31.1c19.7,5.7,62.6,8,71.7-0.9
	c9.1-8.9,15.9-16.6,15.9-16.6s6.5-8,13.9-18.3c7.4-10.3-1.6-52.3-10.3-70.9c-8.7-18.6-25.4-38.8-40.4-56.6
	c-8.5-10-22-17.1-36.1-22.1c16.5-38.7,25.7-82.1,25.7-127.8c0-36.4-5.8-71.3-16.5-103.6c22.2-2.9,50.3-9.7,65.4-25.4
	c16.1-16.8,34-36,43.8-54.1C880.4,359.6,891.9,318.2,885.1,307.4z M576.2,640.1L639.5,766c28.9-22.5,52.9-52.4,69.6-87.2
	c0,0,0.1,0,0.1,0c8.3-17.4,14.8-36,19.3-55.6c0-0.1,0-0.2,0.1-0.3c0.5-2.1,0.9-4.1,1.3-6.2c0.1-0.3,0.1-0.5,0.2-0.8
	c0.4-1.9,0.8-3.9,1.1-5.8c0.1-0.4,0.1-0.8,0.2-1.1c0.3-1.9,0.6-3.7,0.9-5.6c0.1-0.4,0.1-0.9,0.2-1.3c0.3-1.9,0.5-3.7,0.8-5.6
	c0.1-0.4,0.1-0.9,0.2-1.3c0.2-1.9,0.4-3.9,0.6-5.8c0-0.4,0.1-0.8,0.1-1.1c0.2-2.3,0.4-5,0.6-7H607.1
	C602.9,604,591.8,624.9,576.2,640.1z"/>
</svg>
