<?xml version="1.0" encoding="utf-8"?>
<!-- Generator: Adobe Illustrator 19.0.0, SVG Export Plug-In . SVG Version: 6.00 Build 0)  -->
<svg version="1.1" id="Layer_6" xmlns="http://www.w3.org/2000/svg" xmlns:xlink="http://www.w3.org/1999/xlink" x="0px" y="0px"
	 viewBox="0 0 1024 1024" style="enable-background:new 0 0 1024 1024;" xml:space="preserve">
<path id="XMLID_1_" d="M862.6,462.7c12.7,19,9.7,47.9,6.8,75.9c-1.4,14-2.8,27.3-2.3,39.6c0.7,16.6-1.3,82.4-55.8,230.9
	c-2.4,6.4-4.7,11.9-6.9,16.3c-2.4,2.3-4.9,4.5-7.4,6.7c-3.5-6.8-9.7-25.2-15-73.5c-4.1-37.5-5.5-74.4-5.6-75.9
	c0-0.9-0.2-1.7-0.4-2.5l-27.3-97c-0.6-2.1-1.8-3.9-3.4-5.3c-5.4-4.6-53.7-46.4-84.8-103.3c-0.1-0.5-0.3-1.2-0.4-2.1
	c-0.6-2.9-1.5-7.3-2.4-10.9c-0.5-2.2-1-3.9-1.4-5.1c-0.2-0.7-0.5-1.4-0.8-2c-2.7-23.7,2.3-61.8,14.2-107.7
	c7.6-29.2,15.6-52.5,20.9-65.5c6.9,9.2,19.6,24.4,43.4,50c6.4,6.9,19,18.9,34.9,34.1C802.5,397.6,848.5,441.5,862.6,462.7z
	 M1024,512c0,282.8-229.2,512-512,512S0,794.8,0,512S229.2,0,512,0S1024,229.2,1024,512z M888.3,540.5c3.1-29.8,6.6-63.7-9.9-88.4
	c-15.2-22.9-62.1-67.7-96.3-100.4C767,337.3,754,324.9,748,318.4c-39.5-42.5-47.1-54.9-48.5-58.2c-2.1-4.8-7.2-7.3-12.1-6
	c-0.1,0-0.1,0-0.2,0.1c-9-23.7-34.1-81-103-124.4c-81.2-51.1-181.7-23.6-184.3-22.9c0,0-0.1,0-0.1,0
	c-2.6,0.4-101.3,16.8-162.9,132.5c-62.5,117.3-79.2,152.3-82.3,204.1c-3,51.8-32,181.3,6.1,283.3c10.5,28,24.3,60,39.1,92.1
	c0.1,0.1,0.2,0.3,0.3,0.4c79.4,80.6,270,130.6,270,130.6c1,0-91.4-168.2-104-196.1c-28.9-63.9-89.4-168.5-34.9-329.7
	c0.1-0.3,0.3-0.5,0.5-0.7c26.4-18.2,208,62.1,310.2,54.5c0.5,2.6,0.7,3.2,1.3,4.3c30.3,56.1,76.8,98.5,87.9,108.2l26.3,93.6
	c0.3,7.3,1.9,42.7,6,79.1c8.2,72.4,19.3,86.1,29,90c1.3,0.5,2.7,0.8,4,0.8c2.5,0,5-0.9,7-2.6c5-4.3,10-8.8,14.9-13.4
	c0.9-0.8,1.6-1.8,2.1-2.8c2.8-5.3,5.7-12,8.5-19.8c54.2-147.6,57.9-215.8,56.9-238.2C885.6,566.4,886.9,553.8,888.3,540.5z
	 M464,256.3c0,21.7,17.6,39.3,39.3,39.3s39.3-17.6,39.3-39.3S524.9,217,503.2,217S464,234.6,464,256.3z"/>
</svg>
