<?xml version="1.0" encoding="utf-8"?>
<!-- Generator: Adobe Illustrator 19.0.0, SVG Export Plug-In . SVG Version: 6.00 Build 0)  -->
<svg version="1.1" id="Layer_6_copy_3" xmlns="http://www.w3.org/2000/svg" xmlns:xlink="http://www.w3.org/1999/xlink" x="0px"
	 y="0px" viewBox="0 0 1024 1024" style="enable-background:new 0 0 1024 1024;" xml:space="preserve">
<path id="XMLID_2_" d="M512,0C229.2,0,0,229.2,0,512s229.2,512,512,512s512-229.2,512-512S794.8,0,512,0z M930.8,718.3L908.2,762
	l-104.3-43.7c-4.3,10.7-9.1,21.4-14.4,31.9c-25.6,50.6-59.8,90.4-101.4,118.4c-48.7,32.8-107.9,49.5-176.3,49.5
	c-68.1,0-127.4-16.7-176.1-49.5c-41.6-28-75.7-67.9-101.2-118.4c-5.3-10.5-10.1-21.1-14.4-31.9L115.8,762l-22.6-43.8l110.6-47.4
	c-6.9-23.8-11.8-47.4-15.3-69.6L73.2,624.7l-11.7-48.4l120.7-24.9l0.3,1.4c-1.8-22.1-2.4-41.5-2.4-56.9c0-4.5,0.1-8.9,0.3-13.1
	l-116.5-8.3l4.2-49.8l119.1,8.6c5.8-22.3,15.3-40.1,28.3-53.2c21-21.1,44-22.1,49.8-22h73.1c-12-3.9-29.8-15.1-29.8-48.1
	c0-32.1,9.6-93.9,65.2-133.4l-40.1-81L372,66.7l44.5,87.8c25.4-9,56.5-14.5,94.8-14.5c0.2,0,0.3,0,0.5,0c0.9,0,0.5,0,0.6,0
	c38.3,0,69.6,5.4,94.9,14.5l44.5-87.8l38.4,28.7l-40.1,81c55.6,39.5,65.2,101.3,65.2,133.4c0,33-17.9,44.1-29.8,48.1h73.1
	c5.8,0,28.7,0.8,49.8,22c13,13.1,22.5,30.9,28.3,53.2l119.1-8.6l4.2,49.8l-116.5,8.3c0.2,4.3,0.3,8.7,0.3,13.1
	c0,15.4-0.6,34.8-2.4,56.9l0.3-1.4l120.7,24.9l-11.7,48.4l-115.2-23.4c-3.5,22.2-8.4,45.7-15.3,69.6L930.8,718.3z M247.3,416.7
	c-9.3,9.6-20.4,31-20.4,79.2c0,40.4,4.7,143.7,48.6,230.5c21.7,42.9,50.2,76.5,84.9,99.9C395.6,850,438,863.7,486,867.2V408H264
	C262.2,408.1,254.7,409,247.3,416.7z M441,682c0,30.9-25.1,56-56,56s-56-25.1-56-56c0-30.9,25.1-56,56-56S441,651.1,441,682z
	 M329,456c30.9,0,56,25.1,56,56c0,30.9-25.1,56-56,56s-56-25.1-56-56C273,481.1,298.1,456,329,456z M651.1,322H604V187.7l19,9.1
	c44.4,29.5,51.9,65.4,51.9,89.4C674.9,310.9,660.6,319,651.1,322z M349.5,286.3c0-24,7.6-60,51.9-89.5l17.6-8.5V322h-45.7
	C363.8,319,349.5,310.9,349.5,286.3z M760,408H537v459.2c48-3.5,90.9-17.2,126-40.9c34.7-23.4,63.5-57,85.2-99.9
	c44-86.9,48.7-190.2,48.7-230.5c0-48.1-11-69.6-20.3-79.2C769.2,409,761.8,408.1,760,408z M637.3,738c-30.9,0-56-25.1-56-56
	c0-30.9,25.1-56,56-56s56,25.1,56,56C693.3,712.9,668.3,738,637.3,738z M693.3,568c-30.9,0-56-25.1-56-56c0-30.9,25.1-56,56-56
	s56,25.1,56,56C749.3,542.9,724.3,568,693.3,568z"/>
</svg>
