<?xml version="1.0" encoding="utf-8"?>
<!-- Generator: Adobe Illustrator 19.0.0, SVG Export Plug-In . SVG Version: 6.00 Build 0)  -->
<svg version="1.1" id="Layer_6" xmlns="http://www.w3.org/2000/svg" xmlns:xlink="http://www.w3.org/1999/xlink" x="0px" y="0px"
	 viewBox="0 0 1024 1024" style="enable-background:new 0 0 1024 1024;" xml:space="preserve">
<path id="XMLID_1_" d="M691.7,258.9c-8.7-8.6-21.9-20.4-39.4-31.8c-43.5-28.4-93.4-41.6-144.2-38.4h0c-51.2,3.3-104,29.2-152.6,74.9
	c-35.9,33.8-57.1,66.5-58,67.9l-0.3,0.4c-0.6,1-4.6,7.6-10.7,17.9c-9.3-6.2-39.6-22.7-53.2-37c-17.7-18.6-39.3-46.8-41.6-75.5
	c-1.6-19.5,5.9-36.9,22.8-53.1c28.3-27.3,56.7-41.4,82.6-41.4c3,0,6,0.2,8.9,0.6c20.6,2.7,33,13.9,33.6,14.5l35,34.4l-9.8-48.1
	c0-0.2-3.8-20.1,3.1-41.7c8.7-27.6,30.7-45.7,65.3-53.9c25.6-5.2,46.7-2.2,62.7,8.9c25.8,17.8,31.4,51.4,31.5,51.6l8.1,54.1
	l20.5-50.4c0.5-1.1,7.8-16,25.6-26.2c24.7-14.2,59.4-13.1,100.2,3c21.8,8.6,35.3,21.8,41.3,40.4c14.9,46.3-20.3,111.3-30.5,128.5
	C692.3,258.7,692,258.8,691.7,258.9z M511.7,311.7c-30,0-54.4,24.3-54.4,54.4c0,30,24.3,54.4,54.4,54.4c30,0,54.4-24.3,54.4-54.4
	C566.1,336,541.7,311.7,511.7,311.7z M707.5,332.1c-6.1,0-10.2,1.9-13.9,6.3c-17.6,21.2-14.1,82.7-8.3,121.8
	c33.1-4.9,108.4-19.9,180.8-61c-42.3-27.1-113-66.3-158.1-67.1C707.8,332.1,707.7,332.1,707.5,332.1z M1024,512
	c0,282.8-229.2,512-512,512S0,794.8,0,512S229.2,0,512,0S1024,229.2,1024,512z M912.8,416.2l23.4-15.6l-22.8-16.4
	c-4.9-3.5-114.8-82-193.8-90.3c-2.3-3.5-4.7-7-7.2-10.5l2.7-4.2c2.4-3.7,58.1-91.1,36.5-158.2c-8.8-27.3-28.6-47.2-58.9-59.2
	c-63.9-25.2-104.9-13.9-128,0c-6.8,4.1-12.6,8.7-17.3,13.2c-6.5-13.9-17.1-30-34.2-41.9C490.2,17,461.1,12.3,427,19.3l-0.4,0.1
	c-57.7,13.5-79.6,48.5-87.7,75.5c-2.7,8.9-4.1,17.5-4.7,25.2c-6.3-2.6-13.7-4.8-22-6c-26.7-4.1-68.9,1.1-118.4,48.7
	c-23.5,22.6-34.2,48.5-31.9,77.1c5.4,67.5,94.5,137.2,104.6,144.8c-18.8,33.1-42,75.8-57.5,110.7c-16.1,36.3-52.3,81.7-107.4,134.9
	c-2.6,2.5-4.4,4.2-5.5,5.4c-8.1,8.3-17.3,23.5-14.7,48.4c1.7,16,12.9,35.6,23.8,55.1c32.5,58.7,94.8,130.6,170.2,173.4
	c43.3,24.6,98.1,44.9,142.3,54.3c26,5.5,66.8,9.1,91.9,9.1c23.4,0,55.4-1.7,77.7-6.5c6.4-1.1,26.7-3.3,93.3-26.1
	c15.1-5.2,44.3-22.2,50.2-23.5l0.2-13.1l-1.7-18.6c-5.8-62.4-21.3-117.6-38.1-166c28.8-15.3,50.9-54.9,38.5-108.2
	c-11.9-51.5-38.5-104.7-43.4-114.4C723.7,494.5,822.7,476.3,912.8,416.2z"/>
</svg>
