<?xml version="1.0" encoding="utf-8"?>
<!-- Generator: Adobe Illustrator 19.0.0, SVG Export Plug-In . SVG Version: 6.00 Build 0)  -->
<svg version="1.1" id="MainLayer" xmlns="http://www.w3.org/2000/svg" xmlns:xlink="http://www.w3.org/1999/xlink" x="0px" y="0px"
	 viewBox="0 0 1024 1024" style="enable-background:new 0 0 1024 1024;" xml:space="preserve">
<path id="XMLID_3_" d="M267.8,621.7C267.8,621.7,267.8,621.7,267.8,621.7c-2.2,11.7-0.2,21.7,10.6,25.8c14.6,5.6,35.7,13.2,54.9,20
	c0.1,4.4,0.4,9.1,1,14.2c1,8.8,2.8,18.7,5.3,28.7c2.3,9.3,6.4,24.1,12.6,38.2l-136.6-98.5c0.4-8.2,1.4-20.5,3.7-36.5
	c4.3-29.5,8.3-60,34.8-132.7c12-32.7,43.6-66.4,92.5-98.8c24.8-12.4,51.8-25.3,68.5-31.1c37.3-13,62.6-15.3,64.6,10
	c2,25.3,0,121.8,0,121.8s-7.1,29.2-36-35.2c-16.6-37.1-40.8-31.4-64.8-9.3c0,0,0,0,0,0C279.2,519.1,267.8,621.7,267.8,621.7z
	 M430.2,519.6c-4-71.2-56.7-24.5-56.7-24.5C348.3,509.2,399.6,555.6,430.2,519.6z M769.1,481c-12.1-33.2-44.5-67.4-94.5-100.2
	c-24-12-49.7-24.1-65.8-29.7c-37.3-13-62.6-15.3-64.6,10c-2,25.3,0,121.8,0,121.8s7.1,29.2,36-35.2c16.6-37.1,40.8-31.4,64.8-9.3
	c0,0,0,0,0,0c99.8,80.8,111.2,183.3,111.2,183.3s0,0,0,0c2.2,11.7,0.2,21.7-10.6,25.8c-14.7,5.6-35.7,13.2-55,20.1
	c-0.2,10.1-1.7,24.1-6.2,42.9c-2.2,9.1-6.2,23.6-12.3,37.5l135.8-97.7c-0.4-8.2-1.4-20.5-3.8-36.5
	C799.8,585.4,790.3,539.3,769.1,481z M1024,512c0,282.8-229.2,512-512,512S0,794.8,0,512S229.2,0,512,0S1024,229.2,1024,512z
	 M943.7,614.6c-35.6,3.9-94.3,8.6-92.3-3.2c2-11.9,49.2-37.1,76.7-50.8c4.3-2.1,3-9.4-1.7-9.5c-32.1-0.5-89-2.9-80.3-12.9
	c8-9.2,36.7-24.8,55-34.3c4.1-2.1,3.1-9-1.4-9.5c-28.9-3.1-83.6-10.8-75.2-24.4c11.3-18.4,58.9-35.2,33.3-34.5
	c-19.4,0.6-61-14.6-79.7-21.8c-0.2-0.2-0.4-0.4-0.6-0.6l44.3-197.6c0,0,13.5-65.6-33.4-33.8C749,208.3,615,257.3,582.7,272.3
	c-50.2-18.6-67.5-10.6-70.7-10.8c-3.3,0.2-22.3-7.6-73.5,11.9C409.1,259.7,271,209,230.6,181.7c-46.9-31.7-33.4,33.8-33.4,33.8
	l47.2,196.9c-16.6,6.6-62.4,23.8-83.1,23.2c-25.6-0.8,22,16.1,33.3,34.5c8.4,13.6-46.3,21.4-75.2,24.4c-4.4,0.5-5.4,7.4-1.4,9.5
	c18.3,9.4,47,25.1,55,34.3c8.7,10-48.2,12.3-80.3,12.9c-4.7,0.1-5.9,7.4-1.7,9.5c27.4,13.7,74.7,38.9,76.7,50.8
	c2,11.8-56.8,7.1-92.3,3.2c-4.9-0.5-6.6,7.1-2.2,9.5L216,704.8l168.2,121.3c0.7,2.4,1.4,4.7,2.3,7c5.6,14.6,16.6,28.7,33.9,43.1
	c12.2,10.2,26.8,19.9,40.2,26.6c15.1,8.1,32.4,12.2,51.2,12.2c17.9,0,36-4.8,52.5-14c13.5-6.9,27.2-15.9,38.8-25.3
	c17.3-14,28.4-27.9,33.9-42.5c0.9-2.4,1.7-4.9,2.4-7.5l182.2-131.1L945.9,624C950.3,621.7,948.5,614,943.7,614.6z M621.6,622.3
	c22.9,32.3,22.3,54.9,21.7,60.6c-3.2,18.6-10.2,41.5-17.6,52.5c-3.6,5.3-16.4,9.3-32.2,12.3l3.2,9.3c0,0,7.2,22.8,6.2,42.3
	c0,0,0,0,0,0c-0.2,4.6-1,9.3-2.5,13.2c-4.8,12.7-26.6,31.6-46.8,43.3c0.1,0,0.3,0,0.4,0c-2.3,1.3-4.5,2.5-6.7,3.6
	c-10.5,5.9-22.6,9.7-35.6,9.7c-12.6,0-24.4-2.5-34.7-8.2c-3.1-1.5-6.2-3.3-9.4-5.1c0.6-0.1,1.2-0.1,1.8-0.2
	c-20.1-11.7-41.5-30.7-46.3-43.3c-1.5-4-2.3-8.7-2.5-13.6c-0.9-19.2,6.2-41.9,6.2-41.9l3.2-9.2c-15.6-3-28.2-6.9-31.8-12.2
	c-7.2-10.7-14.1-33-17.4-51.4c-0.5-3.1-3.3-26.7,21.5-61.7c26.7-37.5,51.5-75.8,72.2-75.8c19.4,0,35.3,0.7,37.3,0.8
	c2-0.1,18-0.8,37.4-0.8C570,546.4,594.9,584.7,621.6,622.3z M561.3,770.9l-4.9-15.9h-89.2l-4.9,15.9c0,0-6.6,24-2.2,37.2
	c3.2,9.6,18.7,24.5,31.5,31.9c6,3.8,12.9,5.8,20.2,5.8c7.6,0,14.6-2.4,20.8-6.4c12.7-7.5,27.8-21.8,30.9-31.3
	C567.9,794.8,561.3,770.9,561.3,770.9z M570,652.1c0-13.8-6-19.1-12.7-27.6c-6.7-8.4-45.3-13-45.3-13s-38.7,4.6-45.3,13
	C460,633,454,638.3,454,652.1c0,13.8,5.3,29.9,13.3,36.8s40.7,19.1,44.7,18.4c4,0.8,36.7-11.5,44.7-18.4S570,665.9,570,652.1z
	 M650.5,495.1c0,0-52.7-46.7-56.7,24.5C624.4,555.6,675.8,509.2,650.5,495.1z"/>
</svg>
