<?xml version="1.0" encoding="utf-8"?>
<!-- Generator: Adobe Illustrator 19.0.0, SVG Export Plug-In . SVG Version: 6.00 Build 0)  -->
<svg version="1.1" id="Layer_6_copy" xmlns="http://www.w3.org/2000/svg" xmlns:xlink="http://www.w3.org/1999/xlink" x="0px"
	 y="0px" viewBox="0 0 1024 1024" style="enable-background:new 0 0 1024 1024;" xml:space="preserve">
<style type="text/css">
	.st0{enable-background:new    ;}
</style>
<path id="XMLID_2_" class="st0" d="M862,138.4c-0.2-0.2-0.4-0.4-0.6-0.6c-8.6-8-17.5-15.7-26.6-23.1c-2.2-1.8-4.5-3.6-6.8-5.4
	c-5.6-4.4-11.4-8.7-17.2-12.9c-1-0.7-1.9-1.4-2.9-2.1c-2.3-1.6-4.7-3.3-7-4.9c-1.1-0.8-2.2-1.5-3.3-2.2c-2.2-1.5-4.5-3-6.8-4.5
	c-1.2-0.8-2.5-1.6-3.7-2.4c-17.6-11.1-35.8-21.2-54.7-30.2c-2-0.9-4-1.9-6-2.8c-1.7-0.8-3.4-1.6-5.1-2.3c-2.1-1-4.3-1.9-6.4-2.8
	c-7.3-3.1-14.6-6.1-22-8.9c-2.5-0.9-5-1.8-7.5-2.7C631.4,11.5,573.4,1,513,1l0,0l0,0c-39.8,0-78.5,4.5-115.6,13.1
	c-2.1,0.5-4.1,1-6.2,1.5c-4.1,1-8.2,2.1-12.3,3.2c-6.1,1.7-12.2,3.4-18.2,5.3c-10,3.1-19.9,6.5-29.7,10.2c-3.9,1.5-7.8,3-11.6,4.6
	c-25,10.2-49.1,22.4-72,36.3c-1.8,1.1-3.5,2.1-5.3,3.2c-20.9,13.1-40.9,27.6-59.6,43.5c-4.7,4-9.3,8-13.9,12.2
	c-6.1,5.5-12,11.2-17.8,17c-4.3,4.3-8.6,8.8-12.8,13.3s-8.3,9.1-12.3,13.7c-9.4,10.8-18.3,22.1-26.8,33.7
	c-9.7,13.3-18.7,27-27.1,41.2c-6.3,10.6-12.2,21.5-17.7,32.6c-7.4,14.8-14,30-20,45.6c-0.7,1.9-1.5,3.9-2.2,5.9
	c-1.4,3.9-2.8,7.9-4.2,11.8c-0.7,2-1.3,4-2,6c-2.6,8-5,16-7.2,24.2c-0.6,2-1.1,4.1-1.6,6.1c-1.6,6.1-3,12.3-4.4,18.5
	c-0.5,2.1-0.9,4.2-1.3,6.2c-0.9,4.2-1.7,8.4-2.4,12.6c-1.1,6.3-2.1,12.6-3,19c-1.2,8.5-2.2,17.1-2.9,25.7c-1.3,15.1-2,30.4-2,45.9
	c0,128.1,47.1,245.3,124.9,335.1c4,4.6,8.1,9.2,12.3,13.7s8.5,8.9,12.8,13.3c2.9,2.9,5.8,5.8,8.8,8.6c7.4,7.1,15,13.9,22.9,20.5
	c17.2,14.6,35.4,28,54.4,40.2c3.5,2.2,7,4.4,10.5,6.5c14.1,8.6,28.6,16.4,43.5,23.6c5.6,2.7,11.2,5.3,17,7.8
	c3.8,1.7,7.6,3.3,11.5,4.9s7.7,3.1,11.6,4.6c9.7,3.7,19.6,7.1,29.7,10.2c6,1.9,12.1,3.6,18.2,5.3c4.1,1.1,8.2,2.2,12.3,3.2
	c2.1,0.5,4.1,1,6.2,1.5c37.2,8.6,75.9,13.1,115.6,13.1l0,0l0,0c282.8,0,512-229.2,512-512C1025,365.1,962.3,231.9,862,138.4z
	 M218.2,909.5c37.3-38.5,208.7-208.8,396-287.4c1.4,19,2.3,35.7-12,81.6c-2.6,8.3-7.6,14.5-12.2,23.8c-3.8,7.5-7.2,17.8-3.4,21.6
	c0,0,1.4,2.3,3.6,2.1c5.1-0.2,16-9.9,21.5-14.9c6.1-5.5,17.5-15.4,27-25.8c15.9-17.6,15.8-17.4,21.5-24.2l0,0
	c12.7-17.1,33.8-36.7,33-91.1c43-11.1,86-15.8,127.5-11.6c0,0-257.7-156-665.4,270.3c-33.3-35-61.6-74.8-83.6-118.3
	c0.2-0.4,120.1-299.5,298.1-425.5c-3.9-38.5-14.4-105.6-41.3-140.5c-15-21-54.8-89.6,0-61.5c0,0,189.8,93.1,235,145.1
	c239.9,2.7,413.5,94.2,355.8,294c32.6,31,75,78.2,58.1,100.9c-25.9,34.6-57.7,22.5-150.2-48c-0.4,0-0.7-0.1-0.7-0.1
	s-37.8-15.1-122.6,7.6c-1.7,40.5-22.6,68.8-23.6,70.3l-8.2,11.5c-0.2,0.2-12.8,14.4-34,36.7c-12.5,13.2-26,23.6-34.2,30.6
	c-7.5,6.5-15.2,12.7-22.5,13.5c-3.1,0.4-6.2-0.2-9.1-2.2c-5.8-3.9-7.3-10.7-4.5-20.3c1.6-5.5,4.7-12.8,9.5-22.3
	c16.1-32,21.3-58.5,21.7-78.9c-83.7,39.2-191.3,107.1-324.4,223.4c-26.8,27.8-39.2,41.3-44.8,47.8
	C225.9,915.2,222,912.4,218.2,909.5z M857.4,486.3c0,11.4-9.3,20.7-20.7,20.7s-20.7-9.3-20.7-20.7s9.3-20.7,20.7-20.7
	S857.4,474.9,857.4,486.3z"/>
</svg>
