<?xml version="1.0" encoding="utf-8"?>
<!-- Generator: Adobe Illustrator 19.0.0, SVG Export Plug-In . SVG Version: 6.00 Build 0)  -->
<svg version="1.1" id="Layer_1" xmlns="http://www.w3.org/2000/svg" xmlns:xlink="http://www.w3.org/1999/xlink" x="0px" y="0px"
	 viewBox="0 0 1024 1024" style="enable-background:new 0 0 1024 1024;" xml:space="preserve">
<path id="XMLID_1_" d="M512,0C229.2,0,0,229.2,0,512s229.2,512,512,512s512-229.2,512-512S794.8,0,512,0z M512,943.3
	C273.8,943.3,80.7,750.2,80.7,512S273.8,80.7,512,80.7S943.3,273.8,943.3,512S750.2,943.3,512,943.3z M521.2,232.4
	c23.2,12.2,91.1,39.6,211.2,23.9c11.9-1.6,22.5,7.8,22.5,19.8v321.3c0,47.5-22.5,92.2-60.7,120.5L512,853L329.7,718
	c-38.2-28.3-60.7-73-60.7-120.5V276.2c0-12.1,10.6-21.4,22.5-19.8c120.2,15.6,188-11.7,211.2-23.9
	C508.5,229.4,515.5,229.4,521.2,232.4z"/>
</svg>
