<?xml version="1.0" encoding="UTF-8" standalone="no"?>
<svg
   xmlns:dc="http://purl.org/dc/elements/1.1/"
   xmlns:cc="http://creativecommons.org/ns#"
   xmlns:rdf="http://www.w3.org/1999/02/22-rdf-syntax-ns#"
   xmlns:svg="http://www.w3.org/2000/svg"
   xmlns="http://www.w3.org/2000/svg"
   xmlns:sodipodi="http://sodipodi.sourceforge.net/DTD/sodipodi-0.dtd"
   xmlns:inkscape="http://www.inkscape.org/namespaces/inkscape"
   version="1.1"
   id="svg2"
   width="3840"
   height="2160"
   viewBox="0 0 3840 2160"
   sodipodi:docname="HD Splash.svg"
   inkscape:version="1.0.1 (3bc2e813f5, 2020-09-07, custom)"
   inkscape:export-xdpi="96"
   inkscape:export-ydpi="96">
  <metadata
     id="metadata8">
    <rdf:RDF>
      <cc:Work
         rdf:about="">
        <dc:format>image/svg+xml</dc:format>
        <dc:type
           rdf:resource="http://purl.org/dc/dcmitype/StillImage" />
        <dc:title></dc:title>
      </cc:Work>
    </rdf:RDF>
  </metadata>
  <defs
     id="defs6" />
  <sodipodi:namedview
     pagecolor="#ffffff"
     bordercolor="#666666"
     borderopacity="1"
     objecttolerance="10"
     gridtolerance="10"
     guidetolerance="10"
     inkscape:pageopacity="0"
     inkscape:pageshadow="2"
     inkscape:window-width="3840"
     inkscape:window-height="2077"
     id="namedview4"
     showgrid="false"
     lock-margins="true"
     fit-margin-top="0"
     fit-margin-left="0"
     fit-margin-right="0"
     fit-margin-bottom="0"
     inkscape:zoom="0.49373179"
     inkscape:cx="2287.9151"
     inkscape:cy="1499.0251"
     inkscape:window-x="0"
     inkscape:window-y="0"
     inkscape:window-maximized="1"
     inkscape:current-layer="g10"
     inkscape:document-rotation="0" />
  <g
     inkscape:groupmode="layer"
     inkscape:label="Image"
     id="g10"
     transform="translate(957.9455,256.88617)">
    <rect
       style="fill:#febf06;fill-opacity:1;stroke-width:144.217;stroke-linecap:round;paint-order:stroke fill markers"
       id="rect831"
       width="3840"
       height="2160"
       x="-957.9455"
       y="-256.88617" />
    <path
       id="path839"
       style="fill:#ffffff;fill-opacity:1;stroke-width:4154.05;stroke-linecap:round;paint-order:stroke fill markers"
       d="M 789.9023,221.31108 A 601.80273,601.80273 0 0 0 188.09957,823.11381 601.80273,601.80273 0 0 0 789.9023,1424.9165 601.80273,601.80273 0 0 0 1352.1623,1037.605 L 1539.5328,932.90817 1736.0094,823.11381 1539.5328,713.31946 1352.1623,608.62262 a 601.80273,601.80273 0 0 0 -562.26,-387.31154 z m 184.67327,224.3398 a 160.43508,160.43508 0 0 1 1.8064,0 A 160.43508,160.43508 0 0 1 1136.805,606.07386 160.43508,160.43508 0 0 1 976.38197,766.52159 160.43508,160.43508 0 0 1 815.93424,606.07386 160.43508,160.43508 0 0 1 974.57557,445.65088 Z" />
  </g>
</svg>
