<?xml version="1.0" encoding="UTF-8" standalone="no"?>
<svg
   xmlns:dc="http://purl.org/dc/elements/1.1/"
   xmlns:cc="http://creativecommons.org/ns#"
   xmlns:rdf="http://www.w3.org/1999/02/22-rdf-syntax-ns#"
   xmlns:svg="http://www.w3.org/2000/svg"
   xmlns="http://www.w3.org/2000/svg"
   xmlns:sodipodi="http://sodipodi.sourceforge.net/DTD/sodipodi-0.dtd"
   xmlns:inkscape="http://www.inkscape.org/namespaces/inkscape"
   version="1.1"
   id="Layer_1"
   x="0px"
   y="0px"
   viewBox="0 0 1680 385"
   style="enable-background:new 0 0 1680 385;"
   xml:space="preserve"
   sodipodi:docname="patreon.svg"
   inkscape:version="1.0.2 (e86c870879, 2021-01-15)"><metadata
   id="metadata31"><rdf:RDF><cc:Work
       rdf:about=""><dc:format>image/svg+xml</dc:format><dc:type
         rdf:resource="http://purl.org/dc/dcmitype/StillImage" /></cc:Work></rdf:RDF></metadata><defs
   id="defs29">
	
	

		
	
			
			
			
			
			
			
			
			
		</defs><sodipodi:namedview
   pagecolor="#ffffff"
   bordercolor="#666666"
   borderopacity="1"
   objecttolerance="10"
   gridtolerance="10"
   guidetolerance="10"
   inkscape:pageopacity="0"
   inkscape:pageshadow="2"
   inkscape:window-width="3840"
   inkscape:window-height="2077"
   id="namedview27"
   showgrid="false"
   inkscape:zoom="1.0547676"
   inkscape:cx="718.06479"
   inkscape:cy="111.37758"
   inkscape:window-x="0"
   inkscape:window-y="0"
   inkscape:window-maximized="1"
   inkscape:current-layer="Layer_1" />
<style
   type="text/css"
   id="style2">
	.st0{fill:#E6461A;}
	.st1{fill:#222C31;}
</style>
<path
   class="st0"
   d="m 206,0 c 11.1,2 22.4,3.3 33.3,6 75.2,18.6 132.2,82.4 142.8,159.4 14.1,102.4 -52.5,196 -154,216.3 -7.3,1.5 -14.8,2.3 -22.2,3.4 -34,0 -68,0 -102,0 0,-64.5 0,-129 0.1,-193.4 0,-4.3 0.4,-8.7 1.1,-12.9 6.6,-43.3 46.1,-76 89.4,-74.3 45.7,1.9 82.4,37.2 85.3,82.2 4.3,66.8 -63.7,113.7 -124.6,85.9 -1.3,-0.6 -2.6,-1.1 -4.5,-1.8 0,20.5 -0.1,40.3 0.2,60.1 0,1.2 2.3,3 3.8,3.4 19.5,5.6 39.4,6.7 59.4,3.5 C 298.7,324.2 353.3,243.9 335,160.5 318.1,83.3 240.9,32.8 164,48.5 94.4,62.5 45.8,121.9 45.6,193.1 c -0.1,62.3 0,124.6 0,186.9 0,1.7 0.2,3.3 0.4,5 -15.3,0 -30.7,0 -46,0 C 0,316 0,247 0,178 0.6,174.1 1.3,170.2 1.8,166.2 12.4,88.5 69.1,24.9 145.2,5.9 156,3.2 167.1,1.9 178,0 c 9.3,0 18.7,0 28,0 z"
   id="path4" /><path
   class="st1"
   d="m 1680,272 c -10.3,0 -20.6,0 -31.7,0 0,-7.7 0,-15.3 0,-22.9 -0.1,-29.5 0,-59 -0.3,-88.5 -0.3,-23.1 -17.7,-43.9 -40.3,-48.6 -31,-6.5 -62.5,18.6 -62.6,50.4 -0.1,34.5 0.1,69 0.2,103.5 0,2 0,3.9 0,6.2 -10.5,0 -20.4,0 -30.8,0 0,-60.9 0,-121.8 0,-183.2 9.9,0 19.9,0 30.5,0 0,3 0,6.1 0,10.1 10,-8.9 20.6,-14.4 32.6,-17.4 47.2,-11.9 96.6,22.8 101.4,71.2 0.1,1.4 0.6,2.9 0.9,4.3 0.1,38.2 0.1,76.6 0.1,114.9 z"
   id="path6"
   style="fill:#e0e0e0;fill-opacity:1" /><path
   class="st1"
   d="m 481.8,251.5 c 0,30.4 0,60.7 0,91.4 -10.5,0 -20.4,0 -30.6,0 -0.1,-1.3 -0.3,-2.6 -0.3,-3.9 0,-53.2 -0.2,-106.3 0.1,-159.5 0.3,-48.1 34,-88.7 81,-98.2 56.5,-11.4 111.8,28.3 119.2,85.5 7.3,56.4 -31.5,107 -88.1,113.8 -29.7,3.5 -55.3,-6.7 -77.3,-26.5 -1,-0.9 -1.5,-2.5 -2.3,-3.8 -0.6,0.4 -1.1,0.8 -1.7,1.2 z m 69.9,-1.1 c 38.7,-0.1 69.6,-31.3 69.6,-70.1 -0.1,-38.7 -31.4,-70 -69.9,-69.8 -38.6,0.2 -69.6,31.4 -69.5,70.2 -0.1,38.6 31.1,69.8 69.8,69.7 z"
   id="path8"
   style="fill:#e0e0e0;fill-opacity:1" /><path
   class="st1"
   d="m 1127.7,221.3 c 14.8,22.6 46.1,33.8 73.8,26.4 16.9,-4.5 30.4,-14.2 40.1,-28.7 9.7,-14.5 13.3,-30.7 11.2,-48.4 10.5,0 20.6,0 30.6,0 5.5,38.7 -17.6,89.2 -69.4,105.7 -49,15.6 -101.9,-8.4 -122.6,-55.5 -20.8,-47.3 -2.5,-102.8 42.6,-128.5 46.7,-26.6 99,-9.2 123.4,19.9 -43.2,36.3 -86.3,72.6 -129.7,109.1 z m -13,-29.5 c 31.1,-26.1 61.3,-51.5 91.8,-77.2 -23.3,-9.7 -53,-3.2 -71.9,15.7 -16.6,16.7 -22.9,37 -19.9,61.5 z"
   id="path10"
   style="fill:#e0e0e0;fill-opacity:1" /><path
   class="st1"
   d="m 864,272.1 c -10.5,0 -20.5,0 -30.9,0 0,-6.2 0,-12.1 0,-18.9 -1.6,1.3 -2.5,2 -3.3,2.7 -57.3,49.6 -145.6,22 -164.2,-51.3 C 648.5,137 704.1,72.7 773.4,79.7 c 51,5.2 90,47.7 90.5,98.9 0.3,30 0.1,60 0.1,90 0,1 0,2 0,3.5 z M 693.5,180 c -0.1,38.4 31,69.9 69.2,70.1 38.6,0.1 70.3,-30.8 70.4,-68.8 0.1,-39.7 -30.7,-71.1 -69.6,-71.1 -38.6,-0.2 -69.9,31.1 -70,69.8 z"
   id="path12"
   style="fill:#e0e0e0;fill-opacity:1" /><path
   class="st1"
   d="m 1295.3,180 c 0.1,-55.6 45.3,-100.8 100.7,-100.8 55.6,0 101,45.7 100.7,101.3 -0.3,55.7 -45.4,100.6 -101,100.5 -55.4,-0.1 -100.5,-45.4 -100.4,-101 z m 100.6,70 c 38.6,0 70,-31.2 70,-69.8 0.1,-38.5 -31.3,-70.1 -69.7,-70.2 -38.5,-0.1 -70,31.3 -70.1,69.8 0,38.7 31.3,70.2 69.8,70.2 z"
   id="path14"
   style="fill:#e0e0e0;fill-opacity:1" /><path
   class="st1"
   d="m 873.8,88.3 c 6.1,0 11.5,0 17.7,0 0,-23.7 0,-47.1 0,-70.8 10.6,0 20.5,0 31,0 0,23.5 0,46.9 0,70.8 15.7,0 30.8,0 46.2,0 0,10.4 0,20.3 0,30.9 -15.2,0 -30.4,0 -46.1,0 0,51.3 0,101.9 0,152.8 -10.4,0 -20.3,0 -30.8,0 0,-2.2 0,-4.1 0,-6 0,-47 -0.1,-94 0.1,-141 0,-4.5 -1.1,-6.3 -5.8,-5.8 -3.9,0.4 -7.9,0.1 -12.2,0.1 -0.1,-10.4 -0.1,-20.3 -0.1,-31 z"
   id="path16"
   style="fill:#e0e0e0;fill-opacity:1" /><path
   class="st1"
   d="m 1015.5,115.1 c 14.7,-13.2 31.5,-22.3 50.9,-25.7 6.8,-1.2 13.8,-1.3 21.2,-2 0,10.2 0,19.3 0,28.4 0,3.5 -2.6,2.9 -4.6,2.9 -15.4,0.2 -29.2,5.1 -41.1,14.6 -17.3,13.7 -26.7,31.7 -27,53.9 -0.3,26.3 -0.1,52.7 -0.1,79 0,1.8 0,3.6 0,5.8 -10.3,0 -20.2,0 -30.5,0 0,-61.1 0,-122.1 0,-183.3 9.7,0 19.5,0 29.9,0 0,8.6 0,17.2 0,25.8 0.5,0.2 0.9,0.4 1.3,0.6 z"
   id="path18"
   style="fill:#e0e0e0;fill-opacity:1" />

</svg>
