<?xml version="1.0" encoding="UTF-8" standalone="no"?>
<svg
   xmlns:dc="http://purl.org/dc/elements/1.1/"
   xmlns:cc="http://creativecommons.org/ns#"
   xmlns:rdf="http://www.w3.org/1999/02/22-rdf-syntax-ns#"
   xmlns:svg="http://www.w3.org/2000/svg"
   xmlns="http://www.w3.org/2000/svg"
   xmlns:sodipodi="http://sodipodi.sourceforge.net/DTD/sodipodi-0.dtd"
   xmlns:inkscape="http://www.inkscape.org/namespaces/inkscape"
   version="1.1"
   id="svg2"
   width="1000"
   height="991.78479"
   viewBox="0 0 1000 991.7848"
   sodipodi:docname="ic_chat.svg"
   inkscape:version="1.0.2 (e86c870879, 2021-01-15)">
  <metadata
     id="metadata8">
    <rdf:RDF>
      <cc:Work
         rdf:about="">
        <dc:format>image/svg+xml</dc:format>
        <dc:type
           rdf:resource="http://purl.org/dc/dcmitype/StillImage" />
        <dc:title></dc:title>
      </cc:Work>
    </rdf:RDF>
  </metadata>
  <defs
     id="defs6" />
  <sodipodi:namedview
     pagecolor="#ffffff"
     bordercolor="#666666"
     borderopacity="1"
     objecttolerance="10"
     gridtolerance="10"
     guidetolerance="10"
     inkscape:pageopacity="0"
     inkscape:pageshadow="2"
     inkscape:window-width="3840"
     inkscape:window-height="2077"
     id="namedview4"
     showgrid="false"
     fit-margin-bottom="0"
     lock-margins="true"
     fit-margin-top="0"
     fit-margin-left="0"
     fit-margin-right="0"
     inkscape:zoom="1.3166181"
     inkscape:cx="230.77991"
     inkscape:cy="354.9141"
     inkscape:window-x="0"
     inkscape:window-y="0"
     inkscape:window-maximized="1"
     inkscape:current-layer="g10"
     inkscape:document-rotation="0" />
  <g
     inkscape:groupmode="layer"
     inkscape:label="Image"
     id="g10"
     transform="translate(104.31355,-23.158583)">
    <path
       style="fill:#000000;stroke-width:10.6594"
       d="M 796.63104,918.77979 700.91836,822.61625 H 412.35839 c -210.22295,0 -292.03251,-3.47253 -301.3513,-12.79132 -7.03523,-7.03523 -12.791321,-40.61245 -12.791321,-74.61605 V 673.38415 H 423.32855 748.44134 V 449.536 225.68785 h 63.58157 c 52.22025,0 65.57778,3.72994 74.7529,20.87384 7.33865,13.71238 10.21013,149.10216 8.36963,394.62771 l -2.80172,373.754 z m -900.94459,-502.4454 c 0,-333.183853 1.34586,-359.111321 19.493336,-375.53458 17.263063,-15.622821 57.58986,-17.641227 352.462184,-17.641227 209.1393,0 340.63658,4.10367 353.5869,11.034477 19.5027,10.437517 20.61812,24.833767 20.61812,266.11084 0,241.27708 -1.11542,255.67334 -20.61812,266.11085 -12.55568,6.7196 -119.80901,11.03448 -274.28017,11.03448 H 93.286611 l -98.8000585,98.38926 -98.8001025,98.38924 z"
       id="path837" />
  </g>
</svg>
