<?xml version="1.0" encoding="UTF-8" standalone="no"?>
<svg
   xmlns:dc="http://purl.org/dc/elements/1.1/"
   xmlns:cc="http://creativecommons.org/ns#"
   xmlns:rdf="http://www.w3.org/1999/02/22-rdf-syntax-ns#"
   xmlns:svg="http://www.w3.org/2000/svg"
   xmlns="http://www.w3.org/2000/svg"
   xmlns:sodipodi="http://sodipodi.sourceforge.net/DTD/sodipodi-0.dtd"
   xmlns:inkscape="http://www.inkscape.org/namespaces/inkscape"
   width="1000.0001"
   height="1000.0001"
   version="1.1"
   id="svg4"
   sodipodi:docname="ic_cross.svg"
   inkscape:version="1.0.2 (e86c870879, 2021-01-15)">
  <metadata
     id="metadata10">
    <rdf:RDF>
      <cc:Work
         rdf:about="">
        <dc:format>image/svg+xml</dc:format>
        <dc:type
           rdf:resource="http://purl.org/dc/dcmitype/StillImage" />
        <dc:title></dc:title>
      </cc:Work>
    </rdf:RDF>
  </metadata>
  <defs
     id="defs8" />
  <sodipodi:namedview
     pagecolor="#ffffff"
     bordercolor="#666666"
     borderopacity="1"
     objecttolerance="10"
     gridtolerance="10"
     guidetolerance="10"
     inkscape:pageopacity="0"
     inkscape:pageshadow="2"
     inkscape:window-width="3840"
     inkscape:window-height="2077"
     id="namedview6"
     showgrid="false"
     fit-margin-top="0"
     fit-margin-left="0"
     fit-margin-right="0"
     fit-margin-bottom="0"
     inkscape:zoom="0.69824219"
     inkscape:cx="371.6533"
     inkscape:cy="519.35269"
     inkscape:window-x="0"
     inkscape:window-y="0"
     inkscape:window-maximized="1"
     inkscape:current-layer="svg4"
     inkscape:document-rotation="0"
     lock-margins="true" />
  <path
     style="fill:#000000;fill-opacity:1;stroke-width:124.999"
     d="M 125.00159,0.00208923 A 124.99947,124.99947 0 0 0 0.00208923,125.00159 124.99947,124.99947 0 0 0 36.251889,213.75119 L 323.75068,499.99998 36.251889,786.24877 A 124.99947,124.99947 0 0 0 0.00208923,874.99837 124.99947,124.99947 0 0 0 125.00159,999.9979 124.99947,124.99947 0 0 0 213.75119,963.748 L 499.99998,676.24918 784.99877,962.498 a 124.99947,124.99947 0 0 0 89.9996,37.4999 A 124.99947,124.99947 0 0 0 999.9979,874.99837 124.99947,124.99947 0 0 0 963.748,786.24877 L 676.24918,499.99998 962.498,215.00119 A 124.99947,124.99947 0 0 0 999.9979,125.00159 124.99947,124.99947 0 0 0 874.99837,0.00208923 124.99947,124.99947 0 0 0 786.24877,36.251889 L 499.99998,323.75068 215.00119,37.501889 a 124.99947,124.99947 0 0 0 -1.25,-1.25 124.99947,124.99947 0 0 0 -88.7496,-36.24979977 z"
     id="path2" />
</svg>
