<?xml version="1.0" encoding="UTF-8" standalone="no"?>
<svg
   xmlns:dc="http://purl.org/dc/elements/1.1/"
   xmlns:cc="http://creativecommons.org/ns#"
   xmlns:rdf="http://www.w3.org/1999/02/22-rdf-syntax-ns#"
   xmlns:svg="http://www.w3.org/2000/svg"
   xmlns="http://www.w3.org/2000/svg"
   xmlns:sodipodi="http://sodipodi.sourceforge.net/DTD/sodipodi-0.dtd"
   xmlns:inkscape="http://www.inkscape.org/namespaces/inkscape"
   version="1.1"
   width="512"
   height="416"
   viewBox="0 0 512 416"
   id="svg7"
   sodipodi:docname="ic_camera.svg"
   inkscape:version="1.0.2 (e86c870879, 2021-01-15)">
  <metadata
     id="metadata13">
    <rdf:RDF>
      <cc:Work
         rdf:about="">
        <dc:format>image/svg+xml</dc:format>
        <dc:type
           rdf:resource="http://purl.org/dc/dcmitype/StillImage" />
        <dc:title></dc:title>
      </cc:Work>
    </rdf:RDF>
  </metadata>
  <defs
     id="defs11" />
  <sodipodi:namedview
     pagecolor="#ffffff"
     bordercolor="#666666"
     borderopacity="1"
     objecttolerance="10"
     gridtolerance="10"
     guidetolerance="10"
     inkscape:pageopacity="0"
     inkscape:pageshadow="2"
     inkscape:window-width="3840"
     inkscape:window-height="2077"
     id="namedview9"
     showgrid="false"
     fit-margin-top="0"
     fit-margin-left="0"
     fit-margin-right="0"
     fit-margin-bottom="0"
     inkscape:zoom="1.3964844"
     inkscape:cx="256"
     inkscape:cy="192"
     inkscape:window-x="0"
     inkscape:window-y="0"
     inkscape:window-maximized="1"
     inkscape:current-layer="svg7" />
  <g
     id="icomoon-ignore"
     transform="translate(0,-64)" />
  <path
     d="m 152,240 c 0,57.438 46.562,104 104,104 57.438,0 104,-46.562 104,-104 0,-57.438 -46.562,-104 -104,-104 -57.438,0 -104,46.562 -104,104 z M 480,64 H 368 C 360,32 352,0 320,0 H 192 C 160,0 152,32 144,64 H 32 C 14.4,64 0,78.4 0,96 v 288 c 0,17.6 14.4,32 32,32 h 448 c 17.6,0 32,-14.4 32,-32 V 96 C 512,78.4 497.6,64 480,64 Z M 256,382 c -78.425,0 -142,-63.574 -142,-142 0,-78.426 63.575,-142 142,-142 78.426,0 142,63.575 142,142 0,78.425 -63.573,142 -142,142 z M 480,160 h -64 v -32 h 64 z"
     id="path5" />
</svg>
