<?xml version="1.0" encoding="UTF-8" standalone="no"?>
<svg
   xmlns:dc="http://purl.org/dc/elements/1.1/"
   xmlns:cc="http://creativecommons.org/ns#"
   xmlns:rdf="http://www.w3.org/1999/02/22-rdf-syntax-ns#"
   xmlns:svg="http://www.w3.org/2000/svg"
   xmlns="http://www.w3.org/2000/svg"
   xmlns:sodipodi="http://sodipodi.sourceforge.net/DTD/sodipodi-0.dtd"
   xmlns:inkscape="http://www.inkscape.org/namespaces/inkscape"
   version="1.1"
   id="svg2"
   width="984.54266"
   height="1000"
   viewBox="0 0 984.54266 1000"
   sodipodi:docname="ic_create.svg"
   inkscape:version="1.0.2 (e86c870879, 2021-01-15)">
  <metadata
     id="metadata8">
    <rdf:RDF>
      <cc:Work
         rdf:about="">
        <dc:format>image/svg+xml</dc:format>
        <dc:type
           rdf:resource="http://purl.org/dc/dcmitype/StillImage" />
        <dc:title></dc:title>
      </cc:Work>
    </rdf:RDF>
  </metadata>
  <defs
     id="defs6" />
  <sodipodi:namedview
     pagecolor="#ffffff"
     bordercolor="#666666"
     borderopacity="1"
     objecttolerance="10"
     gridtolerance="10"
     guidetolerance="10"
     inkscape:pageopacity="0"
     inkscape:pageshadow="2"
     inkscape:window-width="3840"
     inkscape:window-height="2077"
     id="namedview4"
     showgrid="false"
     lock-margins="true"
     fit-margin-top="0"
     fit-margin-left="0"
     fit-margin-right="0"
     fit-margin-bottom="0"
     inkscape:zoom="1.0396679"
     inkscape:cx="355.58017"
     inkscape:cy="427.97781"
     inkscape:window-x="0"
     inkscape:window-y="0"
     inkscape:window-maximized="1"
     inkscape:current-layer="g10"
     inkscape:document-rotation="0" />
  <g
     inkscape:groupmode="layer"
     inkscape:label="Image"
     id="g10"
     transform="translate(117.40116,-1.150196)">
    <g
       aria-label="POST"
       id="text880"
       style="font-style:normal;font-weight:normal;font-size:40px;line-height:1.25;font-family:sans-serif;letter-spacing:0px;word-spacing:0px;fill:#000000;fill-opacity:1;stroke:none"
       transform="matrix(8.5221614,0,0,8.5221614,883.11064,-8.65196)">
      <path
         id="path888"
         style="font-style:normal;font-variant:normal;font-weight:bold;font-stretch:normal;font-family:sans-serif;-inkscape-font-specification:'sans-serif Bold'"
         d="m -28.74884,88.764755 h 26.8749997 v 5.683594 H -11.541809 V 117.92491 H -19.06134 V 94.448349 h -9.6875 z m -5.039063,0.917969 v 6.171875 q -2.402344,-1.074219 -4.6875,-1.621094 -2.285156,-0.546875 -4.316406,-0.546875 -2.695313,0 -3.984375,0.742188 -1.289063,0.742187 -1.289063,2.304687 0,1.171875 0.859375,1.835938 0.878907,0.644531 3.164063,1.113281 l 3.203125,0.644536 q 4.863281,0.97656 6.914062,2.96875 2.050782,1.99218 2.050782,5.66406 0,4.82422 -2.871094,7.1875 -2.851563,2.34375 -8.730469,2.34375 -2.773437,0 -5.566406,-0.52735 -2.792969,-0.52734 -5.585938,-1.5625 v -6.34765 q 2.792969,1.48437 5.390625,2.24609 2.617188,0.74219 5.039063,0.74219 2.460937,0 3.769531,-0.82031 1.308594,-0.82032 1.308594,-2.34375 0,-1.36719 -0.898438,-2.10938 -0.878906,-0.74219 -3.535156,-1.32812 l -2.910156,-0.64453 q -4.375,-0.9375 -6.40625,-2.98829 -2.011719,-2.05078 -2.011719,-5.52734 0,-4.355469 2.8125,-6.699219 2.8125,-2.34375 8.085938,-2.34375 2.402343,0 4.941406,0.371094 2.539062,0.351563 5.253906,1.074219 z m -40.976562,4.003906 q -3.4375,0 -5.332032,2.539063 -1.894531,2.539062 -1.894531,7.148437 0,4.58984 1.894531,7.12891 1.894532,2.53906 5.332032,2.53906 3.457031,0 5.351562,-2.53906 1.894531,-2.53907 1.894531,-7.12891 0,-4.609375 -1.894531,-7.148437 -1.894531,-2.539063 -5.351562,-2.539063 z m 0,-5.449219 q 7.03125,0 11.015625,4.023438 3.984375,4.023437 3.984375,11.113281 0,7.07031 -3.984375,11.09375 -3.984375,4.02344 -11.015625,4.02344 -7.011719,0 -11.015625,-4.02344 -3.984375,-4.02344 -3.984375,-11.09375 0,-7.089844 3.984375,-11.113281 4.003906,-4.023438 11.015625,-4.023438 z m -42.636715,0.527344 h 12.48046 q 5.566411,0 8.535161,2.480469 2.988281,2.460937 2.988281,7.03125 0,4.589846 -2.988281,7.070316 -2.96875,2.46093 -8.535161,2.46093 h -4.96093 v 10.11719 h -7.51953 z m 7.51953,5.449219 v 8.144536 h 4.16015 q 2.1875,0 3.37891,-1.05469 1.19141,-1.07422 1.19141,-3.027346 0,-1.953125 -1.19141,-3.007813 -1.19141,-1.054687 -3.37891,-1.054687 z M -65.813293,1.150196 c -1.908213,0 -3.443359,1.5351455 -3.443359,3.443359 v 26.935547 h -26.935551 c -1.90821,0 -3.44531,1.537099 -3.44531,3.445313 v 12.351562 c 0,1.908213 1.5371,3.44336 3.44531,3.44336 h 26.935551 v 26.935547 c 0,1.908213 1.535146,3.445312 3.443359,3.445312 h 12.351563 c 1.908213,0 3.445312,-1.537099 3.445312,-3.445312 V 50.769337 h 26.935547 c 1.908214,0 3.44336,-1.535147 3.44336,-3.44336 V 34.974415 c 0,-1.908214 -1.535146,-3.445313 -3.44336,-3.445313 H -50.016418 V 4.593555 c 0,-1.9082135 -1.537099,-3.443359 -3.445312,-3.443359 z" />
    </g>
  </g>
</svg>
