<?xml version="1.0" encoding="UTF-8" standalone="no"?>
<svg
   xmlns:dc="http://purl.org/dc/elements/1.1/"
   xmlns:cc="http://creativecommons.org/ns#"
   xmlns:rdf="http://www.w3.org/1999/02/22-rdf-syntax-ns#"
   xmlns:svg="http://www.w3.org/2000/svg"
   xmlns="http://www.w3.org/2000/svg"
   xmlns:sodipodi="http://sodipodi.sourceforge.net/DTD/sodipodi-0.dtd"
   xmlns:inkscape="http://www.inkscape.org/namespaces/inkscape"
   version="1.1"
   id="svg2"
   width="1000"
   height="1000.0016"
   viewBox="0 0 1000 1000.0016"
   sodipodi:docname="ic_groups.svg"
   inkscape:version="1.0.2 (e86c870879, 2021-01-15)">
  <metadata
     id="metadata8">
    <rdf:RDF>
      <cc:Work
         rdf:about="">
        <dc:format>image/svg+xml</dc:format>
        <dc:type
           rdf:resource="http://purl.org/dc/dcmitype/StillImage" />
        <dc:title></dc:title>
      </cc:Work>
    </rdf:RDF>
  </metadata>
  <defs
     id="defs6" />
  <sodipodi:namedview
     pagecolor="#ffffff"
     bordercolor="#666666"
     borderopacity="1"
     objecttolerance="10"
     gridtolerance="10"
     guidetolerance="10"
     inkscape:pageopacity="0"
     inkscape:pageshadow="2"
     inkscape:window-width="3840"
     inkscape:window-height="2077"
     id="namedview4"
     showgrid="false"
     lock-margins="true"
     fit-margin-top="0"
     fit-margin-left="0"
     fit-margin-right="0"
     fit-margin-bottom="0"
     inkscape:zoom="0.65830905"
     inkscape:cx="-83.667205"
     inkscape:cy="432.30383"
     inkscape:window-x="0"
     inkscape:window-y="0"
     inkscape:window-maximized="1"
     inkscape:current-layer="g10"
     inkscape:document-rotation="0" />
  <g
     inkscape:groupmode="layer"
     inkscape:label="Image"
     id="g10"
     transform="translate(0,1.5522288e-4)">
    <path
       id="path839"
       style="fill:#000000;fill-opacity:1;stroke-width:4947.58;stroke-linecap:round;paint-order:stroke fill markers"
       d="M 497.45686,0.00146167 A 500,500 0 0 0 3.7814004e-8,500.00146 500,500 0 0 0 500,1000.0015 500,500 0 0 0 1000,500.00146 500,500 0 0 0 500,0.00146167 a 500,500 0 0 0 -2.54314,0 z M 503.31624,175.17236 A 129.28774,129.28774 0 0 1 632.58871,304.44482 129.28774,129.28774 0 0 1 503.31624,433.73763 129.28774,129.28774 0 0 1 374.02344,304.44482 129.28774,129.28774 0 0 1 503.31624,175.17236 Z m -197.347,343.26172 A 129.28774,129.28774 0 0 1 435.2417,647.72689 129.28774,129.28774 0 0 1 305.96924,776.99935 129.28774,129.28774 0 0 1 176.67644,647.72689 129.28774,129.28774 0 0 1 305.96924,518.43408 Z m 390.29948,1.13932 a 129.28774,129.28774 0 0 1 129.2928,129.29281 129.28774,129.28774 0 0 1 -129.2928,129.2928 129.28774,129.28774 0 0 1 -129.2928,-129.2928 129.28774,129.28774 0 0 1 129.2928,-129.29281 z" />
  </g>
</svg>
