<?xml version="1.0" encoding="UTF-8" standalone="no"?>
<svg
   xmlns:dc="http://purl.org/dc/elements/1.1/"
   xmlns:cc="http://creativecommons.org/ns#"
   xmlns:rdf="http://www.w3.org/1999/02/22-rdf-syntax-ns#"
   xmlns:svg="http://www.w3.org/2000/svg"
   xmlns="http://www.w3.org/2000/svg"
   xmlns:sodipodi="http://sodipodi.sourceforge.net/DTD/sodipodi-0.dtd"
   xmlns:inkscape="http://www.inkscape.org/namespaces/inkscape"
   version="1.1"
   id="svg2"
   width="1000"
   height="914.0882"
   viewBox="0 0 1000 914.08823"
   sodipodi:docname="ic_hate.svg"
   inkscape:version="1.0.2 (e86c870879, 2021-01-15)">
  <metadata
     id="metadata8">
    <rdf:RDF>
      <cc:Work
         rdf:about="">
        <dc:format>image/svg+xml</dc:format>
        <dc:type
           rdf:resource="http://purl.org/dc/dcmitype/StillImage" />
        <dc:title></dc:title>
      </cc:Work>
    </rdf:RDF>
  </metadata>
  <defs
     id="defs6" />
  <sodipodi:namedview
     pagecolor="#ffffff"
     bordercolor="#666666"
     borderopacity="1"
     objecttolerance="10"
     gridtolerance="10"
     guidetolerance="10"
     inkscape:pageopacity="0"
     inkscape:pageshadow="2"
     inkscape:window-width="3840"
     inkscape:window-height="2077"
     id="namedview4"
     showgrid="false"
     lock-margins="true"
     fit-margin-top="0"
     fit-margin-left="0"
     fit-margin-right="0"
     fit-margin-bottom="0"
     inkscape:zoom="0.65830905"
     inkscape:cx="349.61829"
     inkscape:cy="493.08379"
     inkscape:window-x="0"
     inkscape:window-y="0"
     inkscape:window-maximized="1"
     inkscape:current-layer="g10"
     inkscape:document-rotation="0" />
  <g
     inkscape:groupmode="layer"
     inkscape:label="Image"
     id="g10"
     transform="translate(-106.23081,-14.215943)">
    <path
       style="fill:#000000;stroke-width:10.7638"
       d="M 532.68062,872.10761 C 309.1611,671.96083 181.61193,529.90804 136.03913,430.36395 61.157362,266.80054 132.70096,82.682077 290.86464,31.918337 357.07566,10.667443 389.90847,9.0439013 443.01213,24.394823 c 33.75247,9.756951 46.77845,26.47501 125.16199,160.637197 l 87.48872,149.74683 -55.19743,69.20352 c -30.35865,38.06193 -72.15047,89.83674 -92.87071,115.05514 -20.72024,25.21839 -40.9701,51.51259 -44.99962,58.43155 -4.02963,6.91896 21.20073,77.78903 56.06746,157.48904 127.97876,249.30942 90.06491,240.8575 58.289,1.88769 -8.3318,-67.16413 -17.89906,-126.56677 -21.26069,-132.00585 -3.36152,-5.43909 46.0759,-68.66531 109.86098,-140.5027 L 781.52468,333.72379 714.54858,206.70821 647.57236,79.692625 683.32743,57.594795 c 19.66528,-12.153805 61.6686,-27.65529 93.34075,-34.44775 150.84906,-32.351336 293.13792,64.100912 324.43072,219.919425 16.5578,82.44742 -6.7568,168.12094 -72.7763,267.42836 -49.17246,73.96596 -394.81944,417.80932 -420.00094,417.80932 -7.08514,0 -41.1236,-25.28844 -75.64104,-56.19654 z"
       id="path837"
       sodipodi:nodetypes="ssssscsssccsscccssssss" />
  </g>
</svg>
