<?xml version="1.0" encoding="UTF-8" standalone="no"?>
<svg
   xmlns:dc="http://purl.org/dc/elements/1.1/"
   xmlns:cc="http://creativecommons.org/ns#"
   xmlns:rdf="http://www.w3.org/1999/02/22-rdf-syntax-ns#"
   xmlns:svg="http://www.w3.org/2000/svg"
   xmlns="http://www.w3.org/2000/svg"
   xmlns:sodipodi="http://sodipodi.sourceforge.net/DTD/sodipodi-0.dtd"
   xmlns:inkscape="http://www.inkscape.org/namespaces/inkscape"
   version="1.1"
   id="svg2"
   width="1000"
   height="990.13611"
   viewBox="0 0 1000 990.1361"
   sodipodi:docname="ic_profile.svg"
   inkscape:version="1.0.2 (e86c870879, 2021-01-15)">
  <metadata
     id="metadata8">
    <rdf:RDF>
      <cc:Work
         rdf:about="">
        <dc:format>image/svg+xml</dc:format>
        <dc:type
           rdf:resource="http://purl.org/dc/dcmitype/StillImage" />
        <dc:title></dc:title>
      </cc:Work>
    </rdf:RDF>
  </metadata>
  <defs
     id="defs6" />
  <sodipodi:namedview
     pagecolor="#ffffff"
     bordercolor="#666666"
     borderopacity="1"
     objecttolerance="10"
     gridtolerance="10"
     guidetolerance="10"
     inkscape:pageopacity="0"
     inkscape:pageshadow="2"
     inkscape:window-width="3840"
     inkscape:window-height="2077"
     id="namedview4"
     showgrid="false"
     lock-margins="true"
     fit-margin-top="0"
     fit-margin-left="0"
     fit-margin-right="0"
     fit-margin-bottom="0"
     inkscape:zoom="0.65830905"
     inkscape:cx="500.19579"
     inkscape:cy="298.62946"
     inkscape:window-x="0"
     inkscape:window-y="0"
     inkscape:window-maximized="1"
     inkscape:current-layer="g10"
     inkscape:document-rotation="0" />
  <g
     inkscape:groupmode="layer"
     inkscape:label="Image"
     id="g10"
     transform="translate(108.00953,-11.679814)">
    <path
       style="fill:#000000;stroke-width:10.6534"
       d="m -101.05176,996.86606 c -3.96413,-3.96402 -7.09314,-29.17998 -6.95326,-56.03548 0.76918,-147.68843 50.826307,-200.14425 260.82772,-273.32394 76.82841,-26.77258 99.73524,-29.74759 234.30119,-30.42971 127.46042,-0.64612 160.53198,2.82062 227.44046,23.84141 221.29051,69.52336 285.18133,133.95175 276.69636,279.02446 l -3.427,58.59372 -490.83905,2.76848 c -269.96147,1.5227 -494.082395,-0.4751 -498.04642,-4.43894 z M 279.8757,471.99093 C 133.24191,387.88476 103.22925,217.75964 212.97473,92.76644 261.36932,37.648037 317.87571,12.036592 391.86936,11.682696 527.82564,11.032413 637.4788,120.51044 637.4788,256.89979 c 0,186.29129 -199.06539,306.02515 -357.6031,215.09114 z"
       id="path837" />
  </g>
</svg>
