<?xml version="1.0" encoding="UTF-8" standalone="no"?>
<svg
   xmlns:dc="http://purl.org/dc/elements/1.1/"
   xmlns:cc="http://creativecommons.org/ns#"
   xmlns:rdf="http://www.w3.org/1999/02/22-rdf-syntax-ns#"
   xmlns:svg="http://www.w3.org/2000/svg"
   xmlns="http://www.w3.org/2000/svg"
   xmlns:sodipodi="http://sodipodi.sourceforge.net/DTD/sodipodi-0.dtd"
   xmlns:inkscape="http://www.inkscape.org/namespaces/inkscape"
   version="1.1"
   id="svg2"
   width="1000"
   height="999.78998"
   viewBox="0 0 1000 999.78995"
   sodipodi:docname="ic_rightarrow.svg"
   inkscape:version="1.0.2 (e86c870879, 2021-01-15)">
  <metadata
     id="metadata8">
    <rdf:RDF>
      <cc:Work
         rdf:about="">
        <dc:format>image/svg+xml</dc:format>
        <dc:type
           rdf:resource="http://purl.org/dc/dcmitype/StillImage" />
        <dc:title></dc:title>
      </cc:Work>
    </rdf:RDF>
  </metadata>
  <defs
     id="defs6" />
  <sodipodi:namedview
     pagecolor="#ffffff"
     bordercolor="#666666"
     borderopacity="1"
     objecttolerance="10"
     gridtolerance="10"
     guidetolerance="10"
     inkscape:pageopacity="0"
     inkscape:pageshadow="2"
     inkscape:window-width="3840"
     inkscape:window-height="2077"
     id="namedview4"
     showgrid="false"
     lock-margins="true"
     fit-margin-top="0"
     fit-margin-left="0"
     fit-margin-right="0"
     fit-margin-bottom="0"
     inkscape:zoom="1"
     inkscape:cx="242.32088"
     inkscape:cy="587.24359"
     inkscape:window-x="0"
     inkscape:window-y="0"
     inkscape:window-maximized="1"
     inkscape:current-layer="g10"
     inkscape:document-rotation="0" />
  <g
     inkscape:groupmode="layer"
     inkscape:label="Image"
     id="g10"
     transform="translate(-32.484375,-122.38672)">
    <path
       id="path841"
       style="fill:#000000;stroke-width:10.7504"
       d="m 135.13838,122.38672 c -56.754066,0 -102.444038,45.69008 -102.444038,102.44407 V 449.79193 H 134.78144 V 224.47377 H 930.39722 V 1020.0896 H 134.78144 V 794.7715 H 32.694342 v 224.9611 c 0,56.7541 45.689972,102.4441 102.444038,102.4441 H 930.0403 c 56.7541,0 102.4441,-45.69 102.4441,-102.4441 V 224.83079 c 0,-56.75399 -45.69,-102.44407 -102.4441,-102.44407 z m 376.34905,220.46778 -40.73406,39.7682 -40.73405,39.78917 72.39743,72.94339 72.39743,72.96435 H 303.65977 32.484375 v 53.75215 53.75215 H 303.65977 574.81418 l -72.22945,72.79632 -72.22946,72.77536 40.14614,40.16715 40.14614,40.14619 L 650.42413,761.93227 790.20075,622.17668 650.84407,482.50516 Z" />
  </g>
</svg>
