<?xml version="1.0" encoding="UTF-8" standalone="no"?>
<svg
   xmlns:dc="http://purl.org/dc/elements/1.1/"
   xmlns:cc="http://creativecommons.org/ns#"
   xmlns:rdf="http://www.w3.org/1999/02/22-rdf-syntax-ns#"
   xmlns:svg="http://www.w3.org/2000/svg"
   xmlns="http://www.w3.org/2000/svg"
   xmlns:sodipodi="http://sodipodi.sourceforge.net/DTD/sodipodi-0.dtd"
   xmlns:inkscape="http://www.inkscape.org/namespaces/inkscape"
   version="1.1"
   id="svg2"
   width="978.72339"
   height="1000"
   viewBox="0 0 978.7234 1000"
   sodipodi:docname="ic_settings.svg"
   inkscape:version="1.0.2 (e86c870879, 2021-01-15)">
  <metadata
     id="metadata8">
    <rdf:RDF>
      <cc:Work
         rdf:about="">
        <dc:format>image/svg+xml</dc:format>
        <dc:type
           rdf:resource="http://purl.org/dc/dcmitype/StillImage" />
        <dc:title></dc:title>
      </cc:Work>
    </rdf:RDF>
  </metadata>
  <defs
     id="defs6" />
  <sodipodi:namedview
     pagecolor="#ffffff"
     bordercolor="#666666"
     borderopacity="1"
     objecttolerance="10"
     gridtolerance="10"
     guidetolerance="10"
     inkscape:pageopacity="0"
     inkscape:pageshadow="2"
     inkscape:window-width="3840"
     inkscape:window-height="2077"
     id="namedview4"
     showgrid="false"
     lock-margins="true"
     fit-margin-top="0"
     fit-margin-left="0"
     fit-margin-right="0"
     fit-margin-bottom="0"
     inkscape:zoom="1"
     inkscape:cx="221.89132"
     inkscape:cy="460.15048"
     inkscape:window-x="0"
     inkscape:window-y="0"
     inkscape:window-maximized="1"
     inkscape:current-layer="g10"
     inkscape:document-rotation="0" />
  <g
     inkscape:groupmode="layer"
     inkscape:label="Image"
     id="g10"
     transform="translate(115.48884,-68.530386)">
    <path
       id="path839-3"
       style="fill:#000000;stroke-width:10.6383"
       d="m 270.08714,68.530386 -10.9084,13.297904 -10.92919,13.297871 -7.48005,60.526059 -7.50083,60.50532 -42.32464,28.00862 L 148.6194,272.17477 80.280811,244.83105 11.942218,217.46658 H 7.3503037 2.758389 l -59.13404,100.48202 -59.113189,100.46128 v 4.61266 4.63351 l 58.510636,45.12968 58.5106356,45.15042 v 51.55 51.55 l -58.5106356,44.17393 -58.510636,44.17383 v 4.13479 4.11404 l 54.479785,95.84861 54.4796784,95.82777 8.830638,5.44383 8.8097866,5.44383 66.115402,-26.86585 66.13614,-26.86585 44.83876,26.26329 44.83876,26.28404 7.56316,60.46372 7.54239,60.48457 5.48538,14.2745 5.48536,14.2952 h 114.75648 114.7357 l 6.46194,-16.851 6.48271,-16.8717 6.81516,-58.05348 6.83593,-58.03266 44.56865,-26.13872 44.58944,-26.11776 66.13612,26.86585 66.11536,26.86585 9.43318,-5.81788 9.43318,-5.83861 53.87717,-94.14468 53.87712,-94.12404 v -5.42308 -5.42298 l -58.51063,-45.15043 -58.51062,-45.12967 v -50.63585 -50.615 l 58.51062,-44.17383 58.51063,-44.17393 v -6.25415 -6.2749 L 808.5471,322.27041 753.85957,227.52307 745.19518,222.16233 736.51,216.80169 671.35042,244.2285 606.17008,271.65541 560.41709,244.8519 514.68488,218.04828 507.12171,157.58456 499.57933,97.120842 494.09395,82.82563 488.60858,68.530386 H 379.33748 Z M 373.87288,392.99849 a 175.53191,175.53191 0 0 1 175.53191,175.53192 175.53191,175.53191 0 0 1 -175.53191,175.5319 175.53191,175.53191 0 0 1 -175.5319,-175.5319 175.53191,175.53191 0 0 1 175.5319,-175.53192 z" />
  </g>
</svg>
