<?xml version="1.0" encoding="UTF-8" standalone="no"?>
<svg
   xmlns:dc="http://purl.org/dc/elements/1.1/"
   xmlns:cc="http://creativecommons.org/ns#"
   xmlns:rdf="http://www.w3.org/1999/02/22-rdf-syntax-ns#"
   xmlns:svg="http://www.w3.org/2000/svg"
   xmlns="http://www.w3.org/2000/svg"
   xmlns:sodipodi="http://sodipodi.sourceforge.net/DTD/sodipodi-0.dtd"
   xmlns:inkscape="http://www.inkscape.org/namespaces/inkscape"
   version="1.1"
   id="svg2"
   width="1000"
   height="777.56824"
   viewBox="0 0 1000 777.56824"
   sodipodi:docname="ic_stat_logo.svg"
   inkscape:version="1.0.2 (e86c870879, 2021-01-15)">
  <metadata
     id="metadata8">
    <rdf:RDF>
      <cc:Work
         rdf:about="">
        <dc:format>image/svg+xml</dc:format>
        <dc:type
           rdf:resource="http://purl.org/dc/dcmitype/StillImage" />
        <dc:title></dc:title>
      </cc:Work>
    </rdf:RDF>
  </metadata>
  <defs
     id="defs6" />
  <sodipodi:namedview
     pagecolor="#ffffff"
     bordercolor="#666666"
     borderopacity="1"
     objecttolerance="10"
     gridtolerance="10"
     guidetolerance="10"
     inkscape:pageopacity="0"
     inkscape:pageshadow="2"
     inkscape:window-width="3840"
     inkscape:window-height="2077"
     id="namedview4"
     showgrid="false"
     lock-margins="true"
     fit-margin-top="0"
     fit-margin-left="0"
     fit-margin-right="0"
     fit-margin-bottom="0"
     inkscape:zoom="0.98746357"
     inkscape:cx="132.95044"
     inkscape:cy="219.35502"
     inkscape:window-x="0"
     inkscape:window-y="0"
     inkscape:window-maximized="1"
     inkscape:current-layer="g10"
     inkscape:document-rotation="0" />
  <g
     inkscape:groupmode="layer"
     inkscape:label="Image"
     id="g10"
     transform="translate(147.66797,-14.535156)">
    <path
       id="path839"
       style="fill:#000000;stroke-width:2683.65;stroke-linecap:round;paint-order:stroke fill markers"
       d="M 241.11612,14.535156 A 388.78409,388.78409 0 0 0 -147.66797,403.31924 388.78409,388.78409 0 0 0 241.11612,792.10337 388.78409,388.78409 0 0 0 604.35429,541.88752 L 725.4017,474.24996 852.33203,403.31924 725.4017,332.38853 604.35429,264.75097 A 388.78409,388.78409 0 0 0 241.11612,14.535156 Z M 360.42105,159.46594 a 103.64627,103.64627 0 0 1 1.16699,0 A 103.64627,103.64627 0 0 1 465.2265,263.10439 103.64627,103.64627 0 0 1 361.58804,366.75883 103.64627,103.64627 0 0 1 257.9336,263.10439 103.64627,103.64627 0 0 1 360.42105,159.46594 Z" />
  </g>
</svg>
